{"glyphs":{"0":{"ha":1111,"x_min":0,"x_max":0,"o":"m 556 -17 b 1056 533 879 -17 1056 218 b 556 1064 1056 831 872 1064 b 56 533 239 1064 56 831 b 556 -17 56 218 232 -17 z m 556 293 b 419 524 465 293 419 390 b 556 739 419 657 465 739 b 692 524 646 739 692 657 b 556 293 692 390 646 293 z "},"1":{"ha":664,"x_min":0,"x_max":0,"o":"m 567 0 l 567 1047 l 28 1031 l 28 700 l 189 711 l 189 0 z "},"2":{"ha":1068,"x_min":0,"x_max":0,"o":"m 1026 0 l 1026 322 b 701 313 932 321 756 317 l 736 335 b 997 722 861 415 997 536 b 553 1064 997 949 824 1064 b 69 621 243 1064 99 914 l 442 621 b 543 753 447 694 471 753 b 621 672 600 753 621 717 b 390 368 621 571 504 468 l -14 4 l -14 0 z "},"3":{"ha":1061,"x_min":0,"x_max":0,"o":"m 539 -17 b 1013 317 744 -17 1013 63 b 839 561 1013 432 940 528 b 968 764 921 596 968 676 b 536 1064 968 982 714 1064 b 83 715 297 1064 106 978 l 458 715 b 529 796 458 765 488 796 b 599 726 572 796 599 769 b 526 651 599 686 567 651 b 489 654 519 651 497 653 l 489 436 b 540 442 506 440 522 442 b 636 344 592 442 636 399 b 533 249 636 290 593 249 b 425 367 475 249 425 294 l 42 367 b 539 -17 53 81 283 -17 z "},"4":{"ha":1067,"x_min":0,"x_max":0,"o":"m 907 494 l 907 1047 l 457 1047 l 28 474 l 28 199 l 558 199 l 546 0 l 907 0 l 897 199 l 1039 199 l 1039 494 z m 567 731 b 560 585 563 675 560 624 l 561 489 l 383 486 z "},"5":{"ha":1003,"x_min":0,"x_max":0,"o":"m 460 -17 b 961 361 711 -17 961 96 b 603 689 961 561 794 689 b 415 633 521 689 444 664 b 449 754 433 671 442 714 l 897 754 l 897 1047 l 185 1047 l 94 429 l 104 428 b 371 474 193 460 276 474 b 581 369 485 474 581 447 b 417 265 581 301 515 265 b 83 351 310 265 161 311 l 42 68 b 460 -17 142 21 290 -17 z "},"6":{"ha":1078,"x_min":0,"x_max":0,"o":"m 544 -17 b 1036 410 800 -17 1036 133 b 693 760 1036 608 888 760 b 613 746 658 760 636 754 b 663 792 632 765 647 779 l 953 1047 l 454 1047 l 232 821 b 42 426 115 701 42 581 b 544 -17 42 144 283 -17 z m 538 282 b 408 410 461 282 408 340 b 535 542 408 485 464 542 b 668 410 611 542 668 485 b 538 282 668 335 608 282 z "},"7":{"ha":1051,"x_min":0,"x_max":0,"o":"m 1065 1043 l 1065 1047 l 49 1047 l 49 711 l 488 711 l 49 0 l 469 0 z "},"8":{"ha":1053,"x_min":0,"x_max":0,"o":"m 526 -17 b 1004 300 715 -17 1004 54 b 815 544 1004 411 928 506 b 971 747 910 572 971 649 b 526 1064 971 976 714 1064 b 82 747 339 1064 82 976 b 238 544 82 649 143 572 b 49 300 129 507 49 414 b 526 -17 49 54 338 -17 z m 526 642 b 449 721 486 642 449 678 b 526 800 449 767 482 800 b 604 721 571 800 604 767 b 526 642 604 678 567 642 z m 526 235 b 424 338 469 235 424 278 b 526 440 424 394 475 440 b 629 338 578 440 629 394 b 526 235 629 278 583 235 z "},"9":{"ha":1078,"x_min":0,"x_max":0,"o":"m 846 226 b 1036 621 963 346 1036 467 b 533 1064 1036 903 794 1064 b 42 638 278 1064 42 914 b 389 288 42 439 190 288 b 460 296 419 288 432 289 b 383 226 435 272 408 249 l 125 0 l 624 0 z m 543 506 b 410 638 467 506 410 563 b 540 765 410 713 469 765 b 669 638 617 765 669 707 b 543 506 669 563 614 506 z "},"\u0000":{"ha":0,"x_min":0,"x_max":0,"o":""},"\r":{"ha":347,"x_min":0,"x_max":0,"o":""}," ":{"ha":347,"x_min":0,"x_max":0,"o":""},"!":{"ha":578,"x_min":0,"x_max":0,"o":"m 472 400 l 472 1047 l 106 1047 l 106 400 z m 289 -17 b 496 156 390 -17 496 46 b 289 332 496 267 390 332 b 82 156 188 332 82 267 b 289 -17 82 46 188 -17 z "},"\"":{"ha":1108,"x_min":0,"x_max":0,"o":"m 467 529 l 522 1047 l 163 1047 l 218 529 z m 890 529 l 946 1047 l 586 1047 l 642 529 z "},"#":{"ha":1033,"x_min":0,"x_max":0,"o":"m 388 0 l 419 250 l 571 250 l 538 0 l 725 0 l 756 250 l 949 250 l 949 413 l 776 413 l 800 594 l 978 594 l 978 756 l 819 756 l 860 1049 l 672 1049 l 635 756 l 483 756 l 521 1049 l 335 1049 l 296 756 l 107 756 l 107 594 l 276 594 l 254 413 l 56 413 l 56 250 l 231 250 l 200 0 z m 463 594 l 615 594 l 593 413 l 440 413 z "},"$":{"ha":906,"x_min":0,"x_max":0,"o":"m 871 360 b 586 675 871 553 739 633 b 440 747 506 697 440 711 b 522 794 440 782 478 794 b 728 726 607 794 683 758 l 863 981 b 572 1053 781 1018 693 1043 l 582 1214 l 357 1214 l 367 1046 b 60 722 186 1013 60 892 b 378 401 60 519 225 447 b 490 336 443 382 490 371 b 406 285 490 299 458 285 b 151 383 338 285 246 314 l 21 132 b 354 26 104 79 211 39 l 343 -160 l 568 -160 l 557 33 b 871 360 747 68 871 189 z "},"%":{"ha":1582,"x_min":0,"x_max":0,"o":"m 389 486 b 722 778 563 486 722 578 b 389 1064 722 975 572 1064 b 56 778 206 1064 56 975 b 389 486 56 578 215 486 z m 1232 957 l 1106 1053 l 367 129 l 492 25 z m 389 704 b 322 778 343 704 322 738 b 389 856 322 817 343 856 b 456 778 435 856 456 817 b 389 704 456 738 435 704 z m 1193 -17 b 1526 275 1367 -17 1526 75 b 1193 561 1526 472 1376 561 b 860 275 1010 561 860 472 b 1193 -17 860 75 1019 -17 z m 1193 201 b 1126 275 1147 201 1126 235 b 1193 353 1126 314 1147 353 b 1260 275 1239 353 1260 314 b 1193 201 1260 235 1239 201 z "},"&":{"ha":1336,"x_min":0,"x_max":0,"o":"m 1065 239 b 1235 350 1119 275 1174 311 l 1036 575 b 869 426 996 535 939 481 l 781 513 b 985 793 897 568 985 674 b 601 1064 985 976 814 1064 b 215 799 390 1064 215 981 b 313 582 215 718 257 649 b 56 285 188 544 56 447 b 456 -17 56 75 268 -17 b 808 76 592 -17 679 4 l 883 0 l 1313 0 z m 622 836 b 682 781 657 836 682 813 b 606 689 682 743 653 718 b 558 782 574 729 558 758 b 622 836 558 813 586 836 z m 504 244 b 411 324 454 244 411 269 b 475 414 411 361 444 393 l 618 269 b 504 244 575 250 540 244 z "},"'":{"ha":685,"x_min":0,"x_max":0,"o":"m 467 529 l 522 1047 l 163 1047 l 218 529 z "},"(":{"ha":642,"x_min":0,"x_max":0,"o":"m 597 -124 b 436 469 478 93 436 311 b 597 1063 436 628 478 846 l 336 1217 b 103 469 171 954 103 707 b 336 -278 103 224 171 -15 z "},")":{"ha":642,"x_min":0,"x_max":0,"o":"m 306 -278 b 539 469 471 -15 539 224 b 306 1217 539 707 471 954 l 44 1063 b 206 469 164 846 206 628 b 44 -124 206 311 164 93 z "},"*":{"ha":654,"x_min":0,"x_max":0,"o":"m 328 644 l 449 476 l 592 588 l 449 726 l 633 772 l 585 931 l 407 864 l 424 1047 l 232 1047 l 250 864 l 72 931 l 21 772 l 207 726 l 65 588 l 208 476 z "},"+":{"ha":1111,"x_min":0,"x_max":0,"o":"m 694 14 l 694 292 l 972 292 l 972 569 l 694 569 l 694 847 l 417 847 l 417 569 l 139 569 l 139 292 l 417 292 l 417 14 z "},",":{"ha":578,"x_min":0,"x_max":0,"o":"m 533 300 l 174 300 l 6 -218 l 285 -218 z "},"-":{"ha":551,"x_min":0,"x_max":0,"o":"m 524 229 l 524 535 l 28 535 l 28 229 z "},".":{"ha":578,"x_min":0,"x_max":0,"o":"m 289 -17 b 496 156 390 -17 496 46 b 289 332 496 267 390 332 b 82 156 188 332 82 267 b 289 -17 82 46 188 -17 z "},"/":{"ha":935,"x_min":0,"x_max":0,"o":"m 935 1118 l 772 1206 l 0 -153 l 163 -237 z "},":":{"ha":578,"x_min":0,"x_max":0,"o":"m 289 406 b 496 578 390 406 496 468 b 289 754 496 689 390 754 b 82 578 188 754 82 689 b 289 406 82 468 188 406 z m 289 -17 b 496 156 390 -17 496 46 b 289 332 496 267 390 332 b 82 156 188 332 82 267 b 289 -17 82 46 188 -17 z "},";":{"ha":578,"x_min":0,"x_max":0,"o":"m 319 406 b 526 578 421 406 526 468 b 319 754 526 689 421 754 b 113 578 218 754 113 689 b 319 406 113 468 218 406 z m 533 300 l 174 300 l 6 -218 l 285 -218 z "},"<":{"ha":1111,"x_min":0,"x_max":0,"o":"m 139 585 l 139 246 l 972 -7 l 972 288 l 511 417 l 972 543 l 972 838 z "},"=":{"ha":1111,"x_min":0,"x_max":0,"o":"m 972 485 l 972 763 l 139 763 l 139 485 z m 972 86 l 972 364 l 139 364 l 139 86 z "},">":{"ha":1111,"x_min":0,"x_max":0,"o":"m 139 543 l 600 417 l 139 288 l 139 -7 l 972 246 l 972 585 l 139 838 z "},"?":{"ha":922,"x_min":0,"x_max":0,"o":"m 653 379 l 653 488 b 874 749 789 514 874 596 b 457 1065 874 943 707 1065 b 49 726 211 1065 49 943 l 49 722 l 390 722 l 390 726 b 461 806 390 779 415 806 b 525 738 506 806 525 778 b 369 635 525 656 457 635 l 314 635 l 314 379 z m 481 -17 b 688 156 582 -17 688 46 b 481 332 688 267 582 332 b 274 156 379 332 274 267 b 481 -17 274 46 379 -17 z "},"@":{"ha":1208,"x_min":0,"x_max":0,"o":"m 750 806 l 740 739 b 581 819 721 772 678 819 b 285 531 431 819 301 708 b 535 238 268 354 389 238 b 732 325 636 238 699 281 b 897 238 756 265 814 238 b 1160 596 1060 238 1160 385 b 625 1068 1160 818 982 1068 b 49 501 293 1068 49 829 b 593 -21 49 201 268 -21 b 906 61 718 -21 829 10 l 858 193 b 593 129 796 156 704 129 b 210 501 368 129 210 278 b 625 921 210 751 383 921 b 1013 596 901 921 1013 749 b 908 378 1013 472 968 378 b 872 472 869 378 863 406 l 918 806 z m 711 529 b 575 379 701 436 656 379 b 465 531 501 379 457 439 b 597 678 472 611 524 678 b 711 529 676 678 719 613 z "},"A":{"ha":1131,"x_min":0,"x_max":0,"o":"m 1144 0 l 771 1047 l 350 1047 l -14 0 l 379 0 l 414 135 l 700 135 l 732 0 z m 518 536 b 563 714 533 596 549 654 l 604 533 l 640 385 l 479 385 z "},"B":{"ha":1022,"x_min":0,"x_max":0,"o":"m 594 0 b 978 289 749 0 978 56 b 771 551 978 417 904 507 l 771 553 b 901 776 842 585 901 669 b 497 1047 901 986 710 1047 l 76 1047 l 76 0 z m 429 794 l 449 794 b 561 721 531 794 561 774 b 443 644 561 661 508 644 l 429 644 z m 429 424 l 479 424 b 625 336 551 424 625 418 b 472 250 625 251 539 250 l 429 250 z "},"C":{"ha":918,"x_min":0,"x_max":0,"o":"m 581 -17 b 851 25 651 -17 789 -4 l 863 417 b 644 319 801 357 733 319 b 432 524 531 319 432 408 b 639 728 432 657 546 728 b 863 621 714 728 788 693 l 851 1021 b 596 1064 767 1050 682 1064 b 49 514 289 1064 49 819 b 581 -17 49 215 282 -17 z "},"D":{"ha":1133,"x_min":0,"x_max":0,"o":"m 558 0 b 1085 508 865 0 1085 197 b 464 1047 1085 893 814 1047 l 76 1047 l 76 0 z m 443 719 l 481 719 b 704 510 619 719 704 658 b 481 314 704 372 607 314 l 443 314 z "},"E":{"ha":854,"x_min":0,"x_max":0,"o":"m 792 0 l 792 286 l 443 286 l 443 393 l 753 393 l 753 665 l 443 665 l 443 761 l 781 761 l 781 1047 l 76 1047 l 76 0 z "},"F":{"ha":833,"x_min":0,"x_max":0,"o":"m 443 0 l 443 364 l 739 364 l 739 639 l 443 639 l 443 747 l 778 747 l 778 1047 l 76 1047 l 76 0 z "},"G":{"ha":1246,"x_min":0,"x_max":0,"o":"m 626 -17 b 1197 567 979 -17 1197 200 l 1197 624 l 610 624 l 610 369 l 782 369 l 782 368 b 628 288 763 315 704 288 b 432 515 504 288 432 392 b 629 744 432 646 503 744 b 788 664 704 744 757 715 l 1143 794 b 629 1064 1061 974 839 1064 b 49 517 300 1064 49 857 b 626 -17 49 181 307 -17 z "},"H":{"ha":1119,"x_min":0,"x_max":0,"o":"m 443 0 l 443 364 l 676 364 l 676 0 l 1043 0 l 1043 1047 l 676 1047 l 676 694 l 443 694 l 443 1047 l 76 1047 l 76 0 z "},"I":{"ha":519,"x_min":0,"x_max":0,"o":"m 443 0 l 443 1047 l 76 1047 l 76 0 z "},"J":{"ha":739,"x_min":0,"x_max":0,"o":"m 313 -17 b 669 353 528 -17 669 125 l 669 1047 l 297 1047 l 297 425 b 231 324 297 385 292 324 b 121 399 189 324 147 364 l 0 97 b 313 -17 81 24 194 -17 z "},"K":{"ha":1119,"x_min":0,"x_max":0,"o":"m 1133 0 l 779 528 l 1099 1047 l 683 1047 l 439 593 l 447 1047 l 76 1047 l 76 0 l 447 0 l 439 463 l 692 0 z "},"L":{"ha":788,"x_min":0,"x_max":0,"o":"m 763 0 l 763 336 l 443 336 l 443 1047 l 76 1047 l 76 0 z "},"M":{"ha":1461,"x_min":0,"x_max":0,"o":"m 828 0 l 1004 563 l 1063 0 l 1440 0 l 1268 1047 l 881 1047 l 732 511 l 582 1047 l 190 1047 l 21 0 l 379 0 l 446 563 l 606 0 z "},"N":{"ha":1203,"x_min":0,"x_max":0,"o":"m 783 478 l 442 1047 l 76 1047 l 76 0 l 440 0 l 428 551 l 763 0 l 1126 0 l 1126 1047 l 763 1047 z "},"O":{"ha":1256,"x_min":0,"x_max":0,"o":"m 628 -17 b 1207 521 946 -17 1207 185 b 628 1064 1207 849 946 1064 b 49 521 310 1064 49 849 b 628 -17 49 185 310 -17 z m 628 319 b 432 521 511 319 432 401 b 628 728 432 635 507 728 b 824 521 749 728 824 635 b 628 319 824 401 744 319 z "},"P":{"ha":1013,"x_min":0,"x_max":0,"o":"m 443 0 l 443 301 l 558 301 b 983 678 800 301 983 425 b 558 1047 983 921 800 1047 l 76 1047 l 76 0 z m 443 761 l 493 761 b 617 675 556 761 617 749 b 494 579 617 599 561 579 l 443 579 z "},"Q":{"ha":1256,"x_min":0,"x_max":0,"o":"m 1104 199 b 1207 521 1169 283 1207 393 b 628 1064 1207 849 946 1064 b 49 521 310 1064 49 849 b 628 -17 49 185 310 -17 b 863 24 711 -17 790 -3 l 915 -54 l 1217 83 z m 432 521 b 628 728 432 635 507 728 b 824 521 749 728 824 635 b 821 483 824 508 822 496 l 586 393 l 642 319 l 628 319 b 432 521 511 319 432 401 z "},"R":{"ha":1044,"x_min":0,"x_max":0,"o":"m 783 393 b 972 683 917 465 972 558 b 536 1047 972 947 774 1047 l 76 1047 l 76 0 l 443 0 l 443 336 l 457 336 l 622 0 l 1058 0 z m 478 761 b 600 671 544 761 600 751 b 475 583 600 593 538 583 l 443 583 l 443 761 z "},"S":{"ha":906,"x_min":0,"x_max":0,"o":"m 442 -17 b 871 340 697 -17 871 125 b 586 663 871 538 739 617 b 450 736 511 685 450 699 b 522 783 450 771 483 783 b 717 714 603 783 675 747 l 851 974 b 483 1064 751 1031 644 1064 b 69 710 243 1064 69 924 b 378 382 69 503 229 426 b 490 317 443 363 490 351 b 406 264 490 278 458 264 b 151 364 338 264 246 293 l 21 108 b 442 -17 121 35 254 -17 z "},"T":{"ha":836,"x_min":0,"x_max":0,"o":"m 608 0 l 608 711 l 818 711 l 818 1047 l 18 1047 l 18 711 l 228 711 l 228 0 z "},"U":{"ha":1108,"x_min":0,"x_max":0,"o":"m 554 -17 b 1039 428 847 -17 1039 122 l 1039 1047 l 658 1047 l 658 464 b 554 310 658 382 656 310 b 450 464 453 310 450 382 l 450 1047 l 69 1047 l 69 428 b 554 -17 69 122 261 -17 z "},"V":{"ha":1106,"x_min":0,"x_max":0,"o":"m 714 0 l 1119 1047 l 722 1047 l 553 431 l 383 1047 l -14 1047 l 392 0 z "},"W":{"ha":1635,"x_min":0,"x_max":0,"o":"m 683 0 l 817 569 l 940 0 l 1279 0 l 1642 1047 l 1246 1047 l 1106 436 l 963 1047 l 671 1047 l 519 436 l 388 1047 l -7 1047 l 351 0 z "},"X":{"ha":1154,"x_min":0,"x_max":0,"o":"m 428 0 l 578 286 l 726 0 l 1160 0 l 786 557 l 1114 1047 l 685 1047 l 575 813 l 461 1047 l 32 1047 l 361 557 l -6 0 z "},"Y":{"ha":1068,"x_min":0,"x_max":0,"o":"m 724 0 l 724 451 l 1082 1047 l 654 1047 l 540 774 l 417 1047 l -14 1047 l 351 451 l 351 0 z "},"Z":{"ha":1054,"x_min":0,"x_max":0,"o":"m 1006 0 l 1006 324 l 596 324 l 1051 1044 l 1051 1047 l 76 1047 l 76 731 l 451 731 l -14 4 l -14 0 z "},"[":{"ha":642,"x_min":0,"x_max":0,"o":"m 571 -243 l 571 -60 l 390 -60 l 390 1010 l 571 1010 l 571 1193 l 86 1193 l 86 -243 z "},"\\":{"ha":935,"x_min":0,"x_max":0,"o":"m 935 -153 l 163 1206 l 0 1118 l 772 -237 z "},"]":{"ha":642,"x_min":0,"x_max":0,"o":"m 556 -243 l 556 1193 l 71 1193 l 71 1010 l 251 1010 l 251 -60 l 71 -60 l 71 -243 z "},"^":{"ha":944,"x_min":0,"x_max":0,"o":"m 642 1050 l 303 1050 l 28 483 l 317 483 l 471 817 l 628 483 l 917 483 z "},"_":{"ha":597,"x_min":0,"x_max":0,"o":"m 597 -242 l 597 -86 l 0 -86 l 0 -242 z "},"`":{"ha":411,"x_min":0,"x_max":0,"o":"m 411 890 l 201 1161 l -42 990 l 229 790 z "},"a":{"ha":1010,"x_min":0,"x_max":0,"o":"m 365 -17 b 590 97 467 -17 525 28 l 593 97 l 589 0 l 939 0 l 939 738 l 589 738 l 593 650 l 590 650 b 375 754 536 722 464 754 b 40 365 158 754 40 564 b 365 -17 40 167 156 -17 z m 496 264 b 396 368 435 264 396 306 b 496 474 396 432 435 474 b 599 368 557 474 599 432 b 496 264 599 306 557 264 z "},"b":{"ha":1008,"x_min":0,"x_max":0,"o":"m 636 -17 b 968 369 858 -17 968 175 b 647 754 968 569 864 754 b 422 639 544 754 467 707 l 421 639 b 429 829 425 704 429 786 l 429 1126 l 71 1126 l 71 0 l 419 0 l 418 110 l 421 110 b 636 -17 467 33 544 -17 z m 514 264 b 413 369 453 264 413 306 b 514 474 413 433 453 474 b 614 369 575 474 614 433 b 514 264 614 306 575 264 z "},"c":{"ha":693,"x_min":0,"x_max":0,"o":"m 451 -17 b 632 18 519 -17 589 -1 l 647 321 b 514 264 604 289 564 264 b 403 369 449 264 403 313 b 515 479 403 436 450 479 b 647 418 567 479 610 450 l 647 717 b 422 754 593 738 514 754 b 42 365 201 754 42 583 b 451 -17 42 118 213 -17 z "},"d":{"ha":1008,"x_min":0,"x_max":0,"o":"m 372 -17 b 588 110 464 -17 542 33 l 592 110 l 589 0 l 938 0 l 938 1126 l 579 1126 l 579 829 b 588 639 579 785 582 694 l 586 639 b 361 754 542 707 464 754 b 40 369 144 754 40 569 b 372 -17 40 175 150 -17 z m 494 264 b 394 369 433 264 394 306 b 494 474 394 433 433 474 b 596 369 556 474 596 433 b 494 264 596 306 556 264 z "},"e":{"ha":960,"x_min":0,"x_max":0,"o":"m 918 342 b 472 754 918 614 724 754 b 42 363 238 754 42 614 b 486 -17 42 110 238 -17 b 901 243 657 -17 853 65 l 557 243 b 481 182 547 208 519 182 b 394 308 414 182 394 235 l 917 308 b 918 342 918 319 918 331 z m 396 461 b 481 557 399 514 426 557 b 564 461 535 557 563 514 z "},"f":{"ha":597,"x_min":0,"x_max":0,"o":"m 468 0 l 468 450 l 589 450 l 589 738 l 463 738 l 463 772 b 538 867 463 832 488 867 b 597 856 565 867 581 863 l 597 1138 b 422 1156 551 1147 490 1156 b 110 819 201 1156 110 1040 l 110 738 l 8 738 l 8 450 l 110 450 l 110 0 z "},"g":{"ha":1000,"x_min":0,"x_max":0,"o":"m 481 -319 b 931 101 728 -319 931 -197 l 931 738 l 581 738 l 585 650 l 582 650 b 375 754 528 722 464 754 b 49 386 167 754 49 572 b 365 25 49 200 164 25 b 590 147 467 25 528 74 l 593 147 l 593 58 b 465 -99 593 -43 542 -99 b 342 -19 392 -99 354 -65 l 51 -19 b 481 -319 69 -231 242 -319 z m 497 278 b 404 375 440 278 404 317 b 497 474 404 435 440 474 b 590 375 549 474 590 435 b 497 278 590 317 549 278 z "},"h":{"ha":974,"x_min":0,"x_max":0,"o":"m 428 0 l 428 353 b 493 464 428 413 435 464 b 549 360 547 464 549 413 l 549 0 l 907 0 l 907 454 b 651 754 907 615 835 754 b 421 619 539 754 485 701 l 418 619 b 428 851 422 678 428 790 l 428 1126 l 69 1126 l 69 0 z "},"i":{"ha":497,"x_min":0,"x_max":0,"o":"m 249 810 b 446 983 351 810 446 863 b 249 1156 446 1090 361 1156 b 51 983 136 1156 51 1090 b 249 810 51 863 146 810 z m 428 0 l 428 738 l 69 738 l 69 0 z "},"j":{"ha":497,"x_min":0,"x_max":0,"o":"m 249 810 b 446 983 351 810 446 863 b 249 1156 446 1090 361 1156 b 51 983 136 1156 51 1090 b 249 810 51 863 146 810 z m 428 -304 l 428 738 l 69 738 l 69 -304 z "},"k":{"ha":1010,"x_min":0,"x_max":0,"o":"m 724 376 l 994 738 l 586 738 l 428 464 l 428 1126 l 69 1126 l 69 0 l 428 0 l 428 260 l 438 264 l 586 0 l 1008 0 z "},"l":{"ha":497,"x_min":0,"x_max":0,"o":"m 428 0 l 428 1126 l 69 1126 l 69 0 z "},"m":{"ha":1386,"x_min":0,"x_max":0,"o":"m 417 0 l 417 365 b 468 464 417 426 422 464 b 521 365 515 464 521 426 l 521 0 l 868 0 l 868 365 b 919 464 868 426 874 464 b 972 365 967 464 972 426 l 972 0 l 1319 0 l 1319 458 b 1065 754 1319 618 1243 754 b 842 597 950 754 885 701 l 833 597 b 622 754 801 697 728 754 b 408 607 526 754 439 697 l 397 607 l 408 738 l 69 738 l 69 0 z "},"n":{"ha":974,"x_min":0,"x_max":0,"o":"m 428 0 l 428 353 b 493 464 428 413 435 464 b 549 360 547 464 549 413 l 549 0 l 907 0 l 907 454 b 651 754 907 615 835 754 b 414 619 536 754 479 701 l 411 619 l 419 738 l 69 738 l 69 0 z "},"o":{"ha":986,"x_min":0,"x_max":0,"o":"m 493 -17 b 944 369 739 -17 944 106 b 493 754 944 624 739 754 b 42 369 247 754 42 624 b 493 -17 42 106 247 -17 z m 493 267 b 393 369 432 267 393 310 b 493 471 393 429 432 471 b 593 369 554 471 593 429 b 493 267 593 310 554 267 z "},"p":{"ha":1008,"x_min":0,"x_max":0,"o":"m 429 -304 l 429 -71 b 421 101 429 -18 429 21 l 422 101 b 639 -17 464 33 544 -17 b 968 369 856 -17 968 175 b 647 754 968 569 864 754 b 422 639 544 754 467 707 l 418 639 l 422 738 l 71 738 l 71 -304 z m 514 264 b 413 369 453 264 413 306 b 514 474 413 433 453 474 b 614 369 575 474 614 433 b 514 264 614 306 575 264 z "},"q":{"ha":1008,"x_min":0,"x_max":0,"o":"m 938 -304 l 938 738 l 586 738 l 590 639 l 586 639 b 361 754 542 707 464 754 b 40 369 144 754 40 569 b 369 -17 40 175 153 -17 b 586 101 464 -17 544 33 l 588 101 b 579 -90 581 21 579 -37 l 579 -304 z m 494 264 b 394 369 433 264 394 306 b 494 474 394 433 433 474 b 596 369 556 474 596 433 b 494 264 596 306 556 264 z "},"r":{"ha":689,"x_min":0,"x_max":0,"o":"m 428 0 l 428 283 b 558 431 428 376 476 431 b 678 390 611 431 647 410 l 678 754 l 653 754 b 428 639 547 754 486 728 l 419 639 l 428 738 l 69 738 l 69 0 z "},"s":{"ha":769,"x_min":0,"x_max":0,"o":"m 364 -21 b 721 254 579 -21 721 81 b 489 469 721 403 617 447 b 396 507 424 481 396 486 b 451 535 396 526 415 535 b 608 479 504 535 568 513 l 693 697 b 418 756 631 732 532 756 b 74 492 239 756 74 683 b 310 275 74 349 182 296 b 382 240 360 267 382 260 b 331 213 382 222 368 213 b 135 293 264 213 197 242 l 28 76 b 364 -21 108 24 214 -21 z "},"t":{"ha":626,"x_min":0,"x_max":0,"o":"m 489 0 l 489 450 l 614 450 l 614 738 l 489 738 l 489 975 l 131 975 l 131 738 l 13 738 l 13 450 l 131 450 l 131 0 z "},"u":{"ha":967,"x_min":0,"x_max":0,"o":"m 483 -17 b 900 321 726 -17 900 88 l 900 738 l 544 738 l 544 357 b 483 268 544 313 542 268 b 422 357 425 268 422 313 l 422 738 l 67 738 l 67 321 b 483 -17 67 88 240 -17 z "},"v":{"ha":953,"x_min":0,"x_max":0,"o":"m 640 0 l 961 738 l 576 738 l 478 389 l 376 738 l -8 738 l 315 0 z "},"w":{"ha":1318,"x_min":0,"x_max":0,"o":"m 571 0 l 660 328 l 747 0 l 1036 0 l 1339 738 l 963 738 l 881 328 l 776 738 l 542 738 l 442 328 l 357 738 l -21 738 l 278 0 z "},"x":{"ha":1024,"x_min":0,"x_max":0,"o":"m 718 378 l 1001 738 l 590 738 l 515 583 l 442 738 l 31 738 l 314 385 l 0 0 l 432 0 l 513 161 l 601 0 l 1022 0 z "},"y":{"ha":958,"x_min":0,"x_max":0,"o":"m 481 342 l 378 738 l -8 738 l 306 76 l 117 -304 l 494 -304 l 967 738 l 590 738 z "},"z":{"ha":851,"x_min":0,"x_max":0,"o":"m 806 0 l 806 276 l 531 276 l 824 696 l 824 738 l 64 738 l 64 461 l 317 461 l 28 50 l 28 0 z "},"{":{"ha":642,"x_min":0,"x_max":0,"o":"m 589 -254 l 589 -60 l 550 -60 b 475 24 486 -60 475 -29 l 475 249 b 296 467 475 375 399 440 l 296 469 b 475 678 399 496 475 551 l 475 903 b 553 986 475 956 489 986 l 592 986 l 592 1181 l 436 1181 b 171 926 247 1181 171 1118 l 171 678 b 50 549 171 594 128 556 l 50 378 b 171 249 128 371 171 332 l 171 0 b 425 -254 171 -192 236 -254 z "},"|":{"ha":1111,"x_min":0,"x_max":0,"o":"m 694 -306 l 694 1161 l 417 1161 l 417 -306 z "},"}":{"ha":642,"x_min":0,"x_max":0,"o":"m 217 -254 b 471 0 406 -254 471 -192 l 471 249 b 592 378 471 332 514 371 l 592 549 b 471 678 514 556 471 594 l 471 926 b 206 1181 471 1118 394 1181 l 53 1181 l 50 986 l 89 986 b 167 903 153 986 167 956 l 167 678 b 346 469 167 551 243 496 l 346 467 b 167 249 243 440 167 375 l 167 24 b 92 -60 167 -29 156 -60 l 53 -60 l 53 -254 z "},"~":{"ha":1042,"x_min":0,"x_max":0,"o":"m 707 276 b 983 593 844 276 933 408 l 824 667 b 699 554 801 618 771 554 b 333 653 613 554 475 653 b 58 339 213 653 110 550 l 221 283 b 349 375 244 326 278 375 b 707 276 446 375 564 276 z "}," ":{"ha":347,"x_min":0,"x_max":0,"o":""},"¡":{"ha":578,"x_min":0,"x_max":0,"o":"m 289 844 b 82 672 188 844 82 782 b 289 496 82 561 188 496 b 496 672 390 496 496 561 b 289 844 496 782 390 844 z m 106 -219 l 472 -219 l 472 428 l 106 428 z "},"¢":{"ha":689,"x_min":0,"x_max":0,"o":"m 515 626 b 647 565 567 626 610 597 l 647 864 b 474 900 604 881 543 894 l 481 1024 l 364 1024 l 371 899 b 42 513 176 874 42 713 b 371 136 42 294 175 164 l 364 7 l 481 7 l 474 131 b 632 165 535 133 593 149 l 647 468 b 514 411 604 436 564 411 b 403 517 449 411 403 460 b 515 626 403 583 450 626 z "},"£":{"ha":1079,"x_min":0,"x_max":0,"o":"m 915 356 b 740 264 842 283 801 264 b 613 290 703 264 660 276 b 625 365 621 318 625 344 b 618 419 625 383 622 401 l 738 419 l 738 642 l 532 642 b 515 726 522 671 515 699 b 604 819 515 782 551 819 b 704 722 668 819 699 778 l 1010 753 b 604 1065 1003 932 872 1065 b 175 754 321 1065 175 928 b 194 642 175 714 183 676 l 94 642 l 94 419 l 296 419 b 303 371 300 403 303 388 b 300 326 303 357 301 343 b 42 211 218 315 150 283 l 178 -15 b 378 56 275 46 321 56 b 757 -14 478 56 632 -14 b 1079 147 881 -14 953 31 z "},"¤":{"ha":872,"x_min":0,"x_max":0,"o":"m 729 486 b 703 606 729 529 719 569 l 803 706 l 656 853 l 556 753 b 436 779 519 769 479 779 b 317 753 393 779 353 769 l 217 853 l 69 706 l 169 606 b 143 486 153 569 143 529 b 169 367 143 443 153 403 l 69 267 l 217 119 l 317 219 b 436 193 353 203 393 193 b 556 219 479 193 519 203 l 656 119 l 803 267 l 703 367 b 729 486 719 403 729 443 z m 351 486 b 436 571 351 533 389 571 b 521 486 483 571 521 533 b 436 401 521 439 483 401 b 351 486 389 401 351 439 z "},"¥":{"ha":1074,"x_min":0,"x_max":0,"o":"m 657 1047 l 543 774 l 419 1047 l -11 1047 l 243 632 l 131 632 l 131 438 l 354 438 l 354 335 l 131 335 l 131 140 l 354 140 l 354 0 l 726 0 l 726 140 l 949 140 l 949 335 l 726 335 l 726 438 l 949 438 l 949 632 l 835 632 l 1085 1047 z "},"¦":{"ha":1111,"x_min":0,"x_max":0,"o":"m 694 569 l 694 1161 l 417 1161 l 417 569 z m 694 -306 l 694 286 l 417 286 l 417 -306 z "},"§":{"ha":822,"x_min":0,"x_max":0,"o":"m 372 -325 b 746 -64 585 -325 746 -233 b 613 151 746 29 713 89 l 613 153 b 783 399 731 208 783 293 b 511 688 783 544 711 628 b 351 779 379 726 351 746 b 456 829 351 814 396 829 b 642 775 532 829 594 807 l 751 988 b 435 1067 683 1033 561 1067 b 53 811 189 1067 53 972 b 193 606 53 721 100 650 l 193 603 b 24 357 83 553 24 467 b 279 72 24 224 89 149 b 447 -37 433 11 447 -6 b 356 -87 447 -71 413 -87 b 133 -11 283 -87 200 -56 l 29 -236 b 372 -325 122 -296 242 -325 z m 403 276 b 279 378 326 276 279 318 b 403 476 279 436 326 476 b 526 376 479 476 526 438 b 403 276 526 319 481 276 z "},"¨":{"ha":653,"x_min":0,"x_max":0,"o":"m 135 810 b 288 963 221 810 288 876 b 135 1117 288 1050 221 1117 b -19 963 47 1117 -19 1050 b 135 810 -19 876 47 810 z m 519 810 b 672 963 607 810 672 876 b 519 1117 672 1050 607 1117 b 365 963 432 1117 365 1050 b 519 810 365 876 432 810 z "},"©":{"ha":1142,"x_min":0,"x_max":0,"o":"m 571 -21 b 1114 522 872 -21 1114 221 b 571 1064 1114 822 872 1064 b 28 522 268 1064 28 822 b 571 -21 28 221 268 -21 z m 571 121 b 175 522 336 121 175 281 b 571 922 175 764 336 922 b 967 522 801 922 967 764 b 571 121 967 281 801 121 z m 594 242 b 739 264 632 242 706 247 l 744 471 b 629 419 713 439 676 419 b 517 528 568 419 517 467 b 626 635 517 597 576 635 b 744 579 665 635 704 617 l 739 790 b 603 814 693 806 649 814 b 314 522 440 814 314 683 b 594 242 314 364 436 242 z "},"ª":{"ha":583,"x_min":0,"x_max":0,"o":"m 231 606 b 349 665 285 606 313 624 l 350 665 l 349 617 l 538 617 l 538 1047 l 349 1047 l 350 1000 l 349 1000 b 231 1057 318 1038 289 1057 b 38 832 115 1057 38 949 b 231 606 38 711 114 606 z m 292 765 b 231 832 250 765 231 793 b 293 897 231 867 253 897 b 357 831 335 897 357 868 b 292 765 357 793 335 765 z "},"«":{"ha":926,"x_min":0,"x_max":0,"o":"m 496 126 l 358 375 l 496 622 l 279 733 l 42 375 l 279 15 z m 885 126 l 747 375 l 885 622 l 668 733 l 431 375 l 668 15 z "},"¬":{"ha":1111,"x_min":0,"x_max":0,"o":"m 972 85 l 972 600 l 139 600 l 139 322 l 694 322 l 694 85 z "},"­":{"ha":551,"x_min":0,"x_max":0,"o":"m 524 229 l 524 535 l 28 535 l 28 229 z "},"®":{"ha":706,"x_min":0,"x_max":0,"o":"m 353 1060 b 28 735 172 1060 28 908 b 353 408 28 560 172 408 b 678 735 533 408 678 560 b 353 1060 678 908 533 1060 z m 353 494 b 114 735 215 494 114 601 b 353 974 114 868 215 974 b 592 735 488 974 592 868 b 353 494 592 601 489 494 z m 488 793 b 340 907 488 875 428 907 l 228 907 l 228 571 l 329 571 l 329 685 l 346 685 l 404 571 l 518 571 l 435 699 b 488 793 474 718 488 753 z m 346 819 b 389 792 374 819 389 814 b 346 761 389 769 375 761 l 329 761 l 329 819 z "},"¯":{"ha":604,"x_min":0,"x_max":0,"o":"m 569 847 l 569 1049 l 35 1049 l 35 847 z "},"°":{"ha":588,"x_min":0,"x_max":0,"o":"m 292 550 b 546 799 429 550 546 663 b 292 1053 546 939 429 1053 b 42 803 154 1053 42 942 b 292 550 42 661 154 550 z m 293 707 b 199 801 240 707 199 750 b 292 896 199 853 239 896 b 389 801 346 896 389 853 b 293 707 389 750 346 707 z "},"±":{"ha":1111,"x_min":0,"x_max":0,"o":"m 694 411 l 694 550 l 972 550 l 972 828 l 694 828 l 694 967 l 417 967 l 417 828 l 139 828 l 139 550 l 417 550 l 417 411 z m 972 56 l 972 333 l 139 333 l 139 56 z "},"²":{"ha":649,"x_min":0,"x_max":0,"o":"m 410 833 b 590 1060 536 907 590 978 b 331 1265 590 1196 492 1265 b 40 1001 150 1265 69 1185 l 283 1001 b 321 1058 288 1038 299 1058 b 347 1031 343 1058 347 1043 b 215 856 347 990 299 939 l -14 626 l -14 625 l 600 625 l 600 840 b 369 810 558 840 457 829 z "},"³":{"ha":671,"x_min":0,"x_max":0,"o":"m 332 615 b 615 819 461 615 615 675 b 511 963 615 889 574 944 b 593 1088 568 990 593 1038 b 339 1264 593 1210 460 1264 b 57 1053 204 1264 79 1224 l 300 1053 b 331 1085 304 1079 317 1085 b 360 1054 347 1085 360 1075 b 318 1018 360 1029 346 1018 b 293 1019 308 1018 303 1018 l 293 892 b 318 894 301 894 311 894 b 372 846 353 894 372 882 b 329 799 372 818 360 799 b 281 849 304 799 283 814 l 35 849 b 332 615 47 665 178 615 z "},"´":{"ha":411,"x_min":0,"x_max":0,"o":"m 453 990 l 210 1161 l 0 890 l 182 790 z "},"µ":{"ha":978,"x_min":0,"x_max":0,"o":"m 400 -304 l 406 43 l 408 43 b 486 -8 426 6 457 -8 b 563 46 522 -8 546 11 l 565 46 l 578 0 l 908 0 l 908 738 l 550 738 l 550 335 b 490 264 550 288 522 264 b 428 335 457 264 428 288 l 428 738 l 69 738 l 69 -304 z "},"¶":{"ha":1079,"x_min":0,"x_max":0,"o":"m 649 -235 l 649 783 l 724 783 l 724 -235 l 988 -235 l 988 1047 l 432 1047 b 76 675 225 1047 76 888 b 385 321 76 463 226 338 l 385 -235 z "},"·":{"ha":525,"x_min":0,"x_max":0,"o":"m 263 306 b 443 486 361 306 443 388 b 263 667 443 585 361 667 b 82 486 164 667 82 585 b 263 306 82 388 164 306 z "},"¸":{"ha":583,"x_min":0,"x_max":0,"o":"m 476 -135 l 301 -7 l 125 -240 l 257 -324 z "},"¹":{"ha":442,"x_min":0,"x_max":0,"o":"m 372 625 l 372 1253 l 28 1244 l 28 1025 l 128 1031 l 128 625 z "},"º":{"ha":568,"x_min":0,"x_max":0,"o":"m 282 606 b 531 831 428 606 531 692 b 283 1057 531 969 426 1057 b 38 835 139 1057 38 967 b 282 606 38 692 139 606 z m 283 765 b 229 833 244 765 229 794 b 283 897 229 868 247 897 b 339 831 322 897 339 868 b 283 765 339 793 321 765 z "},"»":{"ha":926,"x_min":0,"x_max":0,"o":"m 496 375 l 258 733 l 42 622 l 179 375 l 42 126 l 258 15 z m 885 375 l 647 733 l 431 622 l 568 375 l 431 126 l 647 15 z "},"¼":{"ha":1265,"x_min":0,"x_max":0,"o":"m 372 1047 l 28 1039 l 28 819 l 128 825 l 128 419 l 372 419 z m 138 0 l 292 0 l 1006 1047 l 856 1047 z m 1164 282 l 1164 638 l 935 638 l 640 229 l 640 103 l 933 103 l 926 0 l 1164 0 l 1158 103 l 1228 103 l 1228 282 z m 857 282 l 943 407 b 936 336 939 381 938 356 l 933 282 z "},"½":{"ha":1267,"x_min":0,"x_max":0,"o":"m 372 419 l 372 1047 l 28 1039 l 28 819 l 128 825 l 128 419 z m 124 0 l 278 0 l 992 1047 l 842 1047 z m 1028 208 b 1208 435 1154 282 1208 353 b 949 640 1208 571 1110 640 b 658 376 768 640 688 560 l 901 376 b 939 433 906 413 917 433 b 965 406 961 433 965 418 b 833 231 965 365 917 314 l 604 1 l 604 0 l 1218 0 l 1218 215 b 988 185 1176 215 1075 204 z "},"¾":{"ha":1494,"x_min":0,"x_max":0,"o":"m 615 614 b 511 757 615 683 574 739 b 593 882 568 785 593 832 b 339 1058 593 1004 460 1058 b 57 847 204 1058 79 1018 l 300 847 b 331 879 304 874 317 879 b 360 849 347 879 360 869 b 318 813 360 824 346 813 b 293 814 308 813 297 814 l 293 686 b 318 689 301 689 311 689 b 372 640 353 689 372 676 b 329 593 372 613 360 593 b 281 643 304 593 283 608 l 35 643 b 332 410 47 460 178 410 b 615 614 461 410 615 469 z m 353 0 l 507 0 l 1221 1047 l 1071 1047 z m 1393 282 l 1393 638 l 1164 638 l 869 229 l 869 103 l 1163 103 l 1156 0 l 1393 0 l 1388 103 l 1457 103 l 1457 282 z m 1086 282 l 1172 407 b 1165 336 1168 381 1167 356 l 1163 282 z "},"¿":{"ha":922,"x_min":0,"x_max":0,"o":"m 442 496 b 649 672 543 496 649 561 b 442 844 649 782 543 844 b 235 672 340 844 235 782 b 442 496 235 561 340 496 z m 465 -237 b 874 101 711 -237 874 -115 l 874 106 l 532 106 l 532 101 b 461 22 532 49 507 22 b 397 90 417 22 397 50 b 553 193 397 172 465 193 l 608 193 l 608 449 l 269 449 l 269 340 b 49 79 133 314 49 232 b 465 -237 49 -115 215 -237 z "},"À":{"ha":1131,"x_min":0,"x_max":0,"o":"m 538 1493 l 294 1322 l 565 1122 l 747 1222 z m 1144 0 l 771 1047 l 350 1047 l -14 0 l 379 0 l 414 135 l 700 135 l 732 0 z m 518 536 b 563 714 533 596 549 654 l 604 533 l 640 385 l 479 385 z "},"Á":{"ha":1131,"x_min":0,"x_max":0,"o":"m 553 1493 l 343 1222 l 525 1122 l 796 1322 z m 1144 0 l 771 1047 l 350 1047 l -14 0 l 379 0 l 414 135 l 700 135 l 732 0 z m 518 536 b 563 714 533 596 549 654 l 604 533 l 640 385 l 479 385 z "},"Â":{"ha":1131,"x_min":0,"x_max":0,"o":"m 789 1139 l 883 1306 l 565 1479 l 247 1306 l 342 1139 l 565 1224 z m 1144 0 l 771 1047 l 350 1047 l -14 0 l 379 0 l 414 135 l 700 135 l 732 0 z m 518 536 b 563 714 533 596 549 654 l 604 533 l 640 385 l 479 385 z "},"Ã":{"ha":1131,"x_min":0,"x_max":0,"o":"m 451 1193 b 681 1103 501 1193 604 1103 b 906 1304 790 1103 861 1211 l 753 1388 b 671 1310 738 1356 717 1310 b 464 1400 607 1310 551 1400 b 228 1213 358 1400 276 1306 l 369 1115 b 451 1193 385 1147 408 1193 z m 1144 0 l 771 1047 l 350 1047 l -14 0 l 379 0 l 414 135 l 700 135 l 732 0 z m 518 536 b 563 714 533 596 549 654 l 604 533 l 640 385 l 479 385 z "},"Ä":{"ha":1131,"x_min":0,"x_max":0,"o":"m 374 1150 b 526 1303 460 1150 526 1217 b 374 1457 526 1390 460 1457 b 219 1303 286 1457 219 1390 b 374 1150 219 1217 286 1150 z m 758 1150 b 911 1303 846 1150 911 1217 b 758 1457 911 1390 846 1457 b 604 1303 671 1457 604 1390 b 758 1150 604 1217 671 1150 z m 1144 0 l 771 1047 l 350 1047 l -14 0 l 379 0 l 414 135 l 700 135 l 732 0 z m 518 536 b 563 714 533 596 549 654 l 604 533 l 640 385 l 479 385 z "},"Å":{"ha":1131,"x_min":0,"x_max":0,"o":"m 564 1083 b 774 1256 668 1083 774 1139 b 564 1431 774 1371 668 1431 b 354 1256 460 1431 354 1371 b 564 1083 354 1139 460 1083 z m 564 1317 b 628 1257 597 1317 628 1294 b 564 1197 628 1219 597 1197 b 500 1257 531 1197 500 1219 b 564 1317 500 1294 531 1317 z m 1144 0 l 771 1047 l 350 1047 l -14 0 l 379 0 l 414 135 l 700 135 l 732 0 z m 518 536 b 563 714 533 596 549 654 l 604 533 l 640 385 l 479 385 z "},"Æ":{"ha":1440,"x_min":0,"x_max":0,"o":"m 386 0 l 419 133 l 704 133 l 740 0 l 1454 0 l 1354 286 l 1040 286 l 1004 393 l 1314 393 l 1218 665 l 904 665 l 872 761 l 1185 761 l 1082 1047 l 351 1047 l -14 0 z m 536 576 b 556 697 546 617 551 654 l 567 697 b 586 576 569 663 572 628 l 640 379 l 485 379 z "},"Ç":{"ha":918,"x_min":0,"x_max":0,"o":"m 581 -17 b 851 25 651 -17 789 -4 l 863 417 b 644 319 801 357 733 319 b 432 524 531 319 432 408 b 639 728 432 657 546 728 b 863 621 714 728 788 693 l 851 1021 b 596 1064 767 1050 682 1064 b 49 514 289 1064 49 819 b 581 -17 49 215 282 -17 z m 613 -135 l 438 -7 l 261 -240 l 393 -324 z "},"È":{"ha":854,"x_min":0,"x_max":0,"o":"m 611 1222 l 401 1493 l 158 1322 l 429 1122 z m 792 0 l 792 286 l 443 286 l 443 393 l 753 393 l 753 665 l 443 665 l 443 761 l 781 761 l 781 1047 l 76 1047 l 76 0 z "},"É":{"ha":854,"x_min":0,"x_max":0,"o":"m 660 1322 l 417 1493 l 207 1222 l 389 1122 z m 792 0 l 792 286 l 443 286 l 443 393 l 753 393 l 753 665 l 443 665 l 443 761 l 781 761 l 781 1047 l 76 1047 l 76 0 z "},"Ê":{"ha":854,"x_min":0,"x_max":0,"o":"m 429 1224 l 653 1139 l 747 1306 l 429 1479 l 111 1306 l 206 1139 z m 792 0 l 792 286 l 443 286 l 443 393 l 753 393 l 753 665 l 443 665 l 443 761 l 781 761 l 781 1047 l 76 1047 l 76 0 z "},"Ë":{"ha":854,"x_min":0,"x_max":0,"o":"m 238 1150 b 390 1303 324 1150 390 1217 b 238 1457 390 1390 324 1457 b 83 1303 150 1457 83 1390 b 238 1150 83 1217 150 1150 z m 622 1150 b 775 1303 710 1150 775 1217 b 622 1457 775 1390 710 1457 b 468 1303 535 1457 468 1390 b 622 1150 468 1217 535 1150 z m 792 0 l 792 286 l 443 286 l 443 393 l 753 393 l 753 665 l 443 665 l 443 761 l 781 761 l 781 1047 l 76 1047 l 76 0 z "},"Ì":{"ha":519,"x_min":0,"x_max":0,"o":"m 442 1222 l 232 1493 l -11 1322 l 260 1122 z m 443 0 l 443 1047 l 76 1047 l 76 0 z "},"Í":{"ha":519,"x_min":0,"x_max":0,"o":"m 490 1322 l 247 1493 l 38 1222 l 219 1122 z m 443 0 l 443 1047 l 76 1047 l 76 0 z "},"Î":{"ha":519,"x_min":0,"x_max":0,"o":"m 260 1224 l 483 1139 l 578 1306 l 260 1479 l -58 1306 l 36 1139 z m 443 0 l 443 1047 l 76 1047 l 76 0 z "},"Ï":{"ha":519,"x_min":0,"x_max":0,"o":"m 68 1150 b 221 1303 154 1150 221 1217 b 68 1457 221 1390 154 1457 b -86 1303 -19 1457 -86 1390 b 68 1150 -86 1217 -19 1150 z m 453 1150 b 606 1303 540 1150 606 1217 b 453 1457 606 1390 540 1457 b 299 1303 365 1457 299 1390 b 453 1150 299 1217 365 1150 z m 443 0 l 443 1047 l 76 1047 l 76 0 z "},"Ð":{"ha":1133,"x_min":0,"x_max":0,"o":"m 76 1047 l 76 592 l 3 592 l 3 443 l 76 443 l 76 0 l 558 0 b 1085 508 865 0 1085 197 b 464 1047 1085 893 814 1047 z m 443 314 l 443 443 l 583 443 l 583 592 l 443 592 l 443 719 l 481 719 b 704 510 619 719 704 658 b 481 314 704 372 607 314 z "},"Ñ":{"ha":1203,"x_min":0,"x_max":0,"o":"m 501 1193 b 731 1103 551 1193 654 1103 b 956 1304 840 1103 911 1211 l 803 1388 b 721 1310 788 1356 767 1310 b 514 1400 657 1310 601 1400 b 278 1213 408 1400 326 1306 l 419 1115 b 501 1193 435 1147 458 1193 z m 783 478 l 442 1047 l 76 1047 l 76 0 l 440 0 l 428 551 l 763 0 l 1126 0 l 1126 1047 l 763 1047 z "},"Ò":{"ha":1256,"x_min":0,"x_max":0,"o":"m 810 1222 l 600 1493 l 357 1322 l 628 1122 z m 628 -17 b 1207 521 946 -17 1207 185 b 628 1064 1207 849 946 1064 b 49 521 310 1064 49 849 b 628 -17 49 185 310 -17 z m 628 319 b 432 521 511 319 432 401 b 628 728 432 635 507 728 b 824 521 749 728 824 635 b 628 319 824 401 744 319 z "},"Ó":{"ha":1256,"x_min":0,"x_max":0,"o":"m 858 1322 l 615 1493 l 406 1222 l 588 1122 z m 628 -17 b 1207 521 946 -17 1207 185 b 628 1064 1207 849 946 1064 b 49 521 310 1064 49 849 b 628 -17 49 185 310 -17 z m 628 319 b 432 521 511 319 432 401 b 628 728 432 635 507 728 b 824 521 749 728 824 635 b 628 319 824 401 744 319 z "},"Ô":{"ha":1256,"x_min":0,"x_max":0,"o":"m 628 1224 l 851 1139 l 946 1306 l 628 1479 l 310 1306 l 404 1139 z m 628 -17 b 1207 521 946 -17 1207 185 b 628 1064 1207 849 946 1064 b 49 521 310 1064 49 849 b 628 -17 49 185 310 -17 z m 628 319 b 432 521 511 319 432 401 b 628 728 432 635 507 728 b 824 521 749 728 824 635 b 628 319 824 401 744 319 z "},"Õ":{"ha":1256,"x_min":0,"x_max":0,"o":"m 743 1103 b 968 1304 853 1103 924 1211 l 815 1388 b 733 1310 800 1356 779 1310 b 526 1400 669 1310 614 1400 b 290 1213 421 1400 339 1306 l 432 1115 b 514 1193 447 1147 471 1193 b 743 1103 564 1193 667 1103 z m 628 -17 b 1207 521 946 -17 1207 185 b 628 1064 1207 849 946 1064 b 49 521 310 1064 49 849 b 628 -17 49 185 310 -17 z m 628 319 b 432 521 511 319 432 401 b 628 728 432 635 507 728 b 824 521 749 728 824 635 b 628 319 824 401 744 319 z "},"Ö":{"ha":1256,"x_min":0,"x_max":0,"o":"m 436 1150 b 589 1303 522 1150 589 1217 b 436 1457 589 1390 522 1457 b 282 1303 349 1457 282 1390 b 436 1150 282 1217 349 1150 z m 821 1150 b 974 1303 908 1150 974 1217 b 821 1457 974 1390 908 1457 b 667 1303 733 1457 667 1390 b 821 1150 667 1217 733 1150 z m 628 -17 b 1207 521 946 -17 1207 185 b 628 1064 1207 849 946 1064 b 49 521 310 1064 49 849 b 628 -17 49 185 310 -17 z m 628 319 b 432 521 511 319 432 401 b 628 728 432 635 507 728 b 824 521 749 728 824 635 b 628 319 824 401 744 319 z "},"×":{"ha":1111,"x_min":0,"x_max":0,"o":"m 556 221 l 776 0 l 972 196 l 753 417 l 972 638 l 776 833 l 556 613 l 336 833 l 139 638 l 360 417 l 139 196 l 336 0 z "},"Ø":{"ha":1256,"x_min":0,"x_max":0,"o":"m 1133 1139 l 969 967 b 628 1064 874 1029 756 1064 b 49 521 310 1064 49 849 b 192 151 49 368 103 243 l 36 -11 l 122 -92 l 283 78 b 628 -17 379 17 499 -17 b 1207 521 946 -17 1207 185 b 1058 894 1207 674 1150 801 l 1219 1064 z m 432 521 b 628 728 432 635 507 728 b 721 706 663 728 694 719 l 453 425 b 432 521 439 453 432 485 z m 824 521 b 628 319 824 401 744 319 b 533 340 592 319 560 326 l 801 624 b 824 521 815 593 824 558 z "},"Ù":{"ha":1108,"x_min":0,"x_max":0,"o":"m 738 1222 l 528 1493 l 285 1322 l 556 1122 z m 554 -17 b 1039 428 847 -17 1039 122 l 1039 1047 l 658 1047 l 658 464 b 554 310 658 382 656 310 b 450 464 453 310 450 382 l 450 1047 l 69 1047 l 69 428 b 554 -17 69 122 261 -17 z "},"Ú":{"ha":1108,"x_min":0,"x_max":0,"o":"m 786 1322 l 543 1493 l 333 1222 l 515 1122 z m 554 -17 b 1039 428 847 -17 1039 122 l 1039 1047 l 658 1047 l 658 464 b 554 310 658 382 656 310 b 450 464 453 310 450 382 l 450 1047 l 69 1047 l 69 428 b 554 -17 69 122 261 -17 z "},"Û":{"ha":1108,"x_min":0,"x_max":0,"o":"m 556 1224 l 779 1139 l 874 1306 l 556 1479 l 238 1306 l 332 1139 z m 554 -17 b 1039 428 847 -17 1039 122 l 1039 1047 l 658 1047 l 658 464 b 554 310 658 382 656 310 b 450 464 453 310 450 382 l 450 1047 l 69 1047 l 69 428 b 554 -17 69 122 261 -17 z "},"Ü":{"ha":1108,"x_min":0,"x_max":0,"o":"m 364 1150 b 517 1303 450 1150 517 1217 b 364 1457 517 1390 450 1457 b 210 1303 276 1457 210 1390 b 364 1150 210 1217 276 1150 z m 749 1150 b 901 1303 836 1150 901 1217 b 749 1457 901 1390 836 1457 b 594 1303 661 1457 594 1390 b 749 1150 594 1217 661 1150 z m 554 -17 b 1039 428 847 -17 1039 122 l 1039 1047 l 658 1047 l 658 464 b 554 310 658 382 656 310 b 450 464 453 310 450 382 l 450 1047 l 69 1047 l 69 428 b 554 -17 69 122 261 -17 z "},"Ý":{"ha":1068,"x_min":0,"x_max":0,"o":"m 765 1322 l 522 1493 l 313 1222 l 494 1122 z m 724 0 l 724 451 l 1082 1047 l 654 1047 l 540 774 l 417 1047 l -14 1047 l 351 451 l 351 0 z "},"Þ":{"ha":1013,"x_min":0,"x_max":0,"o":"m 443 0 l 443 163 l 558 163 b 983 539 804 163 983 286 b 558 908 983 782 804 908 l 443 908 l 443 1047 l 76 1047 l 76 0 z m 443 622 l 493 622 b 619 536 564 622 619 604 b 494 440 619 465 569 440 l 443 440 z "},"ß":{"ha":1057,"x_min":0,"x_max":0,"o":"m 818 626 b 957 857 919 681 957 757 b 557 1140 957 1042 778 1140 b 110 746 225 1140 110 988 l 110 738 l 8 738 l 8 450 l 110 450 l 110 0 l 468 0 l 468 756 b 561 857 468 825 500 857 b 651 782 621 857 651 829 b 557 697 651 733 611 697 l 557 500 b 661 356 632 500 661 447 b 561 197 661 263 633 201 l 554 197 l 554 -3 l 632 -3 b 1015 350 863 -3 1015 114 b 818 626 1015 494 935 586 z "},"à":{"ha":1010,"x_min":0,"x_max":0,"o":"m 690 890 l 481 1161 l 238 990 l 508 790 z m 365 -17 b 590 97 467 -17 525 28 l 593 97 l 589 0 l 939 0 l 939 738 l 589 738 l 593 650 l 590 650 b 375 754 536 722 464 754 b 40 365 158 754 40 564 b 365 -17 40 167 156 -17 z m 496 264 b 396 368 435 264 396 306 b 496 474 396 432 435 474 b 599 368 557 474 599 432 b 496 264 599 306 557 264 z "},"á":{"ha":1010,"x_min":0,"x_max":0,"o":"m 792 990 l 549 1161 l 339 890 l 521 790 z m 365 -17 b 590 97 467 -17 525 28 l 593 97 l 589 0 l 939 0 l 939 738 l 589 738 l 593 650 l 590 650 b 375 754 536 722 464 754 b 40 365 158 754 40 564 b 365 -17 40 167 156 -17 z m 496 264 b 396 368 435 264 396 306 b 496 474 396 432 435 474 b 599 368 557 474 599 432 b 496 264 599 306 557 264 z "},"â":{"ha":1010,"x_min":0,"x_max":0,"o":"m 513 875 l 736 790 l 831 957 l 513 1131 l 194 957 l 289 790 z m 365 -17 b 590 97 467 -17 525 28 l 593 97 l 589 0 l 939 0 l 939 738 l 589 738 l 593 650 l 590 650 b 375 754 536 722 464 754 b 40 365 158 754 40 564 b 365 -17 40 167 156 -17 z m 496 264 b 396 368 435 264 396 306 b 496 474 396 432 435 474 b 599 368 557 474 599 432 b 496 264 599 306 557 264 z "},"ã":{"ha":1010,"x_min":0,"x_max":0,"o":"m 626 811 b 851 1013 736 811 807 919 l 699 1096 b 617 1018 683 1064 663 1018 b 410 1108 553 1018 497 1108 b 174 921 304 1108 222 1014 l 315 824 b 397 901 331 856 354 901 b 626 811 447 901 550 811 z m 365 -17 b 590 97 467 -17 525 28 l 593 97 l 589 0 l 939 0 l 939 738 l 589 738 l 593 650 l 590 650 b 375 754 536 722 464 754 b 40 365 158 754 40 564 b 365 -17 40 167 156 -17 z m 496 264 b 396 368 435 264 396 306 b 496 474 396 432 435 474 b 599 368 557 474 599 432 b 496 264 599 306 557 264 z "},"ä":{"ha":1010,"x_min":0,"x_max":0,"o":"m 328 806 b 467 944 406 806 467 867 b 328 1085 467 1024 406 1085 b 188 944 249 1085 188 1024 b 328 806 188 867 249 806 z m 699 806 b 838 944 778 806 838 867 b 699 1085 838 1024 778 1085 b 558 944 619 1085 558 1024 b 699 806 558 867 619 806 z m 365 -17 b 590 97 467 -17 525 28 l 593 97 l 589 0 l 939 0 l 939 738 l 589 738 l 593 650 l 590 650 b 375 754 536 722 464 754 b 40 365 158 754 40 564 b 365 -17 40 167 156 -17 z m 496 264 b 396 368 435 264 396 306 b 496 474 396 432 435 474 b 599 368 557 474 599 432 b 496 264 599 306 557 264 z "},"å":{"ha":1010,"x_min":0,"x_max":0,"o":"m 513 806 b 722 978 617 806 722 861 b 513 1153 722 1093 617 1153 b 303 978 408 1153 303 1093 b 513 806 303 861 408 806 z m 513 925 b 454 979 482 925 454 944 b 513 1033 454 1014 482 1033 b 571 979 543 1033 571 1014 b 513 925 571 944 543 925 z m 365 -17 b 590 97 467 -17 525 28 l 593 97 l 589 0 l 939 0 l 939 738 l 589 738 l 593 650 l 590 650 b 375 754 536 722 464 754 b 40 365 158 754 40 564 b 365 -17 40 167 156 -17 z m 496 264 b 396 368 435 264 396 306 b 496 474 396 432 435 474 b 599 368 557 474 599 432 b 496 264 599 306 557 264 z "},"æ":{"ha":1433,"x_min":0,"x_max":0,"o":"m 1392 342 b 960 754 1392 614 1203 754 b 719 678 868 754 785 726 b 479 753 663 728 582 753 b 143 686 340 753 238 728 l 221 501 b 411 542 278 525 344 542 b 546 442 494 542 546 517 l 546 431 b 354 469 501 454 440 469 b 38 226 169 469 38 385 b 354 -18 38 74 169 -18 b 665 96 510 -18 596 14 b 960 -17 736 21 840 -17 b 1375 243 1131 -17 1326 65 l 1031 243 b 954 182 1021 208 993 182 b 868 308 888 182 868 235 l 1390 308 b 1392 342 1392 319 1392 331 z m 869 461 b 954 557 872 514 900 557 b 1038 461 1008 557 1036 514 z m 456 160 b 363 240 403 160 363 190 b 456 319 363 290 403 319 b 549 240 507 319 549 290 b 456 160 549 190 507 160 z "},"ç":{"ha":693,"x_min":0,"x_max":0,"o":"m 515 479 b 647 418 567 479 610 450 l 647 717 b 422 754 593 738 514 754 b 42 365 201 754 42 583 b 381 -12 42 143 179 13 l 208 -240 l 340 -324 l 560 -135 l 394 -14 b 451 -17 413 -15 432 -17 b 632 18 519 -17 589 -1 l 647 321 b 514 264 604 289 564 264 b 403 369 449 264 403 313 b 515 479 403 436 450 479 z "},"è":{"ha":960,"x_min":0,"x_max":0,"o":"m 447 1161 l 204 990 l 475 790 l 657 890 z m 918 342 b 472 754 918 614 724 754 b 42 363 238 754 42 614 b 486 -17 42 110 238 -17 b 901 243 657 -17 853 65 l 557 243 b 481 182 547 208 519 182 b 394 308 414 182 394 235 l 917 308 b 918 342 918 319 918 331 z m 396 461 b 481 557 399 514 426 557 b 564 461 535 557 563 514 z "},"é":{"ha":960,"x_min":0,"x_max":0,"o":"m 515 1161 l 306 890 l 488 790 l 758 990 z m 918 342 b 472 754 918 614 724 754 b 42 363 238 754 42 614 b 486 -17 42 110 238 -17 b 901 243 657 -17 853 65 l 557 243 b 481 182 547 208 519 182 b 394 308 414 182 394 235 l 917 308 b 918 342 918 319 918 331 z m 396 461 b 481 557 399 514 426 557 b 564 461 535 557 563 514 z "},"ê":{"ha":960,"x_min":0,"x_max":0,"o":"m 703 790 l 797 957 l 479 1131 l 161 957 l 256 790 l 479 875 z m 918 342 b 472 754 918 614 724 754 b 42 363 238 754 42 614 b 486 -17 42 110 238 -17 b 901 243 657 -17 853 65 l 557 243 b 481 182 547 208 519 182 b 394 308 414 182 394 235 l 917 308 b 918 342 918 319 918 331 z m 396 461 b 481 557 399 514 426 557 b 564 461 535 557 563 514 z "},"ë":{"ha":960,"x_min":0,"x_max":0,"o":"m 294 806 b 433 944 372 806 433 867 b 294 1085 433 1024 372 1085 b 154 944 215 1085 154 1024 b 294 806 154 867 215 806 z m 665 806 b 804 944 744 806 804 867 b 665 1085 804 1024 744 1085 b 525 944 586 1085 525 1024 b 665 806 525 867 586 806 z m 918 342 b 472 754 918 614 724 754 b 42 363 238 754 42 614 b 486 -17 42 110 238 -17 b 901 243 657 -17 853 65 l 557 243 b 481 182 547 208 519 182 b 394 308 414 182 394 235 l 917 308 b 918 342 918 319 918 331 z m 396 461 b 481 557 399 514 426 557 b 564 461 535 557 563 514 z "},"ì":{"ha":497,"x_min":0,"x_max":0,"o":"m 426 890 l 217 1161 l -26 990 l 244 790 z m 428 0 l 428 738 l 69 738 l 69 0 z "},"í":{"ha":497,"x_min":0,"x_max":0,"o":"m 528 990 l 285 1161 l 75 890 l 257 790 z m 428 0 l 428 738 l 69 738 l 69 0 z "},"î":{"ha":497,"x_min":0,"x_max":0,"o":"m 249 875 l 472 790 l 567 957 l 249 1131 l -69 957 l 25 790 z m 428 0 l 428 738 l 69 738 l 69 0 z "},"ï":{"ha":497,"x_min":0,"x_max":0,"o":"m 64 806 b 203 944 142 806 203 867 b 64 1085 203 1024 142 1085 b -76 944 -15 1085 -76 1024 b 64 806 -76 867 -15 806 z m 435 806 b 574 944 514 806 574 867 b 435 1085 574 1024 514 1085 b 294 944 356 1085 294 1024 b 435 806 294 867 356 806 z m 428 0 l 428 738 l 69 738 l 69 0 z "},"ð":{"ha":978,"x_min":0,"x_max":0,"o":"m 814 1024 l 729 1140 l 551 1050 b 400 1142 503 1085 451 1115 l 176 1008 b 306 925 217 985 261 956 l 153 847 l 238 731 l 432 829 b 553 711 481 789 524 749 b 422 735 522 726 483 735 b 42 367 235 735 42 610 b 485 -17 42 93 292 -17 b 936 432 707 -17 936 124 b 674 953 936 635 825 814 z m 489 264 b 389 365 433 264 389 306 b 489 474 389 425 429 474 b 589 365 549 474 589 425 b 489 264 589 306 544 264 z "},"ñ":{"ha":974,"x_min":0,"x_max":0,"o":"m 603 811 b 828 1013 713 811 783 919 l 675 1096 b 593 1018 660 1064 639 1018 b 386 1108 529 1018 474 1108 b 150 921 281 1108 199 1014 l 292 824 b 374 901 307 856 331 901 b 603 811 424 901 526 811 z m 428 0 l 428 353 b 493 464 428 413 435 464 b 549 360 547 464 549 413 l 549 0 l 907 0 l 907 454 b 651 754 907 615 835 754 b 414 619 536 754 479 701 l 411 619 l 419 738 l 69 738 l 69 0 z "},"ò":{"ha":986,"x_min":0,"x_max":0,"o":"m 671 890 l 461 1161 l 218 990 l 489 790 z m 493 -17 b 944 369 739 -17 944 106 b 493 754 944 624 739 754 b 42 369 247 754 42 624 b 493 -17 42 106 247 -17 z m 493 267 b 393 369 432 267 393 310 b 493 471 393 429 432 471 b 593 369 554 471 593 429 b 493 267 593 310 554 267 z "},"ó":{"ha":986,"x_min":0,"x_max":0,"o":"m 772 990 l 529 1161 l 319 890 l 501 790 z m 493 -17 b 944 369 739 -17 944 106 b 493 754 944 624 739 754 b 42 369 247 754 42 624 b 493 -17 42 106 247 -17 z m 493 267 b 393 369 432 267 393 310 b 493 471 393 429 432 471 b 593 369 554 471 593 429 b 493 267 593 310 554 267 z "},"ô":{"ha":986,"x_min":0,"x_max":0,"o":"m 493 875 l 717 790 l 811 957 l 493 1131 l 175 957 l 269 790 z m 493 -17 b 944 369 739 -17 944 106 b 493 754 944 624 739 754 b 42 369 247 754 42 624 b 493 -17 42 106 247 -17 z m 493 267 b 393 369 432 267 393 310 b 493 471 393 429 432 471 b 593 369 554 471 593 429 b 493 267 593 310 554 267 z "},"õ":{"ha":986,"x_min":0,"x_max":0,"o":"m 607 811 b 832 1013 717 811 788 919 l 679 1096 b 597 1018 664 1064 643 1018 b 390 1108 533 1018 478 1108 b 154 921 285 1108 203 1014 l 296 824 b 378 901 311 856 335 901 b 607 811 428 901 531 811 z m 493 -17 b 944 369 739 -17 944 106 b 493 754 944 624 739 754 b 42 369 247 754 42 624 b 493 -17 42 106 247 -17 z m 493 267 b 393 369 432 267 393 310 b 493 471 393 429 432 471 b 593 369 554 471 593 429 b 493 267 593 310 554 267 z "},"ö":{"ha":986,"x_min":0,"x_max":0,"o":"m 308 806 b 447 944 386 806 447 867 b 308 1085 447 1024 386 1085 b 168 944 229 1085 168 1024 b 308 806 168 867 229 806 z m 679 806 b 818 944 758 806 818 867 b 679 1085 818 1024 758 1085 b 539 944 600 1085 539 1024 b 679 806 539 867 600 806 z m 493 -17 b 944 369 739 -17 944 106 b 493 754 944 624 739 754 b 42 369 247 754 42 624 b 493 -17 42 106 247 -17 z m 493 267 b 393 369 432 267 393 310 b 493 471 393 429 432 471 b 593 369 554 471 593 429 b 493 267 593 310 554 267 z "},"÷":{"ha":1111,"x_min":0,"x_max":0,"o":"m 556 615 b 728 758 640 615 728 667 b 556 906 728 851 640 906 b 383 758 471 906 383 851 b 556 615 383 667 471 615 z m 972 290 l 972 568 l 139 568 l 139 290 z m 556 -47 b 728 96 640 -47 728 4 b 556 243 728 189 640 243 b 383 96 471 243 383 189 b 556 -47 383 4 471 -47 z "},"ø":{"ha":986,"x_min":0,"x_max":0,"o":"m 932 749 l 861 819 l 744 699 b 493 754 672 736 586 754 b 42 369 247 754 42 624 b 157 93 42 247 86 156 l 54 -14 l 125 -85 l 242 36 b 493 -17 314 0 401 -17 b 944 369 739 -17 944 106 b 829 642 944 488 900 578 z m 393 369 b 493 499 393 446 432 499 b 539 486 510 499 525 494 l 396 339 b 393 369 394 349 393 358 z m 493 239 b 449 250 476 239 463 243 l 592 397 b 593 369 593 388 593 379 b 493 239 593 293 554 239 z "},"ù":{"ha":967,"x_min":0,"x_max":0,"o":"m 661 890 l 451 1161 l 208 990 l 479 790 z m 483 -17 b 900 321 726 -17 900 88 l 900 738 l 544 738 l 544 357 b 483 268 544 313 542 268 b 422 357 425 268 422 313 l 422 738 l 67 738 l 67 321 b 483 -17 67 88 240 -17 z "},"ú":{"ha":967,"x_min":0,"x_max":0,"o":"m 763 990 l 519 1161 l 310 890 l 492 790 z m 483 -17 b 900 321 726 -17 900 88 l 900 738 l 544 738 l 544 357 b 483 268 544 313 542 268 b 422 357 425 268 422 313 l 422 738 l 67 738 l 67 321 b 483 -17 67 88 240 -17 z "},"û":{"ha":967,"x_min":0,"x_max":0,"o":"m 483 875 l 707 790 l 801 957 l 483 1131 l 165 957 l 260 790 z m 483 -17 b 900 321 726 -17 900 88 l 900 738 l 544 738 l 544 357 b 483 268 544 313 542 268 b 422 357 425 268 422 313 l 422 738 l 67 738 l 67 321 b 483 -17 67 88 240 -17 z "},"ü":{"ha":967,"x_min":0,"x_max":0,"o":"m 299 806 b 438 944 376 806 438 867 b 299 1085 438 1024 376 1085 b 158 944 219 1085 158 1024 b 299 806 158 867 219 806 z m 669 806 b 808 944 749 806 808 867 b 669 1085 808 1024 749 1085 b 529 944 590 1085 529 1024 b 669 806 529 867 590 806 z m 483 -17 b 900 321 726 -17 900 88 l 900 738 l 544 738 l 544 357 b 483 268 544 313 542 268 b 422 357 425 268 422 313 l 422 738 l 67 738 l 67 321 b 483 -17 67 88 240 -17 z "},"ý":{"ha":958,"x_min":0,"x_max":0,"o":"m 515 1161 l 306 890 l 488 790 l 758 990 z m 481 342 l 378 738 l -8 738 l 306 76 l 117 -304 l 494 -304 l 967 738 l 590 738 z "},"þ":{"ha":1008,"x_min":0,"x_max":0,"o":"m 429 -304 l 429 -71 b 421 101 429 -18 426 40 l 422 101 b 639 -17 464 33 544 -17 b 968 369 856 -17 968 175 b 647 754 968 569 864 754 b 422 639 544 754 467 707 l 421 639 b 429 829 429 740 429 811 l 429 1126 l 71 1126 l 71 -304 z m 514 264 b 413 369 453 264 413 306 b 514 474 413 433 453 474 b 614 369 575 474 614 433 b 514 264 614 306 575 264 z "},"ÿ":{"ha":958,"x_min":0,"x_max":0,"o":"m 294 806 b 433 944 372 806 433 867 b 294 1085 433 1024 372 1085 b 154 944 215 1085 154 1024 b 294 806 154 867 215 806 z m 665 806 b 804 944 744 806 804 867 b 665 1085 804 1024 744 1085 b 525 944 586 1085 525 1024 b 665 806 525 867 586 806 z m 481 342 l 378 738 l -8 738 l 306 76 l 117 -304 l 494 -304 l 967 738 l 590 738 z "},"Ā":{"ha":1131,"x_min":0,"x_max":0,"o":"m 326 1292 l 326 1132 l 806 1132 l 806 1292 z m 1144 0 l 771 1047 l 350 1047 l -14 0 l 379 0 l 414 135 l 700 135 l 732 0 z m 518 536 b 563 714 533 596 549 654 l 604 533 l 640 385 l 479 385 z "},"ā":{"ha":1010,"x_min":0,"x_max":0,"o":"m 781 847 l 781 1049 l 246 1049 l 246 847 z m 365 -17 b 590 97 467 -17 525 28 l 593 97 l 589 0 l 939 0 l 939 738 l 589 738 l 593 650 l 590 650 b 375 754 536 722 464 754 b 40 365 158 754 40 564 b 365 -17 40 167 156 -17 z m 496 264 b 396 368 435 264 396 306 b 496 474 396 432 435 474 b 599 368 557 474 599 432 b 496 264 599 306 557 264 z "},"Ă":{"ha":1131,"x_min":0,"x_max":0,"o":"m 565 1146 b 869 1415 739 1146 861 1281 l 676 1415 b 565 1332 660 1349 608 1332 b 454 1415 522 1332 471 1349 l 263 1415 b 565 1146 275 1254 390 1146 z m 1144 0 l 771 1047 l 350 1047 l -14 0 l 379 0 l 414 135 l 700 135 l 732 0 z m 518 536 b 563 714 533 596 549 654 l 604 533 l 640 385 l 479 385 z "},"ă":{"ha":1010,"x_min":0,"x_max":0,"o":"m 513 808 b 817 1078 686 808 808 943 l 624 1078 b 513 994 607 1011 556 994 b 401 1078 469 994 418 1011 l 210 1078 b 513 808 222 917 338 808 z m 365 -17 b 590 97 467 -17 525 28 l 593 97 l 589 0 l 939 0 l 939 738 l 589 738 l 593 650 l 590 650 b 375 754 536 722 464 754 b 40 365 158 754 40 564 b 365 -17 40 167 156 -17 z m 496 264 b 396 368 435 264 396 306 b 496 474 396 432 435 474 b 599 368 557 474 599 432 b 496 264 599 306 557 264 z "},"Ą":{"ha":1131,"x_min":0,"x_max":0,"o":"m 1011 -121 b 960 -82 978 -121 960 -103 b 1046 0 960 -60 975 -33 l 1144 0 l 771 1047 l 350 1047 l -14 0 l 379 0 l 414 135 l 700 135 l 732 0 l 839 0 b 731 -151 760 -40 731 -99 b 938 -304 731 -251 831 -304 b 1126 -264 1013 -304 1072 -289 l 1079 -106 b 1011 -121 1061 -114 1038 -121 z m 518 536 b 563 714 533 596 549 654 l 604 533 l 640 385 l 479 385 z "},"ą":{"ha":1010,"x_min":0,"x_max":0,"o":"m 911 -106 b 843 -121 893 -114 869 -121 b 792 -82 810 -121 792 -103 b 878 0 792 -60 807 -33 l 939 0 l 939 738 l 589 738 l 593 650 l 590 650 b 375 754 536 722 464 754 b 40 365 158 754 40 564 b 365 -17 40 167 156 -17 b 590 97 467 -17 525 28 l 593 97 l 589 0 l 671 0 b 563 -151 592 -40 563 -99 b 769 -304 563 -251 663 -304 b 958 -264 844 -304 904 -289 z m 496 264 b 396 368 435 264 396 306 b 496 474 396 432 435 474 b 599 368 557 474 599 432 b 496 264 599 306 557 264 z "},"Ć":{"ha":918,"x_min":0,"x_max":0,"o":"m 761 1322 l 518 1493 l 308 1222 l 490 1122 z m 581 -17 b 851 25 651 -17 789 -4 l 863 417 b 644 319 801 357 733 319 b 432 524 531 319 432 408 b 639 728 432 657 546 728 b 863 621 714 728 788 693 l 851 1021 b 596 1064 767 1050 682 1064 b 49 514 289 1064 49 819 b 581 -17 49 215 282 -17 z "},"ć":{"ha":693,"x_min":0,"x_max":0,"o":"m 682 990 l 439 1161 l 229 890 l 411 790 z m 451 -17 b 632 18 519 -17 589 -1 l 647 321 b 514 264 604 289 564 264 b 403 369 449 264 403 313 b 515 479 403 436 450 479 b 647 418 567 479 610 450 l 647 717 b 422 754 593 738 514 754 b 42 365 201 754 42 583 b 451 -17 42 118 213 -17 z "},"Ĉ":{"ha":918,"x_min":0,"x_max":0,"o":"m 531 1224 l 754 1139 l 849 1306 l 531 1479 l 213 1306 l 307 1139 z m 581 -17 b 851 25 651 -17 789 -4 l 863 417 b 644 319 801 357 733 319 b 432 524 531 319 432 408 b 639 728 432 657 546 728 b 863 621 714 728 788 693 l 851 1021 b 596 1064 767 1050 682 1064 b 49 514 289 1064 49 819 b 581 -17 49 215 282 -17 z "},"ĉ":{"ha":693,"x_min":0,"x_max":0,"o":"m 403 875 l 626 790 l 721 957 l 403 1131 l 85 957 l 179 790 z m 451 -17 b 632 18 519 -17 589 -1 l 647 321 b 514 264 604 289 564 264 b 403 369 449 264 403 313 b 515 479 403 436 450 479 b 647 418 567 479 610 450 l 647 717 b 422 754 593 738 514 754 b 42 365 201 754 42 583 b 451 -17 42 118 213 -17 z "},"Ċ":{"ha":918,"x_min":0,"x_max":0,"o":"m 531 1150 b 728 1324 633 1150 728 1203 b 531 1496 728 1431 643 1496 b 333 1324 418 1496 333 1431 b 531 1150 333 1203 428 1150 z m 581 -17 b 851 25 651 -17 789 -4 l 863 417 b 644 319 801 357 733 319 b 432 524 531 319 432 408 b 639 728 432 657 546 728 b 863 621 714 728 788 693 l 851 1021 b 596 1064 767 1050 682 1064 b 49 514 289 1064 49 819 b 581 -17 49 215 282 -17 z "},"ċ":{"ha":693,"x_min":0,"x_max":0,"o":"m 403 810 b 600 983 506 810 600 863 b 403 1156 600 1090 515 1156 b 206 983 290 1156 206 1090 b 403 810 206 863 300 810 z m 451 -17 b 632 18 519 -17 589 -1 l 647 321 b 514 264 604 289 564 264 b 403 369 449 264 403 313 b 515 479 403 436 450 479 b 647 418 567 479 610 450 l 647 717 b 422 754 593 738 514 754 b 42 365 201 754 42 583 b 451 -17 42 118 213 -17 z "},"Č":{"ha":918,"x_min":0,"x_max":0,"o":"m 849 1310 l 754 1476 l 531 1392 l 307 1476 l 213 1310 l 531 1136 z m 581 -17 b 851 25 651 -17 789 -4 l 863 417 b 644 319 801 357 733 319 b 432 524 531 319 432 408 b 639 728 432 657 546 728 b 863 621 714 728 788 693 l 851 1021 b 596 1064 767 1050 682 1064 b 49 514 289 1064 49 819 b 581 -17 49 215 282 -17 z "},"č":{"ha":693,"x_min":0,"x_max":0,"o":"m 721 964 l 626 1131 l 403 1046 l 179 1131 l 85 964 l 403 790 z m 451 -17 b 632 18 519 -17 589 -1 l 647 321 b 514 264 604 289 564 264 b 403 369 449 264 403 313 b 515 479 403 436 450 479 b 647 418 567 479 610 450 l 647 717 b 422 754 593 738 514 754 b 42 365 201 754 42 583 b 451 -17 42 118 213 -17 z "},"Ď":{"ha":1133,"x_min":0,"x_max":0,"o":"m 881 1310 l 786 1476 l 563 1392 l 339 1476 l 244 1310 l 563 1136 z m 558 0 b 1085 508 865 0 1085 197 b 464 1047 1085 893 814 1047 l 76 1047 l 76 0 z m 443 719 l 481 719 b 704 510 619 719 704 658 b 481 314 704 372 607 314 l 443 314 z "},"ď":{"ha":1008,"x_min":0,"x_max":0,"o":"m 1321 1038 l 1082 1131 l 975 815 l 1153 756 z m 372 -17 b 588 110 464 -17 542 33 l 592 110 l 589 0 l 938 0 l 938 1126 l 579 1126 l 579 829 b 588 639 579 785 582 694 l 586 639 b 361 754 542 707 464 754 b 40 369 144 754 40 569 b 372 -17 40 175 150 -17 z m 494 264 b 394 369 433 264 394 306 b 494 474 394 433 433 474 b 596 369 556 474 596 433 b 494 264 596 306 556 264 z "},"Đ":{"ha":1133,"x_min":0,"x_max":0,"o":"m 76 1047 l 76 592 l 3 592 l 3 443 l 76 443 l 76 0 l 558 0 b 1085 508 865 0 1085 197 b 464 1047 1085 893 814 1047 z m 443 314 l 443 443 l 583 443 l 583 592 l 443 592 l 443 719 l 481 719 b 704 510 619 719 704 658 b 481 314 704 372 607 314 z "},"đ":{"ha":1008,"x_min":0,"x_max":0,"o":"m 939 986 l 939 1126 l 581 1126 l 581 986 l 407 986 l 407 861 l 581 861 l 581 829 b 597 639 581 811 586 747 l 588 639 b 363 754 543 707 465 754 b 42 369 146 754 42 569 b 374 -17 42 175 151 -17 b 589 110 465 -17 543 33 l 597 110 l 590 0 l 939 0 l 939 861 l 1008 861 l 1008 986 z m 496 264 b 396 369 435 264 396 306 b 496 474 396 433 435 474 b 597 369 557 474 597 433 b 496 264 597 306 557 264 z "},"Ē":{"ha":854,"x_min":0,"x_max":0,"o":"m 669 1132 l 669 1292 l 190 1292 l 190 1132 z m 792 0 l 792 286 l 443 286 l 443 393 l 753 393 l 753 665 l 443 665 l 443 761 l 781 761 l 781 1047 l 76 1047 l 76 0 z "},"ē":{"ha":960,"x_min":0,"x_max":0,"o":"m 213 1049 l 213 847 l 747 847 l 747 1049 z m 918 342 b 472 754 918 614 724 754 b 42 363 238 754 42 614 b 486 -17 42 110 238 -17 b 901 243 657 -17 853 65 l 557 243 b 481 182 547 208 519 182 b 394 308 414 182 394 235 l 917 308 b 918 342 918 319 918 331 z m 396 461 b 481 557 399 514 426 557 b 564 461 535 557 563 514 z "},"Ĕ":{"ha":854,"x_min":0,"x_max":0,"o":"m 429 1146 b 733 1415 603 1146 725 1281 l 540 1415 b 429 1332 524 1349 472 1332 b 318 1415 386 1332 335 1349 l 126 1415 b 429 1146 139 1254 254 1146 z m 792 0 l 792 286 l 443 286 l 443 393 l 753 393 l 753 665 l 443 665 l 443 761 l 781 761 l 781 1047 l 76 1047 l 76 0 z "},"ĕ":{"ha":960,"x_min":0,"x_max":0,"o":"m 479 808 b 783 1078 653 808 775 943 l 590 1078 b 479 994 574 1011 522 994 b 368 1078 436 994 385 1011 l 176 1078 b 479 808 189 917 304 808 z m 918 342 b 472 754 918 614 724 754 b 42 363 238 754 42 614 b 486 -17 42 110 238 -17 b 901 243 657 -17 853 65 l 557 243 b 481 182 547 208 519 182 b 394 308 414 182 394 235 l 917 308 b 918 342 918 319 918 331 z m 396 461 b 481 557 399 514 426 557 b 564 461 535 557 563 514 z "},"Ė":{"ha":854,"x_min":0,"x_max":0,"o":"m 429 1150 b 626 1324 532 1150 626 1203 b 429 1496 626 1431 542 1496 b 232 1324 317 1496 232 1431 b 429 1150 232 1203 326 1150 z m 792 0 l 792 286 l 443 286 l 443 393 l 753 393 l 753 665 l 443 665 l 443 761 l 781 761 l 781 1047 l 76 1047 l 76 0 z "},"ė":{"ha":960,"x_min":0,"x_max":0,"o":"m 479 810 b 676 983 582 810 676 863 b 479 1156 676 1090 592 1156 b 282 983 367 1156 282 1090 b 479 810 282 863 376 810 z m 918 342 b 472 754 918 614 724 754 b 42 363 238 754 42 614 b 486 -17 42 110 238 -17 b 901 243 657 -17 853 65 l 557 243 b 481 182 547 208 519 182 b 394 308 414 182 394 235 l 917 308 b 918 342 918 319 918 331 z m 396 461 b 481 557 399 514 426 557 b 564 461 535 557 563 514 z "},"Ę":{"ha":854,"x_min":0,"x_max":0,"o":"m 792 0 l 792 286 l 443 286 l 443 393 l 753 393 l 753 665 l 443 665 l 443 761 l 781 761 l 781 1047 l 76 1047 l 76 0 l 493 0 b 385 -151 414 -40 385 -99 b 592 -304 385 -251 485 -304 b 781 -264 667 -304 726 -289 l 733 -106 b 665 -121 715 -114 692 -121 b 614 -82 632 -121 614 -103 b 700 0 614 -60 629 -33 z "},"ę":{"ha":960,"x_min":0,"x_max":0,"o":"m 918 342 b 472 754 918 614 724 754 b 42 363 238 754 42 614 b 399 -11 42 140 193 15 b 311 -151 336 -50 311 -103 b 518 -304 311 -251 411 -304 b 707 -264 593 -304 653 -289 l 660 -106 b 592 -121 642 -114 618 -121 b 540 -82 558 -121 540 -103 b 633 3 540 -60 557 -32 b 901 243 756 38 867 115 l 557 243 b 481 182 547 208 519 182 b 394 308 414 182 394 235 l 917 308 b 918 342 918 319 918 331 z m 396 461 b 481 557 399 514 426 557 b 564 461 535 557 563 514 z "},"Ě":{"ha":854,"x_min":0,"x_max":0,"o":"m 747 1310 l 653 1476 l 429 1392 l 206 1476 l 111 1310 l 429 1136 z m 792 0 l 792 286 l 443 286 l 443 393 l 753 393 l 753 665 l 443 665 l 443 761 l 781 761 l 781 1047 l 76 1047 l 76 0 z "},"ě":{"ha":960,"x_min":0,"x_max":0,"o":"m 703 1131 l 479 1046 l 256 1131 l 161 964 l 479 790 l 797 964 z m 918 342 b 472 754 918 614 724 754 b 42 363 238 754 42 614 b 486 -17 42 110 238 -17 b 901 243 657 -17 853 65 l 557 243 b 481 182 547 208 519 182 b 394 308 414 182 394 235 l 917 308 b 918 342 918 319 918 331 z m 396 461 b 481 557 399 514 426 557 b 564 461 535 557 563 514 z "},"Ĝ":{"ha":1246,"x_min":0,"x_max":0,"o":"m 624 1224 l 847 1139 l 942 1306 l 624 1479 l 306 1306 l 400 1139 z m 626 -17 b 1197 567 979 -17 1197 200 l 1197 624 l 610 624 l 610 369 l 782 369 l 782 368 b 628 288 763 315 704 288 b 432 515 504 288 432 392 b 629 744 432 646 503 744 b 788 664 704 744 757 715 l 1143 794 b 629 1064 1061 974 839 1064 b 49 517 300 1064 49 857 b 626 -17 49 181 307 -17 z "},"ĝ":{"ha":1000,"x_min":0,"x_max":0,"o":"m 501 875 l 725 790 l 819 957 l 501 1131 l 183 957 l 278 790 z m 481 -319 b 931 101 728 -319 931 -197 l 931 738 l 581 738 l 585 650 l 582 650 b 375 754 528 722 464 754 b 49 386 167 754 49 572 b 365 25 49 200 164 25 b 590 147 467 25 528 74 l 593 147 l 593 58 b 465 -99 593 -43 542 -99 b 342 -19 392 -99 354 -65 l 51 -19 b 481 -319 69 -231 242 -319 z m 497 278 b 404 375 440 278 404 317 b 497 474 404 435 440 474 b 590 375 549 474 590 435 b 497 278 590 317 549 278 z "},"Ğ":{"ha":1246,"x_min":0,"x_max":0,"o":"m 624 1146 b 928 1415 797 1146 919 1281 l 735 1415 b 624 1332 718 1349 667 1332 b 513 1415 581 1332 529 1349 l 321 1415 b 624 1146 333 1254 449 1146 z m 626 -17 b 1197 567 979 -17 1197 200 l 1197 624 l 610 624 l 610 369 l 782 369 l 782 368 b 628 288 763 315 704 288 b 432 515 504 288 432 392 b 629 744 432 646 503 744 b 788 664 704 744 757 715 l 1143 794 b 629 1064 1061 974 839 1064 b 49 517 300 1064 49 857 b 626 -17 49 181 307 -17 z "},"ğ":{"ha":1000,"x_min":0,"x_max":0,"o":"m 501 808 b 806 1078 675 808 797 943 l 613 1078 b 501 994 596 1011 544 994 b 390 1078 458 994 407 1011 l 199 1078 b 501 808 211 917 326 808 z m 481 -319 b 931 101 728 -319 931 -197 l 931 738 l 581 738 l 585 650 l 582 650 b 375 754 528 722 464 754 b 49 386 167 754 49 572 b 365 25 49 200 164 25 b 590 147 467 25 528 74 l 593 147 l 593 58 b 465 -99 593 -43 542 -99 b 342 -19 392 -99 354 -65 l 51 -19 b 481 -319 69 -231 242 -319 z m 497 278 b 404 375 440 278 404 317 b 497 474 404 435 440 474 b 590 375 549 474 590 435 b 497 278 590 317 549 278 z "},"Ġ":{"ha":1246,"x_min":0,"x_max":0,"o":"m 624 1150 b 821 1324 726 1150 821 1203 b 624 1496 821 1431 736 1496 b 426 1324 511 1496 426 1431 b 624 1150 426 1203 521 1150 z m 626 -17 b 1197 567 979 -17 1197 200 l 1197 624 l 610 624 l 610 369 l 782 369 l 782 368 b 628 288 763 315 704 288 b 432 515 504 288 432 392 b 629 744 432 646 503 744 b 788 664 704 744 757 715 l 1143 794 b 629 1064 1061 974 839 1064 b 49 517 300 1064 49 857 b 626 -17 49 181 307 -17 z "},"ġ":{"ha":1000,"x_min":0,"x_max":0,"o":"m 501 810 b 699 983 604 810 699 863 b 501 1156 699 1090 614 1156 b 304 983 389 1156 304 1090 b 501 810 304 863 399 810 z m 481 -319 b 931 101 728 -319 931 -197 l 931 738 l 581 738 l 585 650 l 582 650 b 375 754 528 722 464 754 b 49 386 167 754 49 572 b 365 25 49 200 164 25 b 590 147 467 25 528 74 l 593 147 l 593 58 b 465 -99 593 -43 542 -99 b 342 -19 392 -99 354 -65 l 51 -19 b 481 -319 69 -231 242 -319 z m 497 278 b 404 375 440 278 404 317 b 497 474 404 435 440 474 b 590 375 549 474 590 435 b 497 278 590 317 549 278 z "},"Ģ":{"ha":1246,"x_min":0,"x_max":0,"o":"m 626 -17 b 1197 567 979 -17 1197 200 l 1197 624 l 610 624 l 610 369 l 782 369 l 782 368 b 628 288 763 315 704 288 b 432 515 504 288 432 392 b 629 744 432 646 503 744 b 788 664 704 744 757 715 l 1143 794 b 629 1064 1061 974 839 1064 b 49 517 300 1064 49 857 b 626 -17 49 181 307 -17 z m 785 -50 l 489 -50 l 383 -304 l 621 -304 z "},"ģ":{"ha":1000,"x_min":0,"x_max":0,"o":"m 742 1131 l 504 1131 l 354 835 l 622 835 z m 481 -319 b 931 101 728 -319 931 -197 l 931 738 l 581 738 l 585 650 l 582 650 b 375 754 528 722 464 754 b 49 386 167 754 49 572 b 365 25 49 200 164 25 b 590 147 467 25 528 74 l 593 147 l 593 58 b 465 -99 593 -43 542 -99 b 342 -19 392 -99 354 -65 l 51 -19 b 481 -319 69 -231 242 -319 z m 497 278 b 404 375 440 278 404 317 b 497 474 404 435 440 474 b 590 375 549 474 590 435 b 497 278 590 317 549 278 z "},"Ĥ":{"ha":1119,"x_min":0,"x_max":0,"o":"m 560 1224 l 783 1139 l 878 1306 l 560 1479 l 242 1306 l 336 1139 z m 443 0 l 443 364 l 676 364 l 676 0 l 1043 0 l 1043 1047 l 676 1047 l 676 694 l 443 694 l 443 1047 l 76 1047 l 76 0 z "},"ĥ":{"ha":974,"x_min":0,"x_max":0,"o":"m 535 1247 l 758 1163 l 853 1329 l 535 1503 l 217 1329 l 311 1163 z m 428 0 l 428 353 b 493 464 428 413 435 464 b 549 360 547 464 549 413 l 549 0 l 907 0 l 907 454 b 651 754 907 615 835 754 b 421 619 539 754 485 701 l 418 619 b 428 851 422 678 428 790 l 428 1126 l 69 1126 l 69 0 z "},"Ħ":{"ha":1119,"x_min":0,"x_max":0,"o":"m 1043 926 l 1043 1047 l 676 1047 l 676 926 l 443 926 l 443 1047 l 76 1047 l 76 926 l 7 926 l 7 778 l 76 778 l 76 0 l 443 0 l 443 364 l 676 364 l 676 0 l 1043 0 l 1043 778 l 1113 778 l 1113 926 z m 443 653 l 443 778 l 676 778 l 676 653 z "},"ħ":{"ha":974,"x_min":0,"x_max":0,"o":"m 651 754 b 414 619 536 754 479 701 l 411 619 b 428 851 418 678 428 790 l 428 861 l 601 861 l 601 986 l 428 986 l 428 1126 l 69 1126 l 69 986 l 0 986 l 0 861 l 69 861 l 69 0 l 428 0 l 428 353 b 493 464 428 413 435 464 b 549 360 547 464 549 413 l 549 0 l 907 0 l 907 454 b 651 754 907 615 835 754 z "},"Ĩ":{"ha":519,"x_min":0,"x_max":0,"o":"m 375 1103 b 600 1304 485 1103 556 1211 l 447 1388 b 365 1310 432 1356 411 1310 b 158 1400 301 1310 246 1400 b -78 1213 53 1400 -29 1306 l 64 1115 b 146 1193 79 1147 103 1193 b 375 1103 196 1193 299 1103 z m 443 0 l 443 1047 l 76 1047 l 76 0 z "},"ĩ":{"ha":497,"x_min":0,"x_max":0,"o":"m 363 811 b 588 1013 472 811 543 919 l 435 1096 b 353 1018 419 1064 399 1018 b 146 1108 289 1018 233 1108 b -90 921 40 1108 -42 1014 l 51 824 b 133 901 67 856 90 901 b 363 811 183 901 286 811 z m 428 0 l 428 738 l 69 738 l 69 0 z "},"Ī":{"ha":519,"x_min":0,"x_max":0,"o":"m 499 1132 l 499 1292 l 19 1292 l 19 1132 z m 443 0 l 443 1047 l 76 1047 l 76 0 z "},"ī":{"ha":497,"x_min":0,"x_max":0,"o":"m 515 847 l 515 1049 l -19 1049 l -19 847 z m 428 0 l 428 738 l 69 738 l 69 0 z "},"Ĭ":{"ha":519,"x_min":0,"x_max":0,"o":"m 258 1146 b 563 1415 432 1146 554 1281 l 369 1415 b 258 1332 353 1349 301 1332 b 147 1415 215 1332 164 1349 l -44 1415 b 258 1146 -32 1254 83 1146 z m 443 0 l 443 1047 l 76 1047 l 76 0 z "},"ĭ":{"ha":497,"x_min":0,"x_max":0,"o":"m 247 808 b 551 1078 421 808 543 943 l 358 1078 b 247 994 342 1011 290 994 b 136 1078 204 994 153 1011 l -56 1078 b 247 808 -43 917 72 808 z m 428 0 l 428 738 l 69 738 l 69 0 z "},"Į":{"ha":519,"x_min":0,"x_max":0,"o":"m 400 -106 b 332 -121 382 -114 358 -121 b 281 -82 299 -121 281 -103 b 367 0 281 -60 296 -33 l 443 0 l 443 1047 l 76 1047 l 76 0 l 160 0 b 51 -151 81 -40 51 -99 b 258 -304 51 -251 151 -304 b 447 -264 333 -304 393 -289 z "},"į":{"ha":497,"x_min":0,"x_max":0,"o":"m 249 810 b 446 983 351 810 446 863 b 249 1156 446 1090 361 1156 b 51 983 136 1156 51 1090 b 249 810 51 863 146 810 z m 400 -106 b 332 -121 382 -114 358 -121 b 281 -82 299 -121 281 -103 b 367 0 281 -60 296 -33 l 428 0 l 428 738 l 69 738 l 69 0 l 160 0 b 51 -151 81 -40 51 -99 b 258 -304 51 -251 151 -304 b 447 -264 333 -304 393 -289 z "},"İ":{"ha":519,"x_min":0,"x_max":0,"o":"m 260 1150 b 457 1324 363 1150 457 1203 b 260 1496 457 1431 372 1496 b 63 1324 147 1496 63 1431 b 260 1150 63 1203 157 1150 z m 443 0 l 443 1047 l 76 1047 l 76 0 z "},"ı":{"ha":497,"x_min":0,"x_max":0,"o":"m 428 0 l 428 738 l 69 738 l 69 0 z "},"Ĳ":{"ha":1258,"x_min":0,"x_max":0,"o":"m 443 0 l 443 1047 l 76 1047 l 76 0 z m 832 -17 b 1189 353 1047 -17 1189 125 l 1189 1047 l 817 1047 l 817 425 b 750 324 817 385 811 324 b 640 399 708 324 667 364 l 519 97 b 832 -17 600 24 714 -17 z "},"ĳ":{"ha":994,"x_min":0,"x_max":0,"o":"m 249 810 b 446 983 351 810 446 863 b 249 1156 446 1090 361 1156 b 51 983 136 1156 51 1090 b 249 810 51 863 146 810 z m 746 810 b 943 983 849 810 943 863 b 746 1156 943 1090 858 1156 b 549 983 633 1156 549 1090 b 746 810 549 863 643 810 z m 428 0 l 428 738 l 69 738 l 69 0 z m 925 -304 l 925 738 l 567 738 l 567 -304 z "},"Ĵ":{"ha":739,"x_min":0,"x_max":0,"o":"m 481 1224 l 704 1139 l 799 1306 l 481 1479 l 163 1306 l 257 1139 z m 313 -17 b 669 353 528 -17 669 125 l 669 1047 l 297 1047 l 297 425 b 231 324 297 385 292 324 b 121 399 189 324 147 364 l 0 97 b 313 -17 81 24 194 -17 z "},"ĵ":{"ha":497,"x_min":0,"x_max":0,"o":"m 249 875 l 472 790 l 567 957 l 249 1131 l -69 957 l 25 790 z m 428 -304 l 428 738 l 69 738 l 69 -304 z "},"Ķ":{"ha":1119,"x_min":0,"x_max":0,"o":"m 439 463 l 692 0 l 1133 0 l 779 528 l 1099 1047 l 683 1047 l 439 593 l 447 1047 l 76 1047 l 76 0 l 447 0 z m 564 -304 l 728 -50 l 432 -50 l 326 -304 z "},"ķ":{"ha":1010,"x_min":0,"x_max":0,"o":"m 438 264 l 586 0 l 1008 0 l 724 376 l 994 738 l 586 738 l 428 464 l 428 1126 l 69 1126 l 69 0 l 428 0 l 428 260 z m 510 -304 l 674 -50 l 378 -50 l 272 -304 z "},"ĸ":{"ha":1010,"x_min":0,"x_max":0,"o":"m 724 376 l 994 738 l 586 738 l 428 464 l 428 738 l 69 738 l 69 0 l 428 0 l 428 260 l 438 264 l 586 0 l 1008 0 z "},"Ĺ":{"ha":788,"x_min":0,"x_max":0,"o":"m 494 1322 l 251 1493 l 42 1222 l 224 1122 z m 763 0 l 763 336 l 443 336 l 443 1047 l 76 1047 l 76 0 z "},"ĺ":{"ha":497,"x_min":0,"x_max":0,"o":"m 479 1401 l 236 1572 l 26 1301 l 208 1201 z m 428 0 l 428 1126 l 69 1126 l 69 0 z "},"Ļ":{"ha":788,"x_min":0,"x_max":0,"o":"m 763 0 l 763 336 l 443 336 l 443 1047 l 76 1047 l 76 0 z m 585 -50 l 289 -50 l 183 -304 l 421 -304 z "},"ļ":{"ha":497,"x_min":0,"x_max":0,"o":"m 428 0 l 428 1126 l 69 1126 l 69 0 z m 410 -50 l 114 -50 l 8 -304 l 246 -304 z "},"Ľ":{"ha":788,"x_min":0,"x_max":0,"o":"m 763 0 l 763 336 l 443 336 l 443 1047 l 76 1047 l 76 0 z m 803 954 l 564 1047 l 457 732 l 635 672 z "},"ľ":{"ha":497,"x_min":0,"x_max":0,"o":"m 811 1038 l 572 1131 l 465 815 l 643 756 z m 428 0 l 428 1126 l 69 1126 l 69 0 z "},"Ŀ":{"ha":788,"x_min":0,"x_max":0,"o":"m 763 0 l 763 336 l 443 336 l 443 1047 l 76 1047 l 76 0 z m 653 479 b 814 640 744 479 814 549 b 653 801 814 732 744 801 b 492 640 561 801 492 732 b 653 479 492 549 561 479 z "},"ŀ":{"ha":818,"x_min":0,"x_max":0,"o":"m 428 0 l 428 1126 l 69 1126 l 69 0 z m 660 388 b 840 568 758 388 840 469 b 660 749 840 667 758 749 b 479 568 561 749 479 667 b 660 388 479 469 561 388 z "},"Ł":{"ha":788,"x_min":0,"x_max":0,"o":"m 443 560 l 589 672 l 589 900 l 443 788 l 443 1047 l 76 1047 l 76 550 l -21 469 l -21 243 l 76 324 l 76 0 l 763 0 l 763 336 l 443 336 z "},"ł":{"ha":549,"x_min":0,"x_max":0,"o":"m 453 808 l 453 1126 l 94 1126 l 94 574 l 0 497 l 0 297 l 94 374 l 94 0 l 453 0 l 453 607 l 549 685 l 549 885 z "},"Ń":{"ha":1203,"x_min":0,"x_max":0,"o":"m 603 1493 l 393 1222 l 575 1122 l 846 1322 z m 783 478 l 442 1047 l 76 1047 l 76 0 l 440 0 l 428 551 l 763 0 l 1126 0 l 1126 1047 l 763 1047 z "},"ń":{"ha":974,"x_min":0,"x_max":0,"o":"m 768 990 l 525 1161 l 315 890 l 497 790 z m 428 0 l 428 353 b 493 464 428 413 435 464 b 549 360 547 464 549 413 l 549 0 l 907 0 l 907 454 b 651 754 907 615 835 754 b 414 619 536 754 479 701 l 411 619 l 419 738 l 69 738 l 69 0 z "},"Ņ":{"ha":1203,"x_min":0,"x_max":0,"o":"m 783 478 l 442 1047 l 76 1047 l 76 0 l 440 0 l 428 551 l 763 0 l 1126 0 l 1126 1047 l 763 1047 z m 599 -304 l 763 -50 l 467 -50 l 361 -304 z "},"ņ":{"ha":974,"x_min":0,"x_max":0,"o":"m 428 0 l 428 353 b 493 464 428 413 435 464 b 549 360 547 464 549 413 l 549 0 l 907 0 l 907 454 b 651 754 907 615 835 754 b 414 619 536 754 479 701 l 411 619 l 419 738 l 69 738 l 69 0 z m 650 -50 l 354 -50 l 249 -304 l 486 -304 z "},"Ň":{"ha":1203,"x_min":0,"x_max":0,"o":"m 839 1476 l 615 1392 l 392 1476 l 297 1310 l 615 1136 l 933 1310 z m 783 478 l 442 1047 l 76 1047 l 76 0 l 440 0 l 428 551 l 763 0 l 1126 0 l 1126 1047 l 763 1047 z "},"ň":{"ha":974,"x_min":0,"x_max":0,"o":"m 807 964 l 713 1131 l 489 1046 l 265 1131 l 171 964 l 489 790 z m 428 0 l 428 353 b 493 464 428 413 435 464 b 549 360 547 464 549 413 l 549 0 l 907 0 l 907 454 b 651 754 907 615 835 754 b 414 619 536 754 479 701 l 411 619 l 419 738 l 69 738 l 69 0 z "},"ŉ":{"ha":1325,"x_min":0,"x_max":0,"o":"m 457 1047 l 97 1047 l -71 529 l 208 529 z m 779 0 l 779 353 b 844 464 779 413 786 464 b 900 360 899 464 900 413 l 900 0 l 1258 0 l 1258 454 b 1003 754 1258 615 1186 754 b 765 619 888 754 831 701 l 763 619 l 771 738 l 421 738 l 421 0 z "},"Ŋ":{"ha":1203,"x_min":0,"x_max":0,"o":"m 782 496 l 442 1047 l 76 1047 l 76 0 l 440 0 l 428 551 l 754 36 l 754 29 b 689 -36 754 -4 742 -36 b 615 -17 660 -36 635 -28 l 517 -290 b 769 -364 589 -335 683 -364 b 1126 26 979 -364 1126 -214 l 1126 1047 l 763 1047 z "},"ŋ":{"ha":974,"x_min":0,"x_max":0,"o":"m 589 -326 b 907 -33 810 -326 907 -222 l 907 454 b 651 754 907 615 835 754 b 414 619 536 754 479 701 l 411 619 l 419 738 l 69 738 l 69 0 l 428 0 l 428 353 b 493 464 428 413 435 464 b 549 360 547 464 549 413 l 549 6 b 479 -79 549 -40 528 -79 b 425 -67 456 -79 442 -74 l 425 -310 b 589 -326 479 -319 528 -326 z "},"Ō":{"ha":1256,"x_min":0,"x_max":0,"o":"m 868 1132 l 868 1292 l 389 1292 l 389 1132 z m 628 -17 b 1207 521 946 -17 1207 185 b 628 1064 1207 849 946 1064 b 49 521 310 1064 49 849 b 628 -17 49 185 310 -17 z m 628 319 b 432 521 511 319 432 401 b 628 728 432 635 507 728 b 824 521 749 728 824 635 b 628 319 824 401 744 319 z "},"ō":{"ha":986,"x_min":0,"x_max":0,"o":"m 761 847 l 761 1049 l 226 1049 l 226 847 z m 493 -17 b 944 369 739 -17 944 106 b 493 754 944 624 739 754 b 42 369 247 754 42 624 b 493 -17 42 106 247 -17 z m 493 267 b 393 369 432 267 393 310 b 493 471 393 429 432 471 b 593 369 554 471 593 429 b 493 267 593 310 554 267 z "},"Ŏ":{"ha":1256,"x_min":0,"x_max":0,"o":"m 628 1146 b 932 1415 801 1146 924 1281 l 739 1415 b 628 1332 722 1349 671 1332 b 517 1415 585 1332 533 1349 l 325 1415 b 628 1146 338 1254 453 1146 z m 628 -17 b 1207 521 946 -17 1207 185 b 628 1064 1207 849 946 1064 b 49 521 310 1064 49 849 b 628 -17 49 185 310 -17 z m 628 319 b 432 521 511 319 432 401 b 628 728 432 635 507 728 b 824 521 749 728 824 635 b 628 319 824 401 744 319 z "},"ŏ":{"ha":986,"x_min":0,"x_max":0,"o":"m 493 808 b 797 1078 667 808 789 943 l 604 1078 b 493 994 588 1011 536 994 b 382 1078 450 994 399 1011 l 190 1078 b 493 808 203 917 318 808 z m 493 -17 b 944 369 739 -17 944 106 b 493 754 944 624 739 754 b 42 369 247 754 42 624 b 493 -17 42 106 247 -17 z m 493 267 b 393 369 432 267 393 310 b 493 471 393 429 432 471 b 593 369 554 471 593 429 b 493 267 593 310 554 267 z "},"Ő":{"ha":1256,"x_min":0,"x_max":0,"o":"m 711 1415 l 444 1454 l 346 1175 l 547 1140 z m 1050 1415 l 783 1454 l 671 1175 l 872 1140 z m 628 -17 b 1207 521 946 -17 1207 185 b 628 1064 1207 849 946 1064 b 49 521 310 1064 49 849 b 628 -17 49 185 310 -17 z m 628 319 b 432 521 511 319 432 401 b 628 728 432 635 507 728 b 824 521 749 728 824 635 b 628 319 824 401 744 319 z "},"ő":{"ha":986,"x_min":0,"x_max":0,"o":"m 563 1064 l 296 1103 l 197 824 l 399 789 z m 901 1064 l 635 1103 l 522 824 l 724 789 z m 493 -17 b 944 369 739 -17 944 106 b 493 754 944 624 739 754 b 42 369 247 754 42 624 b 493 -17 42 106 247 -17 z m 493 267 b 393 369 432 267 393 310 b 493 471 393 429 432 471 b 593 369 554 471 593 429 b 493 267 593 310 554 267 z "},"Œ":{"ha":1625,"x_min":0,"x_max":0,"o":"m 558 -17 b 849 118 678 -17 779 32 l 851 118 l 851 0 l 1563 0 l 1563 286 l 1214 286 l 1214 393 l 1524 393 l 1524 665 l 1214 665 l 1214 761 l 1551 761 l 1551 1047 l 851 1047 l 851 924 l 849 924 b 558 1064 779 1013 678 1064 b 49 521 278 1064 49 846 b 558 -17 49 188 278 -17 z m 628 319 b 432 521 511 319 432 401 b 628 728 432 635 507 728 b 810 521 740 728 810 635 b 628 319 810 401 736 319 z "},"œ":{"ha":1506,"x_min":0,"x_max":0,"o":"m 1464 342 b 1032 754 1464 614 1275 754 b 746 650 921 754 819 718 b 465 754 674 718 575 754 b 42 369 249 754 42 621 b 465 -17 42 108 249 -17 b 743 82 572 -17 671 17 b 1032 -17 815 17 918 -17 b 1447 243 1203 -17 1399 65 l 1103 243 b 1026 182 1093 208 1065 182 b 940 308 960 182 940 235 l 1463 308 b 1464 342 1464 319 1464 331 z m 942 461 b 1026 557 944 514 972 557 b 1110 461 1081 557 1108 514 z m 493 267 b 393 369 432 267 393 310 b 493 471 393 429 432 471 b 593 369 554 471 593 429 b 493 267 593 310 554 267 z "},"Ŕ":{"ha":1044,"x_min":0,"x_max":0,"o":"m 504 1493 l 294 1222 l 476 1122 l 747 1322 z m 783 393 b 972 683 917 465 972 558 b 536 1047 972 947 774 1047 l 76 1047 l 76 0 l 443 0 l 443 336 l 457 336 l 622 0 l 1058 0 z m 478 761 b 600 671 544 761 600 751 b 475 583 600 593 538 583 l 443 583 l 443 761 z "},"ŕ":{"ha":689,"x_min":0,"x_max":0,"o":"m 625 990 l 382 1161 l 172 890 l 354 790 z m 428 0 l 428 283 b 558 431 428 376 476 431 b 678 390 611 431 647 410 l 678 754 l 653 754 b 428 639 547 754 486 728 l 419 639 l 428 738 l 69 738 l 69 0 z "},"Ŗ":{"ha":1044,"x_min":0,"x_max":0,"o":"m 457 336 l 622 0 l 1058 0 l 783 393 b 972 683 917 465 972 558 b 536 1047 972 947 774 1047 l 76 1047 l 76 0 l 443 0 l 443 336 z m 478 761 b 600 671 544 761 600 751 b 475 583 600 593 538 583 l 443 583 l 443 761 z m 529 -304 l 693 -50 l 397 -50 l 292 -304 z "},"ŗ":{"ha":689,"x_min":0,"x_max":0,"o":"m 428 0 l 428 283 b 558 431 428 376 476 431 b 678 390 611 431 647 410 l 678 754 l 653 754 b 428 639 547 754 486 728 l 419 639 l 428 738 l 69 738 l 69 0 z m 399 -50 l 103 -50 l -3 -304 l 235 -304 z "},"Ř":{"ha":1044,"x_min":0,"x_max":0,"o":"m 740 1476 l 517 1392 l 293 1476 l 199 1310 l 517 1136 l 835 1310 z m 783 393 b 972 683 917 465 972 558 b 536 1047 972 947 774 1047 l 76 1047 l 76 0 l 443 0 l 443 336 l 457 336 l 622 0 l 1058 0 z m 478 761 b 600 671 544 761 600 751 b 475 583 600 593 538 583 l 443 583 l 443 761 z "},"ř":{"ha":689,"x_min":0,"x_max":0,"o":"m 664 964 l 569 1131 l 346 1046 l 122 1131 l 28 964 l 346 790 z m 428 0 l 428 283 b 558 431 428 376 476 431 b 678 390 611 431 647 410 l 678 754 l 653 754 b 428 639 547 754 486 728 l 419 639 l 428 738 l 69 738 l 69 0 z "},"Ś":{"ha":906,"x_min":0,"x_max":0,"o":"m 697 1322 l 454 1493 l 244 1222 l 426 1122 z m 442 -17 b 871 340 697 -17 871 125 b 586 663 871 538 739 617 b 450 736 511 685 450 699 b 522 783 450 771 483 783 b 717 714 603 783 675 747 l 851 974 b 483 1064 751 1031 644 1064 b 69 710 243 1064 69 924 b 378 382 69 503 229 426 b 490 317 443 363 490 351 b 406 264 490 278 458 264 b 151 364 338 264 246 293 l 21 108 b 442 -17 121 35 254 -17 z "},"ś":{"ha":769,"x_min":0,"x_max":0,"o":"m 664 990 l 421 1161 l 211 890 l 393 790 z m 364 -21 b 721 254 579 -21 721 81 b 489 469 721 403 617 447 b 396 507 424 481 396 486 b 451 535 396 526 415 535 b 608 479 504 535 568 513 l 693 697 b 418 756 631 732 532 756 b 74 492 239 756 74 683 b 310 275 74 349 182 296 b 382 240 360 267 382 260 b 331 213 382 222 368 213 b 135 293 264 213 197 242 l 28 76 b 364 -21 108 24 214 -21 z "},"Ŝ":{"ha":906,"x_min":0,"x_max":0,"o":"m 467 1224 l 690 1139 l 785 1306 l 467 1479 l 149 1306 l 243 1139 z m 442 -17 b 871 340 697 -17 871 125 b 586 663 871 538 739 617 b 450 736 511 685 450 699 b 522 783 450 771 483 783 b 717 714 603 783 675 747 l 851 974 b 483 1064 751 1031 644 1064 b 69 710 243 1064 69 924 b 378 382 69 503 229 426 b 490 317 443 363 490 351 b 406 264 490 278 458 264 b 151 364 338 264 246 293 l 21 108 b 442 -17 121 35 254 -17 z "},"ŝ":{"ha":769,"x_min":0,"x_max":0,"o":"m 385 875 l 608 790 l 703 957 l 385 1131 l 67 957 l 161 790 z m 364 -21 b 721 254 579 -21 721 81 b 489 469 721 403 617 447 b 396 507 424 481 396 486 b 451 535 396 526 415 535 b 608 479 504 535 568 513 l 693 697 b 418 756 631 732 532 756 b 74 492 239 756 74 683 b 310 275 74 349 182 296 b 382 240 360 267 382 260 b 331 213 382 222 368 213 b 135 293 264 213 197 242 l 28 76 b 364 -21 108 24 214 -21 z "},"Ş":{"ha":906,"x_min":0,"x_max":0,"o":"m 871 340 b 586 663 871 538 739 617 b 450 736 511 685 450 699 b 522 783 450 771 483 783 b 717 714 603 783 675 747 l 851 974 b 483 1064 751 1031 644 1064 b 69 710 243 1064 69 924 b 378 382 69 503 229 426 b 490 317 443 363 490 351 b 406 264 490 278 458 264 b 151 364 338 264 246 293 l 21 108 b 428 -17 118 36 247 -14 l 258 -240 l 390 -324 l 610 -135 l 449 -17 b 871 340 700 -14 871 126 z "},"ş":{"ha":769,"x_min":0,"x_max":0,"o":"m 721 254 b 489 469 721 403 617 447 b 396 507 424 481 396 486 b 451 535 396 526 415 535 b 608 479 504 535 568 513 l 693 697 b 418 756 631 732 532 756 b 74 492 239 756 74 683 b 310 275 74 349 182 296 b 382 240 360 267 382 260 b 331 213 382 222 368 213 b 135 293 264 213 197 242 l 28 76 b 343 -21 104 26 204 -17 l 176 -240 l 308 -324 l 528 -135 l 372 -21 b 721 254 582 -18 721 83 z "},"Š":{"ha":906,"x_min":0,"x_max":0,"o":"m 785 1310 l 690 1476 l 467 1392 l 243 1476 l 149 1310 l 467 1136 z m 442 -17 b 871 340 697 -17 871 125 b 586 663 871 538 739 617 b 450 736 511 685 450 699 b 522 783 450 771 483 783 b 717 714 603 783 675 747 l 851 974 b 483 1064 751 1031 644 1064 b 69 710 243 1064 69 924 b 378 382 69 503 229 426 b 490 317 443 363 490 351 b 406 264 490 278 458 264 b 151 364 338 264 246 293 l 21 108 b 442 -17 121 35 254 -17 z "},"š":{"ha":769,"x_min":0,"x_max":0,"o":"m 703 964 l 608 1131 l 385 1046 l 161 1131 l 67 964 l 385 790 z m 364 -21 b 721 254 579 -21 721 81 b 489 469 721 403 617 447 b 396 507 424 481 396 486 b 451 535 396 526 415 535 b 608 479 504 535 568 513 l 693 697 b 418 756 631 732 532 756 b 74 492 239 756 74 683 b 310 275 74 349 182 296 b 382 240 360 267 382 260 b 331 213 382 222 368 213 b 135 293 264 213 197 242 l 28 76 b 364 -21 108 24 214 -21 z "},"Ţ":{"ha":836,"x_min":0,"x_max":0,"o":"m 608 0 l 608 711 l 818 711 l 818 1047 l 18 1047 l 18 711 l 228 711 l 228 0 z m 575 -135 l 400 -7 l 224 -240 l 356 -324 z "},"ţ":{"ha":626,"x_min":0,"x_max":0,"o":"m 489 0 l 489 450 l 614 450 l 614 738 l 489 738 l 489 975 l 131 975 l 131 738 l 13 738 l 13 450 l 131 450 l 131 0 z m 471 -135 l 296 -7 l 119 -240 l 251 -324 z "},"Ť":{"ha":836,"x_min":0,"x_max":0,"o":"m 736 1310 l 642 1476 l 418 1392 l 194 1476 l 100 1310 l 418 1136 z m 608 0 l 608 711 l 818 711 l 818 1047 l 18 1047 l 18 711 l 228 711 l 228 0 z "},"ť":{"ha":626,"x_min":0,"x_max":0,"o":"m 863 1058 l 624 1151 l 517 836 l 694 776 z m 489 0 l 489 450 l 614 450 l 614 738 l 489 738 l 489 975 l 131 975 l 131 738 l 13 738 l 13 450 l 131 450 l 131 0 z "},"Ŧ":{"ha":836,"x_min":0,"x_max":0,"o":"m 818 1047 l 18 1047 l 18 711 l 228 711 l 228 567 l 107 567 l 107 418 l 228 418 l 228 0 l 608 0 l 608 418 l 729 418 l 729 567 l 608 567 l 608 711 l 818 711 z "},"ŧ":{"ha":626,"x_min":0,"x_max":0,"o":"m 614 738 l 489 738 l 489 975 l 131 975 l 131 738 l 13 738 l 13 450 l 131 450 l 131 354 l 33 354 l 33 229 l 131 229 l 131 0 l 489 0 l 489 229 l 578 229 l 578 354 l 489 354 l 489 450 l 614 450 z "},"Ũ":{"ha":1108,"x_min":0,"x_max":0,"o":"m 671 1103 b 896 1304 781 1103 851 1211 l 743 1388 b 661 1310 728 1356 707 1310 b 454 1400 597 1310 542 1400 b 218 1213 349 1400 267 1306 l 360 1115 b 442 1193 375 1147 399 1193 b 671 1103 492 1193 594 1103 z m 554 -17 b 1039 428 847 -17 1039 122 l 1039 1047 l 658 1047 l 658 464 b 554 310 658 382 656 310 b 450 464 453 310 450 382 l 450 1047 l 69 1047 l 69 428 b 554 -17 69 122 261 -17 z "},"ũ":{"ha":967,"x_min":0,"x_max":0,"o":"m 597 811 b 822 1013 707 811 778 919 l 669 1096 b 588 1018 654 1064 633 1018 b 381 1108 524 1018 468 1108 b 144 921 275 1108 193 1014 l 286 824 b 368 901 301 856 325 901 b 597 811 418 901 521 811 z m 483 -17 b 900 321 726 -17 900 88 l 900 738 l 544 738 l 544 357 b 483 268 544 313 542 268 b 422 357 425 268 422 313 l 422 738 l 67 738 l 67 321 b 483 -17 67 88 240 -17 z "},"Ū":{"ha":1108,"x_min":0,"x_max":0,"o":"m 796 1132 l 796 1292 l 317 1292 l 317 1132 z m 554 -17 b 1039 428 847 -17 1039 122 l 1039 1047 l 658 1047 l 658 464 b 554 310 658 382 656 310 b 450 464 453 310 450 382 l 450 1047 l 69 1047 l 69 428 b 554 -17 69 122 261 -17 z "},"ū":{"ha":967,"x_min":0,"x_max":0,"o":"m 751 847 l 751 1049 l 217 1049 l 217 847 z m 483 -17 b 900 321 726 -17 900 88 l 900 738 l 544 738 l 544 357 b 483 268 544 313 542 268 b 422 357 425 268 422 313 l 422 738 l 67 738 l 67 321 b 483 -17 67 88 240 -17 z "},"Ŭ":{"ha":1108,"x_min":0,"x_max":0,"o":"m 556 1146 b 860 1415 729 1146 851 1281 l 667 1415 b 556 1332 650 1349 599 1332 b 444 1415 513 1332 461 1349 l 253 1415 b 556 1146 265 1254 381 1146 z m 554 -17 b 1039 428 847 -17 1039 122 l 1039 1047 l 658 1047 l 658 464 b 554 310 658 382 656 310 b 450 464 453 310 450 382 l 450 1047 l 69 1047 l 69 428 b 554 -17 69 122 261 -17 z "},"ŭ":{"ha":967,"x_min":0,"x_max":0,"o":"m 483 808 b 788 1078 657 808 779 943 l 594 1078 b 483 994 578 1011 526 994 b 372 1078 440 994 389 1011 l 181 1078 b 483 808 193 917 308 808 z m 483 -17 b 900 321 726 -17 900 88 l 900 738 l 544 738 l 544 357 b 483 268 544 313 542 268 b 422 357 425 268 422 313 l 422 738 l 67 738 l 67 321 b 483 -17 67 88 240 -17 z "},"Ů":{"ha":1108,"x_min":0,"x_max":0,"o":"m 554 1083 b 764 1256 658 1083 764 1139 b 554 1431 764 1371 658 1431 b 344 1256 450 1431 344 1371 b 554 1083 344 1139 450 1083 z m 554 1197 b 490 1257 521 1197 490 1219 b 554 1317 490 1294 521 1317 b 618 1257 588 1317 618 1294 b 554 1197 618 1219 588 1197 z m 554 -17 b 1039 428 847 -17 1039 122 l 1039 1047 l 658 1047 l 658 464 b 554 310 658 382 656 310 b 450 464 453 310 450 382 l 450 1047 l 69 1047 l 69 428 b 554 -17 69 122 261 -17 z "},"ů":{"ha":967,"x_min":0,"x_max":0,"o":"m 483 806 b 693 978 588 806 693 861 b 483 1153 693 1093 588 1153 b 274 978 379 1153 274 1093 b 483 806 274 861 379 806 z m 483 925 b 425 979 453 925 425 944 b 483 1033 425 1014 453 1033 b 542 979 514 1033 542 1014 b 483 925 542 944 514 925 z m 483 -17 b 900 321 726 -17 900 88 l 900 738 l 544 738 l 544 357 b 483 268 544 313 542 268 b 422 357 425 268 422 313 l 422 738 l 67 738 l 67 321 b 483 -17 67 88 240 -17 z "},"Ű":{"ha":1108,"x_min":0,"x_max":0,"o":"m 639 1415 l 372 1454 l 274 1175 l 475 1140 z m 978 1415 l 711 1454 l 599 1175 l 800 1140 z m 554 -17 b 1039 428 847 -17 1039 122 l 1039 1047 l 658 1047 l 658 464 b 554 310 658 382 656 310 b 450 464 453 310 450 382 l 450 1047 l 69 1047 l 69 428 b 554 -17 69 122 261 -17 z "},"ű":{"ha":967,"x_min":0,"x_max":0,"o":"m 553 1064 l 286 1103 l 188 824 l 389 789 z m 892 1064 l 625 1103 l 513 824 l 714 789 z m 483 -17 b 900 321 726 -17 900 88 l 900 738 l 544 738 l 544 357 b 483 268 544 313 542 268 b 422 357 425 268 422 313 l 422 738 l 67 738 l 67 321 b 483 -17 67 88 240 -17 z "},"Ų":{"ha":1108,"x_min":0,"x_max":0,"o":"m 658 464 b 554 310 658 382 656 310 b 450 464 453 310 450 382 l 450 1047 l 69 1047 l 69 428 b 499 -15 69 142 238 1 b 417 -151 439 -54 417 -104 b 624 -304 417 -251 517 -304 b 813 -264 699 -304 758 -289 l 765 -106 b 697 -121 747 -114 724 -121 b 646 -82 664 -121 646 -103 b 751 10 646 -58 664 -29 b 1039 428 931 63 1039 199 l 1039 1047 l 658 1047 z "},"ų":{"ha":967,"x_min":0,"x_max":0,"o":"m 544 357 b 483 268 544 313 542 268 b 422 357 425 268 422 313 l 422 738 l 67 738 l 67 321 b 428 -15 67 106 214 0 b 365 -137 383 -51 365 -96 b 572 -290 365 -237 465 -290 b 761 -250 647 -290 707 -275 l 714 -92 b 646 -107 696 -100 672 -107 b 594 -68 613 -107 594 -89 b 669 8 594 -47 608 -22 b 900 321 810 51 900 153 l 900 738 l 544 738 z "},"Ŵ":{"ha":1635,"x_min":0,"x_max":0,"o":"m 818 1224 l 1042 1139 l 1136 1306 l 818 1479 l 500 1306 l 594 1139 z m 683 0 l 817 569 l 940 0 l 1279 0 l 1642 1047 l 1246 1047 l 1106 436 l 963 1047 l 671 1047 l 519 436 l 388 1047 l -7 1047 l 351 0 z "},"ŵ":{"ha":1318,"x_min":0,"x_max":0,"o":"m 660 875 l 883 790 l 978 957 l 660 1131 l 342 957 l 436 790 z m 571 0 l 660 328 l 747 0 l 1036 0 l 1339 738 l 963 738 l 881 328 l 776 738 l 542 738 l 442 328 l 357 738 l -21 738 l 278 0 z "},"Ŷ":{"ha":1068,"x_min":0,"x_max":0,"o":"m 535 1224 l 758 1139 l 853 1306 l 535 1479 l 217 1306 l 311 1139 z m 724 0 l 724 451 l 1082 1047 l 654 1047 l 540 774 l 417 1047 l -14 1047 l 351 451 l 351 0 z "},"ŷ":{"ha":958,"x_min":0,"x_max":0,"o":"m 703 790 l 797 957 l 479 1131 l 161 957 l 256 790 l 479 875 z m 481 342 l 378 738 l -8 738 l 306 76 l 117 -304 l 494 -304 l 967 738 l 590 738 z "},"Ÿ":{"ha":1068,"x_min":0,"x_max":0,"o":"m 343 1150 b 496 1303 429 1150 496 1217 b 343 1457 496 1390 429 1457 b 189 1303 256 1457 189 1390 b 343 1150 189 1217 256 1150 z m 728 1150 b 881 1303 815 1150 881 1217 b 728 1457 881 1390 815 1457 b 574 1303 640 1457 574 1390 b 728 1150 574 1217 640 1150 z m 724 0 l 724 451 l 1082 1047 l 654 1047 l 540 774 l 417 1047 l -14 1047 l 351 451 l 351 0 z "},"Ź":{"ha":1054,"x_min":0,"x_max":0,"o":"m 778 1322 l 535 1493 l 325 1222 l 507 1122 z m 1006 0 l 1006 324 l 596 324 l 1051 1044 l 1051 1047 l 76 1047 l 76 731 l 451 731 l -14 4 l -14 0 z "},"ź":{"ha":851,"x_min":0,"x_max":0,"o":"m 717 990 l 474 1161 l 264 890 l 446 790 z m 806 0 l 806 276 l 531 276 l 824 696 l 824 738 l 64 738 l 64 461 l 317 461 l 28 50 l 28 0 z "},"Ż":{"ha":1054,"x_min":0,"x_max":0,"o":"m 547 1150 b 744 1324 650 1150 744 1203 b 547 1496 744 1431 660 1496 b 350 1324 435 1496 350 1431 b 547 1150 350 1203 444 1150 z m 1006 0 l 1006 324 l 596 324 l 1051 1044 l 1051 1047 l 76 1047 l 76 731 l 451 731 l -14 4 l -14 0 z "},"ż":{"ha":851,"x_min":0,"x_max":0,"o":"m 438 810 b 635 983 540 810 635 863 b 438 1156 635 1090 550 1156 b 240 983 325 1156 240 1090 b 438 810 240 863 335 810 z m 806 0 l 806 276 l 531 276 l 824 696 l 824 738 l 64 738 l 64 461 l 317 461 l 28 50 l 28 0 z "},"Ž":{"ha":1054,"x_min":0,"x_max":0,"o":"m 865 1310 l 771 1476 l 547 1392 l 324 1476 l 229 1310 l 547 1136 z m 1006 0 l 1006 324 l 596 324 l 1051 1044 l 1051 1047 l 76 1047 l 76 731 l 451 731 l -14 4 l -14 0 z "},"ž":{"ha":851,"x_min":0,"x_max":0,"o":"m 756 964 l 661 1131 l 438 1046 l 214 1131 l 119 964 l 438 790 z m 806 0 l 806 276 l 531 276 l 824 696 l 824 738 l 64 738 l 64 461 l 317 461 l 28 50 l 28 0 z "},"Ə":{"ha":1249,"x_min":0,"x_max":0,"o":"m 628 1064 b 115 790 396 1064 189 950 l 453 664 b 633 746 493 725 553 746 b 801 617 711 746 774 697 l 49 617 l 49 608 b 628 -17 49 226 243 -17 b 1200 522 946 -17 1200 186 b 628 1064 1200 850 946 1064 z m 628 278 b 451 383 532 278 478 318 l 789 383 b 628 278 757 318 700 278 z "},"ƒ":{"ha":742,"x_min":0,"x_max":0,"o":"m 668 867 b 728 856 696 867 711 863 l 728 1138 b 553 1156 682 1147 621 1156 b 240 819 332 1156 278 1042 l 226 738 l 156 738 l 111 478 l 182 478 l 115 79 b 46 -15 106 19 96 -15 b -14 -4 18 -15 3 -11 l -14 -286 b 161 -304 32 -296 93 -304 b 474 32 382 -304 436 -190 l 549 478 l 633 478 l 679 738 l 593 738 l 599 772 b 668 867 608 832 618 867 z "},"Ǵ":{"ha":1246,"x_min":0,"x_max":0,"o":"m 854 1322 l 611 1493 l 401 1222 l 583 1122 z m 626 -17 b 1197 567 979 -17 1197 200 l 1197 624 l 610 624 l 610 369 l 782 369 l 782 368 b 628 288 763 315 704 288 b 432 515 504 288 432 392 b 629 744 432 646 503 744 b 788 664 704 744 757 715 l 1143 794 b 629 1064 1061 974 839 1064 b 49 517 300 1064 49 857 b 626 -17 49 181 307 -17 z "},"ǵ":{"ha":1000,"x_min":0,"x_max":0,"o":"m 781 990 l 538 1161 l 328 890 l 510 790 z m 481 -319 b 931 101 728 -319 931 -197 l 931 738 l 581 738 l 585 650 l 582 650 b 375 754 528 722 464 754 b 49 386 167 754 49 572 b 365 25 49 200 164 25 b 590 147 467 25 528 74 l 593 147 l 593 58 b 465 -99 593 -43 542 -99 b 342 -19 392 -99 354 -65 l 51 -19 b 481 -319 69 -231 242 -319 z m 497 278 b 404 375 440 278 404 317 b 497 474 404 435 440 474 b 590 375 549 474 590 435 b 497 278 590 317 549 278 z "},"Ǻ":{"ha":1131,"x_min":0,"x_max":0,"o":"m 553 1808 l 343 1538 l 525 1438 l 796 1638 z m 354 1256 b 564 1083 354 1139 460 1083 b 774 1256 668 1083 774 1139 b 564 1431 774 1371 668 1431 b 354 1256 460 1431 354 1371 z m 628 1257 b 564 1197 628 1219 597 1197 b 500 1257 531 1197 500 1219 b 564 1317 500 1294 531 1317 b 628 1257 597 1317 628 1294 z m 1144 0 l 771 1047 l 350 1047 l -14 0 l 379 0 l 414 135 l 700 135 l 732 0 z m 518 536 b 563 714 533 596 549 654 l 604 533 l 640 385 l 479 385 z "},"ǻ":{"ha":1010,"x_min":0,"x_max":0,"o":"m 792 1378 l 549 1549 l 339 1278 l 521 1178 z m 513 806 b 722 978 617 806 722 861 b 513 1153 722 1093 617 1153 b 303 978 408 1153 303 1093 b 513 806 303 861 408 806 z m 513 925 b 454 979 482 925 454 944 b 513 1033 454 1014 482 1033 b 571 979 543 1033 571 1014 b 513 925 571 944 543 925 z m 365 -17 b 590 97 467 -17 525 28 l 593 97 l 589 0 l 939 0 l 939 738 l 589 738 l 593 650 l 590 650 b 375 754 536 722 464 754 b 40 365 158 754 40 564 b 365 -17 40 167 156 -17 z m 496 264 b 396 368 435 264 396 306 b 496 474 396 432 435 474 b 599 368 557 474 599 432 b 496 264 599 306 557 264 z "},"Ǽ":{"ha":1440,"x_min":0,"x_max":0,"o":"m 964 1322 l 721 1493 l 511 1222 l 693 1122 z m 386 0 l 419 133 l 704 133 l 740 0 l 1454 0 l 1354 286 l 1040 286 l 1004 393 l 1314 393 l 1218 665 l 904 665 l 872 761 l 1185 761 l 1082 1047 l 351 1047 l -14 0 z m 536 576 b 556 697 546 617 551 654 l 567 697 b 586 576 569 663 572 628 l 640 379 l 485 379 z "},"ǽ":{"ha":1433,"x_min":0,"x_max":0,"o":"m 751 1161 l 542 890 l 724 790 l 994 990 z m 1392 342 b 960 754 1392 614 1203 754 b 719 678 868 754 785 726 b 479 753 663 728 582 753 b 143 686 340 753 238 728 l 221 501 b 411 542 278 525 344 542 b 546 442 494 542 546 517 l 546 431 b 354 469 501 454 440 469 b 38 226 169 469 38 385 b 354 -18 38 74 169 -18 b 665 96 510 -18 596 14 b 960 -17 736 21 840 -17 b 1375 243 1131 -17 1326 65 l 1031 243 b 954 182 1021 208 993 182 b 868 308 888 182 868 235 l 1390 308 b 1392 342 1392 319 1392 331 z m 869 461 b 954 557 872 514 900 557 b 1038 461 1008 557 1036 514 z m 456 160 b 363 240 403 160 363 190 b 456 319 363 290 403 319 b 549 240 507 319 549 290 b 456 160 549 190 507 160 z "},"Ǿ":{"ha":1256,"x_min":0,"x_max":0,"o":"m 615 1493 l 406 1222 l 588 1122 l 858 1322 z m 1133 1139 l 969 967 b 628 1064 874 1029 756 1064 b 49 521 310 1064 49 849 b 192 151 49 368 103 243 l 36 -11 l 122 -92 l 283 78 b 628 -17 379 17 499 -17 b 1207 521 946 -17 1207 185 b 1058 894 1207 674 1150 801 l 1219 1064 z m 432 521 b 628 728 432 635 507 728 b 721 706 663 728 694 719 l 453 425 b 432 521 439 453 432 485 z m 824 521 b 628 319 824 401 744 319 b 533 340 592 319 560 326 l 801 624 b 824 521 815 593 824 558 z "},"ǿ":{"ha":986,"x_min":0,"x_max":0,"o":"m 529 1161 l 319 890 l 501 790 l 772 990 z m 932 749 l 861 819 l 744 699 b 493 754 672 736 586 754 b 42 369 247 754 42 624 b 157 93 42 247 86 156 l 54 -14 l 125 -85 l 242 36 b 493 -17 314 0 401 -17 b 944 369 739 -17 944 106 b 829 642 944 488 900 578 z m 393 369 b 493 499 393 446 432 499 b 539 486 510 499 525 494 l 396 339 b 393 369 394 349 393 358 z m 493 239 b 449 250 476 239 463 243 l 592 397 b 593 369 593 388 593 379 b 493 239 593 293 554 239 z "},"Ș":{"ha":906,"x_min":0,"x_max":0,"o":"m 442 -17 b 871 340 697 -17 871 125 b 586 663 871 538 739 617 b 450 736 511 685 450 699 b 522 783 450 771 483 783 b 717 714 603 783 675 747 l 851 974 b 483 1064 751 1031 644 1064 b 69 710 243 1064 69 924 b 378 382 69 503 229 426 b 490 317 443 363 490 351 b 406 264 490 278 458 264 b 151 364 338 264 246 293 l 21 108 b 442 -17 121 35 254 -17 z m 614 -50 l 318 -50 l 213 -304 l 450 -304 z "},"ș":{"ha":769,"x_min":0,"x_max":0,"o":"m 364 -21 b 721 254 579 -21 721 81 b 489 469 721 403 617 447 b 396 507 424 481 396 486 b 451 535 396 526 415 535 b 608 479 504 535 568 513 l 693 697 b 418 756 631 732 532 756 b 74 492 239 756 74 683 b 310 275 74 349 182 296 b 382 240 360 267 382 260 b 331 213 382 222 368 213 b 135 293 264 213 197 242 l 28 76 b 364 -21 108 24 214 -21 z m 532 -50 l 236 -50 l 131 -304 l 368 -304 z "},"Ț":{"ha":836,"x_min":0,"x_max":0,"o":"m 608 0 l 608 711 l 818 711 l 818 1047 l 18 1047 l 18 711 l 228 711 l 228 0 z m 579 -50 l 283 -50 l 178 -304 l 415 -304 z "},"ț":{"ha":626,"x_min":0,"x_max":0,"o":"m 489 0 l 489 450 l 614 450 l 614 738 l 489 738 l 489 975 l 131 975 l 131 738 l 13 738 l 13 450 l 131 450 l 131 0 z m 475 -50 l 179 -50 l 74 -304 l 311 -304 z "},"ȷ":{"ha":497,"x_min":0,"x_max":0,"o":"m 428 -304 l 428 738 l 69 738 l 69 -304 z "},"ə":{"ha":960,"x_min":0,"x_max":0,"o":"m 474 754 b 58 494 303 754 107 672 l 403 494 b 479 556 413 529 440 556 b 565 429 546 556 565 503 l 43 429 b 42 396 42 418 42 407 b 488 -17 42 124 236 -17 b 918 375 722 -17 918 124 b 474 754 918 628 722 754 z m 479 181 b 396 276 425 181 397 224 l 564 276 b 479 181 561 224 533 181 z "},"ʼ":{"ha":514,"x_min":0,"x_max":0,"o":"m 486 1047 l 140 1047 l 69 793 l 335 793 z "},"ˆ":{"ha":579,"x_min":0,"x_max":0,"o":"m 290 875 l 514 790 l 608 957 l 290 1131 l -28 957 l 67 790 z "},"ˇ":{"ha":581,"x_min":0,"x_max":0,"o":"m 608 964 l 514 1131 l 290 1046 l 67 1131 l -28 964 l 290 790 z "},"ˉ":{"ha":604,"x_min":0,"x_max":0,"o":"m 549 847 l 549 1007 l 56 1007 l 56 847 z "},"˘":{"ha":579,"x_min":0,"x_max":0,"o":"m 289 808 b 593 1078 463 808 585 943 l 400 1078 b 289 994 383 1011 332 994 b 178 1078 246 994 194 1011 l -14 1078 b 289 808 -1 917 114 808 z "},"˙":{"ha":511,"x_min":0,"x_max":0,"o":"m 256 810 b 453 983 358 810 453 863 b 256 1156 453 1090 368 1156 b 58 983 143 1156 58 1090 b 256 810 58 863 153 810 z "},"˚":{"ha":483,"x_min":0,"x_max":0,"o":"m 242 792 b 451 964 346 792 451 847 b 242 1139 451 1079 346 1139 b 32 964 138 1139 32 1079 b 242 792 32 847 138 792 z m 242 906 b 178 965 208 906 178 928 b 242 1025 178 1003 208 1025 b 306 965 275 1025 306 1003 b 242 906 306 928 275 906 z "},"˛":{"ha":583,"x_min":0,"x_max":0,"o":"m 304 -304 b 463 -264 371 -304 419 -289 l 415 -133 b 347 -149 397 -142 374 -149 b 296 -103 314 -149 296 -128 b 433 17 296 -72 314 -37 l 322 40 b 108 -151 158 -11 108 -82 b 304 -304 108 -251 206 -304 z "},"˜":{"ha":628,"x_min":0,"x_max":0,"o":"m 428 811 b 653 1013 538 811 608 919 l 500 1096 b 418 1018 485 1064 464 1018 b 211 1108 354 1018 299 1108 b -25 921 106 1108 24 1014 l 117 824 b 199 901 132 856 156 901 b 428 811 249 901 351 811 z "},"˝":{"ha":593,"x_min":0,"x_max":0,"o":"m 317 1064 l 50 1103 l -49 824 l 153 789 z m 656 1064 l 389 1103 l 276 824 l 478 789 z "},"̀":{"ha":0,"x_min":0,"x_max":0,"o":"m 0 890 l -210 1161 l -453 990 l -182 790 z "},"́":{"ha":0,"x_min":0,"x_max":0,"o":"m 42 990 l -201 1161 l -411 890 l -229 790 z "},"̂":{"ha":0,"x_min":0,"x_max":0,"o":"m -289 875 l -65 790 l 29 957 l -289 1131 l -607 957 l -512 790 z "},"̃":{"ha":0,"x_min":0,"x_max":0,"o":"m -200 811 b 25 1013 -90 811 -19 919 l -128 1096 b -210 1018 -143 1064 -164 1018 b -417 1108 -274 1018 -329 1108 b -653 921 -522 1108 -604 1014 l -511 824 b -429 901 -496 856 -472 901 b -200 811 -379 901 -276 811 z "},"̄":{"ha":0,"x_min":0,"x_max":0,"o":"m -35 847 l -35 1049 l -569 1049 l -569 847 z "},"̆":{"ha":0,"x_min":0,"x_max":0,"o":"m -290 808 b 14 1078 -117 808 6 943 l -179 1078 b -290 994 -196 1011 -247 994 b -401 1078 -333 994 -385 1011 l -593 1078 b -290 808 -581 917 -465 808 z "},"̇":{"ha":0,"x_min":0,"x_max":0,"o":"m -256 810 b -58 983 -153 810 -58 863 b -256 1156 -58 1090 -143 1156 b -453 983 -368 1156 -453 1090 b -256 810 -453 863 -358 810 z "},"̈":{"ha":0,"x_min":0,"x_max":0,"o":"m -511 806 b -372 944 -433 806 -372 867 b -511 1085 -372 1024 -433 1085 b -651 944 -590 1085 -651 1024 b -511 806 -651 867 -590 806 z m -140 806 b -1 944 -61 806 -1 867 b -140 1085 -1 1024 -61 1085 b -281 944 -219 1085 -281 1024 b -140 806 -281 867 -219 806 z "},"̊":{"ha":0,"x_min":0,"x_max":0,"o":"m -242 806 b -32 978 -137 806 -32 861 b -242 1153 -32 1093 -137 1153 b -451 978 -346 1153 -451 1093 b -242 806 -451 861 -346 806 z m -242 925 b -300 979 -272 925 -300 944 b -242 1033 -300 1014 -272 1033 b -183 979 -211 1033 -183 1014 b -242 925 -183 944 -211 925 z "},"̋":{"ha":0,"x_min":0,"x_max":0,"o":"m -276 1064 l -543 1103 l -642 824 l -440 789 z m 63 1064 l -204 1103 l -317 824 l -115 789 z "},"̌":{"ha":0,"x_min":0,"x_max":0,"o":"m 28 964 l -67 1131 l -290 1046 l -514 1131 l -608 964 l -290 790 z "},"̒":{"ha":0,"x_min":0,"x_max":0,"o":"m -42 1131 l -279 1131 l -429 835 l -161 835 z "},"̓":{"ha":0,"x_min":0,"x_max":0,"o":"m -87 1047 l -447 1047 l -615 529 l -336 529 z "},"̣":{"ha":0,"x_min":0,"x_max":0,"o":"m -257 -440 b -60 -267 -154 -440 -60 -387 b -257 -94 -60 -160 -144 -94 b -454 -267 -369 -94 -454 -160 b -257 -440 -454 -387 -360 -440 z "},"̤":{"ha":0,"x_min":0,"x_max":0,"o":"m -497 -371 b -371 -244 -426 -371 -371 -315 b -497 -117 -371 -172 -426 -117 b -625 -244 -569 -117 -625 -172 b -497 -371 -625 -315 -569 -371 z m -154 -371 b -28 -244 -82 -371 -28 -315 b -154 -117 -28 -172 -82 -117 b -282 -244 -226 -117 -282 -172 b -154 -371 -282 -315 -226 -371 z "},"̥":{"ha":0,"x_min":0,"x_max":0,"o":"m -242 -458 b -32 -286 -137 -458 -32 -403 b -242 -111 -32 -171 -137 -111 b -451 -286 -346 -111 -451 -171 b -242 -458 -451 -403 -346 -458 z m -242 -344 b -306 -285 -275 -344 -306 -322 b -242 -225 -306 -247 -275 -225 b -178 -285 -208 -225 -178 -247 b -242 -344 -178 -322 -208 -344 z "},"̦":{"ha":0,"x_min":0,"x_max":0,"o":"m -72 -50 l -368 -50 l -474 -304 l -236 -304 z "},"̧":{"ha":0,"x_min":0,"x_max":0,"o":"m -47 -135 l -222 -7 l -399 -240 l -267 -324 z "},"̨":{"ha":0,"x_min":0,"x_max":0,"o":"m -303 -304 b -114 -264 -228 -304 -168 -289 l -161 -106 b -229 -121 -179 -114 -203 -121 b -281 -82 -262 -121 -281 -103 b -157 17 -281 -57 -260 -25 l -268 40 b -510 -151 -449 13 -510 -75 b -303 -304 -510 -251 -410 -304 z "},"̮":{"ha":0,"x_min":0,"x_max":0,"o":"m -290 -372 b 14 -103 -117 -372 6 -237 l -179 -103 b -290 -186 -196 -169 -247 -186 b -401 -103 -333 -186 -385 -169 l -593 -103 b -290 -372 -581 -264 -465 -372 z "},"̱":{"ha":0,"x_min":0,"x_max":0,"o":"m -28 -347 l -28 -146 l -576 -146 l -576 -347 z "},"̵":{"ha":0,"x_min":0,"x_max":0,"o":"m -500 381 l -500 333 l -42 333 l -42 381 z "},"̶":{"ha":0,"x_min":0,"x_max":0,"o":"m -653 381 l -653 333 l -42 333 l -42 381 z "},"ʹ":{"ha":578,"x_min":0,"x_max":0,"o":"m 557 1047 l 197 1047 l 29 529 l 308 529 z "},"͵":{"ha":578,"x_min":0,"x_max":0,"o":"m 533 300 l 174 300 l 6 -218 l 285 -218 z "},";":{"ha":578,"x_min":0,"x_max":0,"o":"m 319 406 b 526 578 421 406 526 468 b 319 754 526 689 421 754 b 113 578 218 754 113 689 b 319 406 113 468 218 406 z m 533 300 l 174 300 l 6 -218 l 285 -218 z "},"΄":{"ha":583,"x_min":0,"x_max":0,"o":"m 333 813 l 492 1092 l 203 1092 l 114 813 z "},"΅":{"ha":861,"x_min":0,"x_max":0,"o":"m 457 804 l 581 1139 l 381 1139 l 342 804 z m 206 808 b 324 926 271 808 324 853 b 206 1044 324 1000 271 1044 b 88 926 142 1044 88 1000 b 206 808 88 853 142 808 z m 657 808 b 775 926 722 808 775 853 b 657 1044 775 1000 722 1044 b 539 926 593 1044 539 1000 b 657 808 539 853 593 808 z "},"Ά":{"ha":1131,"x_min":0,"x_max":0,"o":"m -15 1047 l -104 754 l 115 754 l 274 1047 z m 1144 0 l 771 1047 l 350 1047 l -14 0 l 379 0 l 414 135 l 700 135 l 732 0 z m 518 536 b 563 714 533 596 549 654 l 604 533 l 640 385 l 479 385 z "},"·":{"ha":578,"x_min":0,"x_max":0,"o":"m 289 406 b 496 578 390 406 496 468 b 289 754 496 689 390 754 b 82 578 188 754 82 689 b 289 406 82 468 188 406 z "},"Έ":{"ha":854,"x_min":0,"x_max":0,"o":"m -93 754 l 65 1047 l -224 1047 l -312 754 z m 792 0 l 792 286 l 443 286 l 443 393 l 753 393 l 753 665 l 443 665 l 443 761 l 781 761 l 781 1047 l 76 1047 l 76 0 z "},"Ή":{"ha":1119,"x_min":0,"x_max":0,"o":"m -93 754 l 65 1047 l -224 1047 l -312 754 z m 443 0 l 443 364 l 676 364 l 676 0 l 1043 0 l 1043 1047 l 676 1047 l 676 694 l 443 694 l 443 1047 l 76 1047 l 76 0 z "},"Ί":{"ha":519,"x_min":0,"x_max":0,"o":"m -93 754 l 65 1047 l -224 1047 l -312 754 z m 443 0 l 443 1047 l 76 1047 l 76 0 z "},"Ό":{"ha":1256,"x_min":0,"x_max":0,"o":"m 628 -17 b 1207 521 946 -17 1207 185 b 628 1064 1207 849 946 1064 b 49 521 310 1064 49 849 b 628 -17 49 185 310 -17 z m 4 754 l 163 1047 l -126 1047 l -215 754 z m 628 319 b 432 521 511 319 432 401 b 628 728 432 635 507 728 b 824 521 749 728 824 635 b 628 319 824 401 744 319 z "},"Ύ":{"ha":1068,"x_min":0,"x_max":0,"o":"m 540 774 l 417 1047 l -293 1047 l -382 754 l -162 754 l -8 1039 l 351 451 l 351 0 l 724 0 l 724 451 l 1082 1047 l 654 1047 z "},"Ώ":{"ha":1289,"x_min":0,"x_max":0,"o":"m 1072 286 b 1208 579 1153 356 1208 453 b 644 1065 1208 854 974 1065 b 81 579 315 1065 81 854 b 217 286 81 453 136 356 l 64 286 l 64 0 l 585 0 l 585 282 b 463 526 503 351 463 417 b 644 729 463 654 549 729 b 826 526 740 729 826 654 b 704 282 826 417 785 351 l 704 0 l 1225 0 l 1225 286 z m -200 754 l 19 754 l 178 1047 l -111 1047 z "},"ΐ":{"ha":535,"x_min":0,"x_max":0,"o":"m 289 804 l 413 1139 l 213 1139 l 174 804 z m 38 808 b 156 926 103 808 156 853 b 38 1044 156 1000 103 1044 b -81 926 -26 1044 -81 1000 b 38 808 -81 853 -26 808 z m 489 808 b 607 926 554 808 607 853 b 489 1044 607 1000 554 1044 b 371 926 425 1044 371 1000 b 489 808 371 853 425 808 z m 326 -17 b 522 32 414 -17 478 0 l 522 244 b 468 225 507 233 490 225 b 428 278 442 225 428 240 l 428 738 l 69 738 l 69 206 b 326 -17 69 49 164 -17 z "},"Α":{"ha":1131,"x_min":0,"x_max":0,"o":"m 1144 0 l 771 1047 l 350 1047 l -14 0 l 379 0 l 414 135 l 700 135 l 732 0 z m 518 536 b 563 714 533 596 549 654 l 604 533 l 640 385 l 479 385 z "},"Β":{"ha":1022,"x_min":0,"x_max":0,"o":"m 594 0 b 978 289 749 0 978 56 b 771 551 978 417 904 507 l 771 553 b 901 776 842 585 901 669 b 497 1047 901 986 710 1047 l 76 1047 l 76 0 z m 429 794 l 449 794 b 561 721 531 794 561 774 b 443 644 561 661 508 644 l 429 644 z m 429 424 l 479 424 b 625 336 551 424 625 418 b 472 250 625 251 539 250 l 429 250 z "},"Γ":{"ha":781,"x_min":0,"x_max":0,"o":"m 443 0 l 443 714 l 763 714 l 763 1047 l 76 1047 l 76 0 z "},"Δ":{"ha":1143,"x_min":0,"x_max":0,"o":"m 1150 0 l 776 1047 l 356 1047 l -8 0 z m 542 614 b 572 733 553 651 563 686 b 603 614 582 686 593 647 l 704 250 l 438 250 z "},"Ε":{"ha":854,"x_min":0,"x_max":0,"o":"m 792 0 l 792 286 l 443 286 l 443 393 l 753 393 l 753 665 l 443 665 l 443 761 l 781 761 l 781 1047 l 76 1047 l 76 0 z "},"Ζ":{"ha":1054,"x_min":0,"x_max":0,"o":"m 1006 0 l 1006 324 l 596 324 l 1051 1044 l 1051 1047 l 76 1047 l 76 731 l 451 731 l -14 4 l -14 0 z "},"Η":{"ha":1119,"x_min":0,"x_max":0,"o":"m 443 0 l 443 364 l 676 364 l 676 0 l 1043 0 l 1043 1047 l 676 1047 l 676 694 l 443 694 l 443 1047 l 76 1047 l 76 0 z "},"Θ":{"ha":1256,"x_min":0,"x_max":0,"o":"m 628 -17 b 1207 521 946 -17 1207 185 b 628 1064 1207 849 946 1064 b 49 521 310 1064 49 849 b 628 -17 49 185 310 -17 z m 628 314 b 432 515 511 314 432 394 b 628 719 432 626 507 719 b 824 515 749 719 824 626 b 628 314 824 394 744 314 z m 769 415 l 769 626 l 486 626 l 486 415 z "},"Ι":{"ha":519,"x_min":0,"x_max":0,"o":"m 443 0 l 443 1047 l 76 1047 l 76 0 z "},"Κ":{"ha":1119,"x_min":0,"x_max":0,"o":"m 1133 0 l 779 528 l 1099 1047 l 683 1047 l 439 593 l 447 1047 l 76 1047 l 76 0 l 447 0 l 439 463 l 692 0 z "},"Λ":{"ha":1131,"x_min":0,"x_max":0,"o":"m 389 0 l 565 699 l 742 0 l 1144 0 l 776 1047 l 354 1047 l -14 0 z "},"Μ":{"ha":1461,"x_min":0,"x_max":0,"o":"m 828 0 l 1004 563 l 1063 0 l 1440 0 l 1268 1047 l 881 1047 l 732 511 l 582 1047 l 190 1047 l 21 0 l 379 0 l 446 563 l 606 0 z "},"Ν":{"ha":1203,"x_min":0,"x_max":0,"o":"m 783 478 l 442 1047 l 76 1047 l 76 0 l 440 0 l 428 551 l 763 0 l 1126 0 l 1126 1047 l 763 1047 z "},"Ξ":{"ha":958,"x_min":0,"x_max":0,"o":"m 882 761 l 882 1047 l 76 1047 l 76 761 z m 811 404 l 811 654 l 147 654 l 147 404 z m 896 0 l 896 286 l 63 286 l 63 0 z "},"Ο":{"ha":1256,"x_min":0,"x_max":0,"o":"m 628 -17 b 1207 521 946 -17 1207 185 b 628 1064 1207 849 946 1064 b 49 521 310 1064 49 849 b 628 -17 49 185 310 -17 z m 628 319 b 432 521 511 319 432 401 b 628 728 432 635 507 728 b 824 521 749 728 824 635 b 628 319 824 401 744 319 z "},"Π":{"ha":1092,"x_min":0,"x_max":0,"o":"m 451 0 l 451 717 l 640 717 l 640 0 l 1015 0 l 1015 1047 l 76 1047 l 76 0 z "},"Ρ":{"ha":1013,"x_min":0,"x_max":0,"o":"m 443 0 l 443 301 l 558 301 b 983 678 800 301 983 425 b 558 1047 983 921 800 1047 l 76 1047 l 76 0 z m 443 761 l 493 761 b 617 675 556 761 617 749 b 494 579 617 599 561 579 l 443 579 z "},"Σ":{"ha":940,"x_min":0,"x_max":0,"o":"m 883 0 l 883 286 l 531 286 l 681 525 l 532 761 l 885 761 l 885 1047 l -12 1047 l 317 525 l -14 0 z "},"Τ":{"ha":836,"x_min":0,"x_max":0,"o":"m 608 0 l 608 711 l 818 711 l 818 1047 l 18 1047 l 18 711 l 228 711 l 228 0 z "},"Υ":{"ha":1068,"x_min":0,"x_max":0,"o":"m 724 0 l 724 451 l 1082 1047 l 654 1047 l 540 774 l 417 1047 l -14 1047 l 351 451 l 351 0 z "},"Φ":{"ha":1417,"x_min":0,"x_max":0,"o":"m 1372 529 b 883 981 1372 790 1186 942 l 883 1072 l 533 1072 l 533 981 b 44 535 229 939 44 788 b 533 79 44 268 235 119 l 533 -19 l 883 -19 l 883 81 b 1372 529 1186 122 1372 274 z m 863 707 b 1014 531 960 676 1014 614 b 863 354 1014 447 960 385 z m 403 532 b 554 707 403 614 458 676 l 554 354 b 403 532 460 385 403 446 z "},"Χ":{"ha":1154,"x_min":0,"x_max":0,"o":"m 428 0 l 578 286 l 726 0 l 1160 0 l 786 557 l 1114 1047 l 685 1047 l 575 813 l 461 1047 l 32 1047 l 361 557 l -6 0 z "},"Ψ":{"ha":1433,"x_min":0,"x_max":0,"o":"m 881 0 l 881 178 b 1364 640 1139 188 1364 306 l 1364 1047 l 1039 1047 l 1039 669 b 881 467 1039 524 989 471 l 881 1047 l 553 1047 l 553 467 b 394 669 444 471 394 524 l 394 1047 l 69 1047 l 69 640 b 553 178 69 306 294 188 l 553 0 z "},"Ω":{"ha":1289,"x_min":0,"x_max":0,"o":"m 1072 286 b 1208 579 1153 356 1208 453 b 644 1065 1208 854 974 1065 b 81 579 315 1065 81 854 b 217 286 81 453 136 356 l 64 286 l 64 0 l 585 0 l 585 282 b 463 526 503 351 463 417 b 644 729 463 654 549 729 b 826 526 740 729 826 654 b 704 282 826 417 785 351 l 704 0 l 1225 0 l 1225 286 z "},"Ϊ":{"ha":519,"x_min":0,"x_max":0,"o":"m 68 1150 b 221 1303 154 1150 221 1217 b 68 1457 221 1390 154 1457 b -86 1303 -19 1457 -86 1390 b 68 1150 -86 1217 -19 1150 z m 453 1150 b 606 1303 540 1150 606 1217 b 453 1457 606 1390 540 1457 b 299 1303 365 1457 299 1390 b 453 1150 299 1217 365 1150 z m 443 0 l 443 1047 l 76 1047 l 76 0 z "},"Ϋ":{"ha":1068,"x_min":0,"x_max":0,"o":"m 343 1150 b 496 1303 429 1150 496 1217 b 343 1457 496 1390 429 1457 b 189 1303 256 1457 189 1390 b 343 1150 189 1217 256 1150 z m 728 1150 b 881 1303 815 1150 881 1217 b 728 1457 881 1390 815 1457 b 574 1303 640 1457 574 1390 b 728 1150 574 1217 640 1150 z m 724 0 l 724 451 l 1082 1047 l 654 1047 l 540 774 l 417 1047 l -14 1047 l 351 451 l 351 0 z "},"ά":{"ha":1010,"x_min":0,"x_max":0,"o":"m 601 813 l 760 1092 l 471 1092 l 382 813 z m 365 -17 b 590 97 467 -17 525 28 l 593 97 l 589 0 l 939 0 l 939 738 l 589 738 l 593 650 l 590 650 b 375 754 536 722 464 754 b 40 365 158 754 40 564 b 365 -17 40 167 156 -17 z m 496 264 b 396 368 435 264 396 306 b 496 474 396 432 435 474 b 599 368 557 474 599 432 b 496 264 599 306 557 264 z "},"έ":{"ha":764,"x_min":0,"x_max":0,"o":"m 381 1092 l 292 813 l 511 813 l 669 1092 z m 497 206 b 392 250 417 206 392 221 b 486 290 392 276 415 290 l 606 290 l 606 463 l 514 463 b 418 501 450 463 418 476 b 510 536 418 525 447 536 b 694 497 563 536 654 518 l 694 719 b 424 754 615 743 533 754 b 72 542 208 754 72 675 b 178 388 72 469 115 419 b 42 211 115 360 42 307 b 415 -17 42 69 167 -17 b 718 28 542 -17 644 3 l 718 276 b 497 206 682 244 593 206 z "},"ή":{"ha":974,"x_min":0,"x_max":0,"o":"m 586 813 l 744 1092 l 456 1092 l 367 813 z m 907 -282 l 907 454 b 651 754 907 615 835 754 b 414 619 536 754 479 701 l 411 619 l 419 738 l 69 738 l 69 0 l 428 0 l 428 353 b 493 464 428 413 435 464 b 549 360 547 464 549 413 l 549 -282 z "},"ί":{"ha":535,"x_min":0,"x_max":0,"o":"m 361 813 l 519 1092 l 231 1092 l 142 813 z m 326 -17 b 522 32 414 -17 478 0 l 522 244 b 468 225 507 233 490 225 b 428 278 442 225 428 240 l 428 738 l 69 738 l 69 206 b 326 -17 69 49 164 -17 z "},"ΰ":{"ha":967,"x_min":0,"x_max":0,"o":"m 508 804 l 632 1139 l 432 1139 l 393 804 z m 257 808 b 375 926 322 808 375 853 b 257 1044 375 1000 322 1044 b 139 926 193 1044 139 1000 b 257 808 139 853 193 808 z m 708 808 b 826 926 774 808 826 853 b 708 1044 826 1000 774 1044 b 590 926 644 1044 590 1000 b 708 808 590 853 644 808 z m 483 -17 b 900 321 726 -17 900 88 l 900 738 l 544 738 l 544 357 b 483 268 544 313 542 268 b 422 357 425 268 422 313 l 422 738 l 67 738 l 67 321 b 483 -17 67 88 240 -17 z "},"α":{"ha":1010,"x_min":0,"x_max":0,"o":"m 365 -17 b 590 97 467 -17 525 28 l 593 97 l 589 0 l 939 0 l 939 738 l 589 738 l 593 650 l 590 650 b 375 754 536 722 464 754 b 40 365 158 754 40 564 b 365 -17 40 167 156 -17 z m 496 264 b 396 368 435 264 396 306 b 496 474 396 432 435 474 b 599 368 557 474 599 432 b 496 264 599 306 557 264 z "},"β":{"ha":1050,"x_min":0,"x_max":0,"o":"m 428 -282 l 428 68 l 431 68 b 678 -17 490 15 557 -17 b 1008 310 857 -17 1008 110 b 774 594 1008 464 924 563 l 774 597 b 974 832 913 625 974 731 b 557 1138 974 1018 828 1138 b 69 753 250 1138 69 1024 l 69 -282 z m 549 231 b 428 365 475 231 428 282 l 428 757 b 538 893 428 850 472 893 b 642 799 604 893 642 850 b 508 692 642 729 590 692 l 468 692 l 468 478 l 510 478 b 660 342 589 478 660 436 b 549 231 660 282 615 231 z "},"γ":{"ha":953,"x_min":0,"x_max":0,"o":"m 656 -282 l 644 10 l 961 738 l 576 738 l 478 389 l 376 738 l -8 738 l 308 15 l 297 -282 z "},"δ":{"ha":986,"x_min":0,"x_max":0,"o":"m 644 857 l 922 850 l 922 1126 l 118 1126 l 118 999 l 342 774 l 385 731 b 42 364 181 699 42 557 b 494 -17 42 136 225 -17 b 944 364 764 -17 944 143 b 654 846 944 553 828 667 z m 493 264 b 389 369 433 264 389 303 b 493 474 389 433 433 474 b 597 369 553 474 597 435 b 493 264 597 303 553 264 z "},"ε":{"ha":764,"x_min":0,"x_max":0,"o":"m 497 206 b 392 250 417 206 392 221 b 486 290 392 276 415 290 l 606 290 l 606 463 l 514 463 b 418 501 450 463 418 476 b 510 536 418 525 447 536 b 694 497 563 536 654 518 l 694 719 b 424 754 615 743 533 754 b 72 542 208 754 72 675 b 178 388 72 469 115 419 b 42 211 115 360 42 307 b 415 -17 42 69 167 -17 b 718 28 542 -17 644 3 l 718 276 b 497 206 682 244 593 206 z "},"ζ":{"ha":810,"x_min":0,"x_max":0,"o":"m 810 1126 l 86 1126 l 86 850 l 324 856 l 271 799 b 42 347 119 635 42 524 b 289 11 42 153 174 74 b 463 -164 390 -43 463 -97 b 410 -310 463 -208 451 -236 l 711 -310 b 769 -75 747 -249 769 -167 b 582 207 769 81 676 151 b 393 403 488 264 393 306 b 551 704 393 504 439 575 l 810 1001 z "},"η":{"ha":974,"x_min":0,"x_max":0,"o":"m 907 -282 l 907 454 b 651 754 907 615 835 754 b 414 619 536 754 479 701 l 411 619 l 419 738 l 69 738 l 69 0 l 428 0 l 428 353 b 493 464 428 413 435 464 b 549 360 547 464 549 413 l 549 -282 z "},"θ":{"ha":1000,"x_min":0,"x_max":0,"o":"m 499 1140 b 46 558 219 1140 46 969 b 499 -17 46 150 219 -17 b 954 558 781 -17 954 150 b 499 1140 954 969 781 1140 z m 500 864 b 603 678 556 864 592 821 l 397 678 b 500 864 408 821 443 864 z m 500 260 b 396 456 440 260 406 303 l 604 456 b 500 260 594 303 558 260 z "},"ι":{"ha":535,"x_min":0,"x_max":0,"o":"m 326 -17 b 522 32 414 -17 478 0 l 522 244 b 468 225 507 233 490 225 b 428 278 442 225 428 240 l 428 738 l 69 738 l 69 206 b 326 -17 69 49 164 -17 z "},"κ":{"ha":1010,"x_min":0,"x_max":0,"o":"m 724 376 l 994 738 l 586 738 l 428 464 l 428 738 l 69 738 l 69 0 l 428 0 l 428 260 l 438 264 l 586 0 l 1008 0 z "},"λ":{"ha":961,"x_min":0,"x_max":0,"o":"m 519 1126 l 129 1126 l 311 696 l -8 0 l 378 0 l 486 353 l 597 0 l 969 0 z "},"μ":{"ha":978,"x_min":0,"x_max":0,"o":"m 400 -304 l 406 43 l 408 43 b 486 -8 426 6 457 -8 b 563 46 522 -8 546 11 l 565 46 l 578 0 l 908 0 l 908 738 l 550 738 l 550 335 b 490 264 550 288 522 264 b 428 335 457 264 428 288 l 428 738 l 69 738 l 69 -304 z "},"ν":{"ha":953,"x_min":0,"x_max":0,"o":"m 640 0 l 961 738 l 576 738 l 478 389 l 376 738 l -8 738 l 315 0 z "},"ξ":{"ha":781,"x_min":0,"x_max":0,"o":"m 700 -282 b 754 -69 729 -232 754 -160 b 585 213 754 82 688 164 b 407 356 485 261 407 286 b 608 456 407 426 492 456 l 715 456 l 715 692 l 625 692 b 436 781 510 692 436 728 b 576 878 436 840 492 878 b 767 839 649 878 717 861 l 767 1114 b 528 1140 693 1131 614 1140 b 99 846 264 1140 99 1032 b 338 590 99 710 201 621 l 338 586 b 42 315 157 560 42 461 b 281 19 42 153 164 78 b 447 -154 369 -25 447 -74 b 396 -282 447 -197 424 -242 z "},"ο":{"ha":986,"x_min":0,"x_max":0,"o":"m 493 -17 b 944 369 739 -17 944 106 b 493 754 944 624 739 754 b 42 369 247 754 42 624 b 493 -17 42 106 247 -17 z m 493 267 b 393 369 432 267 393 310 b 493 471 393 429 432 471 b 593 369 554 471 593 429 b 493 267 593 310 554 267 z "},"π":{"ha":982,"x_min":0,"x_max":0,"o":"m 761 -17 b 957 32 849 -17 913 0 l 957 244 b 903 225 942 233 925 225 b 863 278 876 225 863 240 l 863 458 l 969 458 l 969 738 l 13 738 l 13 457 l 117 457 l 117 0 l 436 0 l 436 460 l 542 460 l 542 206 b 761 -17 542 49 625 -17 z "},"ρ":{"ha":1001,"x_min":0,"x_max":0,"o":"m 507 754 b 67 342 219 754 67 593 l 67 -282 l 425 -282 l 425 40 b 607 -14 465 6 522 -14 b 960 369 829 -14 960 146 b 507 754 960 593 790 754 z m 508 267 b 404 369 447 267 404 304 b 508 474 404 436 447 474 b 613 369 568 474 613 436 b 508 267 613 304 568 267 z "},"ς":{"ha":761,"x_min":0,"x_max":0,"o":"m 701 -282 b 756 -62 728 -226 756 -156 b 560 181 756 38 693 117 b 389 346 426 244 389 282 b 544 472 389 418 449 472 b 717 432 603 472 644 465 l 717 717 b 482 754 656 742 571 754 b 42 353 214 754 42 592 b 264 -15 42 186 89 63 b 446 -164 413 -82 446 -114 b 397 -282 446 -199 429 -229 z "},"σ":{"ha":1044,"x_min":0,"x_max":0,"o":"m 493 -17 b 940 335 756 -17 940 135 b 914 453 940 382 932 417 l 914 457 l 1032 457 l 1032 738 l 488 738 b 42 360 210 738 42 592 b 493 -17 42 128 231 -17 z m 493 264 b 389 364 429 264 389 308 b 499 457 389 419 435 457 l 572 457 b 597 371 589 432 597 404 b 493 264 597 308 556 264 z "},"τ":{"ha":711,"x_min":0,"x_max":0,"o":"m 424 -17 b 647 24 529 -17 599 0 l 647 243 b 578 225 626 233 606 225 b 525 292 549 225 525 242 l 525 457 l 699 457 l 699 738 l 13 738 l 13 457 l 167 457 l 167 233 b 424 -17 167 50 260 -17 z "},"υ":{"ha":967,"x_min":0,"x_max":0,"o":"m 483 -17 b 900 321 726 -17 900 88 l 900 738 l 544 738 l 544 357 b 483 268 544 313 542 268 b 422 357 425 268 422 313 l 422 738 l 67 738 l 67 321 b 483 -17 67 88 240 -17 z "},"φ":{"ha":1301,"x_min":0,"x_max":0,"o":"m 810 -282 l 810 -8 b 1260 382 1093 25 1260 150 b 811 738 1260 646 1044 738 l 493 738 l 493 225 b 369 376 396 250 369 306 b 447 508 369 433 394 482 l 424 753 b 46 367 183 715 46 576 b 493 -10 46 131 208 18 l 493 -282 z m 810 521 l 818 521 b 936 379 872 521 936 488 b 810 225 936 306 910 250 z "},"χ":{"ha":976,"x_min":0,"x_max":0,"o":"m 685 256 l 956 738 l 576 738 l 488 486 l 404 738 l 25 738 l 281 256 l 0 -282 l 382 -282 l 483 24 l 593 -282 l 975 -282 z "},"ψ":{"ha":1297,"x_min":0,"x_max":0,"o":"m 911 454 b 807 242 911 336 888 271 l 807 1022 l 490 1022 l 490 243 b 386 454 413 274 386 338 l 386 738 l 67 738 l 67 414 b 490 -14 67 172 183 22 l 490 -282 l 807 -282 l 807 -14 b 1231 414 1121 21 1231 171 l 1231 738 l 911 738 z "},"ω":{"ha":1244,"x_min":0,"x_max":0,"o":"m 754 518 b 871 353 833 479 871 424 b 815 251 871 285 847 251 b 754 360 775 251 754 293 l 754 467 l 490 467 l 490 360 b 429 251 490 293 468 251 b 374 353 396 251 374 285 b 489 518 374 424 410 479 l 379 757 b 42 332 157 690 42 540 b 351 -17 42 82 197 -17 b 622 138 489 -17 581 46 b 893 -17 658 46 756 -17 b 1203 332 1047 -17 1203 82 b 864 757 1203 540 1085 690 z "},"ϊ":{"ha":535,"x_min":0,"x_max":0,"o":"m 79 806 b 218 944 157 806 218 867 b 79 1085 218 1024 157 1085 b -61 944 0 1085 -61 1024 b 79 806 -61 867 0 806 z m 450 806 b 589 944 529 806 589 867 b 450 1085 589 1024 529 1085 b 310 944 371 1085 310 1024 b 450 806 310 867 371 806 z m 326 -17 b 522 32 414 -17 478 0 l 522 244 b 468 225 507 233 490 225 b 428 278 442 225 428 240 l 428 738 l 69 738 l 69 206 b 326 -17 69 49 164 -17 z "},"ϋ":{"ha":967,"x_min":0,"x_max":0,"o":"m 299 806 b 438 944 376 806 438 867 b 299 1085 438 1024 376 1085 b 158 944 219 1085 158 1024 b 299 806 158 867 219 806 z m 669 806 b 808 944 749 806 808 867 b 669 1085 808 1024 749 1085 b 529 944 590 1085 529 1024 b 669 806 529 867 590 806 z m 483 -17 b 900 321 726 -17 900 88 l 900 738 l 544 738 l 544 357 b 483 268 544 313 542 268 b 422 357 425 268 422 313 l 422 738 l 67 738 l 67 321 b 483 -17 67 88 240 -17 z "},"ό":{"ha":986,"x_min":0,"x_max":0,"o":"m 590 813 l 749 1092 l 460 1092 l 371 813 z m 493 -17 b 944 369 739 -17 944 106 b 493 754 944 624 739 754 b 42 369 247 754 42 624 b 493 -17 42 106 247 -17 z m 493 267 b 393 369 432 267 393 310 b 493 471 393 429 432 471 b 593 369 554 471 593 429 b 493 267 593 310 554 267 z "},"ύ":{"ha":967,"x_min":0,"x_max":0,"o":"m 581 813 l 739 1092 l 450 1092 l 361 813 z m 483 -17 b 900 321 726 -17 900 88 l 900 738 l 544 738 l 544 357 b 483 268 544 313 542 268 b 422 357 425 268 422 313 l 422 738 l 67 738 l 67 321 b 483 -17 67 88 240 -17 z "},"ώ":{"ha":1244,"x_min":0,"x_max":0,"o":"m 589 1092 l 500 813 l 719 813 l 878 1092 z m 754 518 b 871 353 833 479 871 424 b 815 251 871 285 847 251 b 754 360 775 251 754 293 l 754 467 l 490 467 l 490 360 b 429 251 490 293 468 251 b 374 353 396 251 374 285 b 489 518 374 424 410 479 l 379 757 b 42 332 157 690 42 540 b 351 -17 42 82 197 -17 b 622 138 489 -17 581 46 b 893 -17 658 46 756 -17 b 1203 332 1047 -17 1203 82 b 864 757 1203 540 1085 690 z "},"Ѐ":{"ha":854,"x_min":0,"x_max":0,"o":"m 611 1222 l 401 1493 l 158 1322 l 429 1122 z m 792 0 l 792 286 l 443 286 l 443 393 l 753 393 l 753 665 l 443 665 l 443 761 l 781 761 l 781 1047 l 76 1047 l 76 0 z "},"Ё":{"ha":854,"x_min":0,"x_max":0,"o":"m 238 1150 b 390 1303 324 1150 390 1217 b 238 1457 390 1390 324 1457 b 83 1303 150 1457 83 1390 b 238 1150 83 1217 150 1150 z m 622 1150 b 775 1303 710 1150 775 1217 b 622 1457 775 1390 710 1457 b 468 1303 535 1457 468 1390 b 622 1150 468 1217 535 1150 z m 792 0 l 792 286 l 443 286 l 443 393 l 753 393 l 753 665 l 443 665 l 443 761 l 781 761 l 781 1047 l 76 1047 l 76 0 z "},"Ђ":{"ha":1157,"x_min":0,"x_max":0,"o":"m 738 -4 b 1128 319 983 -4 1128 96 b 758 629 1128 519 997 629 b 575 618 690 629 622 624 l 575 750 l 818 750 l 818 1047 l 18 1047 l 18 750 l 208 750 l 208 0 l 575 0 l 575 329 b 658 335 592 332 621 335 b 761 268 738 335 761 306 b 676 203 761 235 743 203 b 656 204 671 203 664 203 l 656 0 b 738 -4 682 -3 710 -4 z "},"Ѓ":{"ha":781,"x_min":0,"x_max":0,"o":"m 671 1322 l 428 1493 l 218 1222 l 400 1122 z m 443 0 l 443 714 l 763 714 l 763 1047 l 76 1047 l 76 0 z "},"Є":{"ha":918,"x_min":0,"x_max":0,"o":"m 742 394 l 742 656 l 464 656 b 639 756 503 721 569 756 b 863 676 726 756 788 729 l 851 1021 b 596 1064 767 1050 682 1064 b 49 514 289 1064 49 819 b 581 -17 49 215 282 -17 b 851 32 696 -17 789 3 l 863 361 b 644 292 801 318 733 292 b 464 394 564 292 500 332 z "},"Ѕ":{"ha":906,"x_min":0,"x_max":0,"o":"m 442 -17 b 871 340 697 -17 871 125 b 586 663 871 538 739 617 b 450 736 511 685 450 699 b 522 783 450 771 483 783 b 717 714 603 783 675 747 l 851 974 b 483 1064 751 1031 644 1064 b 69 710 243 1064 69 924 b 378 382 69 503 229 426 b 490 317 443 363 490 351 b 406 264 490 278 458 264 b 151 364 338 264 246 293 l 21 108 b 442 -17 121 35 254 -17 z "},"І":{"ha":519,"x_min":0,"x_max":0,"o":"m 443 0 l 443 1047 l 76 1047 l 76 0 z "},"Ї":{"ha":519,"x_min":0,"x_max":0,"o":"m 68 1150 b 221 1303 154 1150 221 1217 b 68 1457 221 1390 154 1457 b -86 1303 -19 1457 -86 1390 b 68 1150 -86 1217 -19 1150 z m 453 1150 b 606 1303 540 1150 606 1217 b 453 1457 606 1390 540 1457 b 299 1303 365 1457 299 1390 b 453 1150 299 1217 365 1150 z m 443 0 l 443 1047 l 76 1047 l 76 0 z "},"Ј":{"ha":739,"x_min":0,"x_max":0,"o":"m 313 -17 b 669 353 528 -17 669 125 l 669 1047 l 297 1047 l 297 425 b 231 324 297 385 292 324 b 121 399 189 324 147 364 l 0 97 b 313 -17 81 24 194 -17 z "},"Љ":{"ha":1625,"x_min":0,"x_max":0,"o":"m 163 -11 b 543 428 435 -11 511 90 l 571 717 l 707 717 l 707 0 l 1179 0 b 1596 357 1450 0 1596 139 b 1193 697 1596 603 1425 697 l 1074 697 l 1074 1047 l 251 1047 l 194 483 b 100 308 182 361 157 308 b 42 318 78 308 57 313 l -8 15 b 163 -11 39 0 108 -11 z m 1074 440 l 1119 440 b 1243 353 1169 440 1243 435 b 1121 267 1243 276 1185 267 l 1074 267 z "},"Њ":{"ha":1614,"x_min":0,"x_max":0,"o":"m 443 0 l 443 364 l 668 364 l 668 0 l 1168 0 b 1585 357 1439 0 1585 139 b 1182 696 1585 603 1414 696 l 1035 696 l 1035 1047 l 668 1047 l 668 694 l 443 694 l 443 1047 l 76 1047 l 76 0 z m 1035 440 l 1094 440 b 1218 353 1144 440 1218 435 b 1096 267 1218 276 1160 267 l 1035 267 z "},"Ћ":{"ha":1192,"x_min":0,"x_max":0,"o":"m 575 0 l 575 329 b 672 335 592 332 635 335 b 751 258 732 335 751 308 l 751 0 l 1122 0 l 1122 278 b 786 629 1122 454 1088 629 b 575 618 708 629 629 624 l 575 750 l 818 750 l 818 1047 l 18 1047 l 18 750 l 210 750 l 210 0 z "},"Ќ":{"ha":1119,"x_min":0,"x_max":0,"o":"m 549 1493 l 339 1222 l 521 1122 l 792 1322 z m 1133 0 l 779 528 l 1099 1047 l 683 1047 l 439 593 l 447 1047 l 76 1047 l 76 0 l 447 0 l 439 463 l 692 0 z "},"Ѝ":{"ha":1203,"x_min":0,"x_max":0,"o":"m 560 1493 l 317 1322 l 588 1122 l 769 1222 z m 419 503 l 435 1047 l 76 1047 l 76 0 l 440 0 l 776 553 l 768 0 l 1126 0 l 1126 1047 l 756 1047 z "},"Ў":{"ha":1136,"x_min":0,"x_max":0,"o":"m 574 1118 b 903 1363 772 1118 869 1240 l 689 1400 b 574 1290 672 1326 649 1290 b 458 1400 507 1290 475 1326 l 244 1363 b 574 1118 278 1240 375 1118 z m 608 644 l 394 1047 l 0 1047 l 444 314 b 363 290 421 297 394 290 b 204 350 303 290 251 313 l 56 79 b 365 -15 133 22 232 -15 b 800 288 556 -15 689 46 l 1150 1047 l 760 1047 z "},"Џ":{"ha":1075,"x_min":0,"x_max":0,"o":"m 696 -250 l 696 0 l 999 0 l 999 1047 l 632 1047 l 632 331 l 443 331 l 443 1047 l 76 1047 l 76 0 l 379 0 l 379 -250 z "},"А":{"ha":1131,"x_min":0,"x_max":0,"o":"m 1144 0 l 771 1047 l 350 1047 l -14 0 l 379 0 l 414 135 l 700 135 l 732 0 z m 518 536 b 563 714 533 596 549 654 l 604 533 l 640 385 l 479 385 z "},"Б":{"ha":1008,"x_min":0,"x_max":0,"o":"m 575 0 b 968 336 831 0 968 131 b 588 657 968 568 807 657 l 443 657 l 443 761 l 822 761 l 822 1047 l 76 1047 l 76 0 z m 443 415 l 500 415 b 615 332 546 415 615 410 b 500 251 615 261 561 251 l 443 251 z "},"В":{"ha":1022,"x_min":0,"x_max":0,"o":"m 594 0 b 978 289 749 0 978 56 b 771 551 978 417 904 507 l 771 553 b 901 776 842 585 901 669 b 497 1047 901 986 710 1047 l 76 1047 l 76 0 z m 429 794 l 449 794 b 561 721 531 794 561 774 b 443 644 561 661 508 644 l 429 644 z m 429 424 l 479 424 b 625 336 551 424 625 418 b 472 250 625 251 539 250 l 429 250 z "},"Г":{"ha":781,"x_min":0,"x_max":0,"o":"m 443 0 l 443 714 l 763 714 l 763 1047 l 76 1047 l 76 0 z "},"Д":{"ha":1269,"x_min":0,"x_max":0,"o":"m 329 -250 l 329 0 l 929 0 l 929 -250 l 1246 -250 l 1246 331 l 1085 331 l 1085 1047 l 267 1047 l 222 669 b 25 331 196 450 163 331 l 13 331 l 13 -250 z m 467 331 b 561 603 514 365 542 421 l 574 717 l 718 717 l 718 331 z "},"Е":{"ha":854,"x_min":0,"x_max":0,"o":"m 792 0 l 792 286 l 443 286 l 443 393 l 753 393 l 753 665 l 443 665 l 443 761 l 781 761 l 781 1047 l 76 1047 l 76 0 z "},"Ж":{"ha":1649,"x_min":0,"x_max":0,"o":"m 1300 528 l 1619 1047 l 1232 1047 l 996 608 l 996 1047 l 653 1047 l 653 608 l 417 1047 l 29 1047 l 349 528 l -6 0 l 408 0 l 653 446 l 653 0 l 996 0 l 996 446 l 1240 0 l 1654 0 z "},"З":{"ha":964,"x_min":0,"x_max":0,"o":"m 460 -17 b 919 306 747 -17 919 111 b 733 553 919 414 860 514 b 871 778 818 590 871 665 b 493 1064 871 958 743 1064 b 97 971 328 1064 174 1018 l 221 721 b 415 782 278 756 344 782 b 517 722 481 782 517 763 b 394 650 517 678 476 650 l 293 650 l 293 413 l 403 413 b 539 342 490 413 539 386 b 422 267 539 290 489 267 b 176 361 331 267 236 308 l 28 113 b 460 -17 146 28 265 -17 z "},"И":{"ha":1203,"x_min":0,"x_max":0,"o":"m 419 503 l 435 1047 l 76 1047 l 76 0 l 440 0 l 776 553 l 768 0 l 1126 0 l 1126 1047 l 756 1047 z "},"Й":{"ha":1203,"x_min":0,"x_max":0,"o":"m 588 1118 b 917 1363 786 1118 883 1240 l 703 1400 b 588 1290 686 1326 663 1290 b 472 1400 521 1290 489 1326 l 258 1363 b 588 1118 292 1240 389 1118 z m 419 503 l 435 1047 l 76 1047 l 76 0 l 440 0 l 776 553 l 768 0 l 1126 0 l 1126 1047 l 756 1047 z "},"К":{"ha":1119,"x_min":0,"x_max":0,"o":"m 1133 0 l 779 528 l 1099 1047 l 683 1047 l 439 593 l 447 1047 l 76 1047 l 76 0 l 447 0 l 439 463 l 692 0 z "},"Л":{"ha":1156,"x_min":0,"x_max":0,"o":"m 163 -11 b 543 428 435 -11 511 90 l 571 717 l 713 717 l 713 0 l 1079 0 l 1079 1047 l 251 1047 l 194 483 b 100 308 182 361 157 308 b 42 318 78 308 57 313 l -8 15 b 163 -11 39 0 108 -11 z "},"М":{"ha":1461,"x_min":0,"x_max":0,"o":"m 828 0 l 1004 563 l 1063 0 l 1440 0 l 1268 1047 l 881 1047 l 732 511 l 582 1047 l 190 1047 l 21 0 l 379 0 l 446 563 l 606 0 z "},"Н":{"ha":1119,"x_min":0,"x_max":0,"o":"m 443 0 l 443 364 l 676 364 l 676 0 l 1043 0 l 1043 1047 l 676 1047 l 676 694 l 443 694 l 443 1047 l 76 1047 l 76 0 z "},"О":{"ha":1256,"x_min":0,"x_max":0,"o":"m 628 -17 b 1207 521 946 -17 1207 185 b 628 1064 1207 849 946 1064 b 49 521 310 1064 49 849 b 628 -17 49 185 310 -17 z m 628 319 b 432 521 511 319 432 401 b 628 728 432 635 507 728 b 824 521 749 728 824 635 b 628 319 824 401 744 319 z "},"П":{"ha":1092,"x_min":0,"x_max":0,"o":"m 443 0 l 443 717 l 649 717 l 649 0 l 1015 0 l 1015 1047 l 76 1047 l 76 0 z "},"Р":{"ha":1013,"x_min":0,"x_max":0,"o":"m 443 0 l 443 301 l 558 301 b 983 678 800 301 983 425 b 558 1047 983 921 800 1047 l 76 1047 l 76 0 z m 443 761 l 493 761 b 617 675 556 761 617 749 b 494 579 617 599 561 579 l 443 579 z "},"С":{"ha":918,"x_min":0,"x_max":0,"o":"m 581 -17 b 851 25 651 -17 789 -4 l 863 417 b 644 319 801 357 733 319 b 432 524 531 319 432 408 b 639 728 432 657 546 728 b 863 621 714 728 788 693 l 851 1021 b 596 1064 767 1050 682 1064 b 49 514 289 1064 49 819 b 581 -17 49 215 282 -17 z "},"Т":{"ha":836,"x_min":0,"x_max":0,"o":"m 608 0 l 608 711 l 818 711 l 818 1047 l 18 1047 l 18 711 l 228 711 l 228 0 z "},"У":{"ha":1136,"x_min":0,"x_max":0,"o":"m 608 644 l 394 1047 l 0 1047 l 444 314 b 363 290 421 297 394 290 b 204 350 303 290 251 313 l 56 79 b 365 -15 133 22 232 -15 b 800 288 556 -15 689 46 l 1150 1047 l 760 1047 z "},"Ф":{"ha":1417,"x_min":0,"x_max":0,"o":"m 1372 529 b 883 981 1372 790 1186 942 l 883 1072 l 533 1072 l 533 981 b 44 535 229 939 44 788 b 533 79 44 268 235 119 l 533 -19 l 883 -19 l 883 81 b 1372 529 1186 122 1372 274 z m 863 707 b 1014 531 960 676 1014 614 b 863 354 1014 447 960 385 z m 403 532 b 554 707 403 614 458 676 l 554 354 b 403 532 460 385 403 446 z "},"Х":{"ha":1154,"x_min":0,"x_max":0,"o":"m 428 0 l 578 286 l 726 0 l 1160 0 l 786 557 l 1114 1047 l 685 1047 l 575 813 l 461 1047 l 32 1047 l 361 557 l -6 0 z "},"Ц":{"ha":1192,"x_min":0,"x_max":0,"o":"m 1168 -250 l 1168 331 l 1007 331 l 1007 1047 l 640 1047 l 640 331 l 443 331 l 443 1047 l 76 1047 l 76 0 l 854 0 l 854 -250 z "},"Ч":{"ha":1068,"x_min":0,"x_max":0,"o":"m 992 0 l 992 1047 l 625 1047 l 625 663 b 514 643 608 653 561 643 b 436 747 465 643 436 671 l 436 1047 l 69 1047 l 69 703 b 389 321 69 457 174 321 b 625 346 483 321 571 333 l 625 0 z "},"Ш":{"ha":1617,"x_min":0,"x_max":0,"o":"m 1540 0 l 1540 1047 l 1179 1047 l 1179 331 l 989 331 l 989 1047 l 628 1047 l 628 331 l 438 331 l 438 1047 l 76 1047 l 76 0 z "},"Щ":{"ha":1725,"x_min":0,"x_max":0,"o":"m 1701 -250 l 1701 331 l 1540 331 l 1540 1047 l 1179 1047 l 1179 331 l 989 331 l 989 1047 l 628 1047 l 628 331 l 438 331 l 438 1047 l 76 1047 l 76 0 l 1385 0 l 1385 -250 z "},"Ъ":{"ha":1182,"x_min":0,"x_max":0,"o":"m 736 0 b 1153 357 1007 0 1153 139 b 750 697 1153 603 982 697 l 603 697 l 603 1047 l 18 1047 l 18 717 l 236 717 l 236 0 z m 603 440 l 663 440 b 786 353 713 440 786 435 b 664 267 786 276 728 267 l 603 267 z "},"Ы":{"ha":1522,"x_min":0,"x_max":0,"o":"m 549 0 b 965 357 819 0 965 139 b 563 697 965 603 794 697 l 443 697 l 443 1047 l 76 1047 l 76 0 z m 1446 0 l 1446 1047 l 1079 1047 l 1079 0 z m 443 440 l 503 440 b 613 353 539 440 613 435 b 504 267 613 276 554 267 l 443 267 z "},"Ь":{"ha":1022,"x_min":0,"x_max":0,"o":"m 576 0 b 993 357 847 0 993 139 b 590 697 993 603 822 697 l 443 697 l 443 1047 l 76 1047 l 76 0 z m 443 440 l 503 440 b 626 353 553 440 626 435 b 504 267 626 276 568 267 l 443 267 z "},"Э":{"ha":918,"x_min":0,"x_max":0,"o":"m 322 1064 b 67 1021 236 1064 151 1050 l 56 676 b 279 756 131 729 192 756 b 454 656 349 756 415 721 l 176 656 l 176 394 l 454 394 b 274 292 418 332 354 292 b 56 361 185 292 117 318 l 67 32 b 338 -17 129 3 222 -17 b 869 514 636 -17 869 215 b 322 1064 869 819 629 1064 z "},"Ю":{"ha":1710,"x_min":0,"x_max":0,"o":"m 1096 1064 b 560 694 808 1064 624 908 l 443 694 l 443 1047 l 76 1047 l 76 0 l 443 0 l 443 364 l 554 364 b 1096 -17 613 151 800 -17 b 1661 521 1406 -17 1661 185 b 1096 1064 1661 850 1404 1064 z m 1096 314 b 914 515 990 314 914 396 b 1096 719 914 626 985 719 b 1278 515 1207 719 1278 626 b 1096 314 1278 396 1201 314 z "},"Я":{"ha":1029,"x_min":0,"x_max":0,"o":"m 479 1047 b 43 683 214 1047 43 919 b 235 378 43 544 115 439 l -14 0 l 397 0 l 553 322 l 586 322 l 586 0 l 953 0 l 953 1047 z m 535 583 b 410 671 472 583 410 593 b 532 761 410 751 465 761 l 594 761 l 594 583 z "},"а":{"ha":1010,"x_min":0,"x_max":0,"o":"m 365 -17 b 590 97 467 -17 525 28 l 593 97 l 589 0 l 939 0 l 939 738 l 589 738 l 593 650 l 590 650 b 375 754 536 722 464 754 b 40 365 158 754 40 564 b 365 -17 40 167 156 -17 z m 496 264 b 396 368 435 264 396 306 b 496 474 396 432 435 474 b 599 368 557 474 599 432 b 496 264 599 306 557 264 z "},"б":{"ha":972,"x_min":0,"x_max":0,"o":"m 504 -17 b 931 381 807 -17 931 182 b 590 732 931 554 815 732 b 343 618 461 732 386 682 l 339 618 b 511 839 353 767 381 819 b 879 904 622 856 781 872 l 829 1156 b 435 1085 703 1122 565 1106 b 50 500 150 1039 50 822 b 504 -17 50 174 204 -17 z m 497 275 b 397 376 442 275 397 318 b 497 485 397 436 438 485 b 597 376 557 485 597 435 b 497 275 597 318 553 275 z "},"в":{"ha":944,"x_min":0,"x_max":0,"o":"m 585 0 b 907 221 785 0 907 65 b 758 390 907 296 856 357 b 854 542 822 415 854 474 b 564 738 854 674 735 738 l 69 738 l 69 0 z m 415 560 l 461 560 b 526 507 501 560 526 547 b 457 454 526 465 496 454 l 415 454 z m 415 299 l 465 299 b 547 238 508 299 547 289 b 460 176 547 188 503 176 l 415 176 z "},"г":{"ha":665,"x_min":0,"x_max":0,"o":"m 428 0 l 428 460 l 653 460 l 653 738 l 69 738 l 69 0 z "},"д":{"ha":1108,"x_min":0,"x_max":0,"o":"m 294 -222 l 294 0 l 796 0 l 796 -222 l 1088 -222 l 1088 278 l 956 278 l 956 738 l 226 738 l 176 494 b 40 278 143 331 108 278 l 3 278 l 3 -222 z m 415 278 b 489 428 458 315 479 371 l 496 471 l 611 471 l 611 278 z "},"е":{"ha":960,"x_min":0,"x_max":0,"o":"m 918 342 b 472 754 918 614 724 754 b 42 363 238 754 42 614 b 486 -17 42 110 238 -17 b 901 243 657 -17 853 65 l 557 243 b 481 182 547 208 519 182 b 394 308 414 182 394 235 l 917 308 b 918 342 918 319 918 331 z m 396 461 b 481 557 399 514 426 557 b 564 461 535 557 563 514 z "},"ж":{"ha":1450,"x_min":0,"x_max":0,"o":"m 367 0 l 543 278 l 553 274 l 553 0 l 897 0 l 897 274 l 907 278 l 1083 0 l 1464 0 l 1179 376 l 1450 738 l 1083 738 l 897 464 l 897 738 l 553 738 l 553 464 l 367 738 l 0 738 l 271 376 l -14 0 z "},"з":{"ha":826,"x_min":0,"x_max":0,"o":"m 396 -17 b 785 211 653 -17 785 71 b 610 389 785 289 739 363 b 750 553 704 417 750 475 b 411 754 750 685 619 754 b 61 685 268 754 131 722 l 147 478 b 338 535 189 508 274 535 b 415 500 388 535 415 524 b 319 461 415 475 385 461 l 269 461 l 269 289 l 347 289 b 439 249 415 289 439 275 b 343 204 439 219 414 204 b 132 289 263 204 197 235 l 21 78 b 396 -17 101 19 215 -17 z "},"и":{"ha":1015,"x_min":0,"x_max":0,"o":"m 394 432 l 394 738 l 69 738 l 69 0 l 394 0 l 619 317 l 619 0 l 946 0 l 946 738 l 622 738 z "},"й":{"ha":1015,"x_min":0,"x_max":0,"o":"m 507 808 b 836 1053 706 808 803 931 l 622 1090 b 507 981 606 1017 582 981 b 392 1090 440 981 408 1017 l 178 1053 b 507 808 211 931 308 808 z m 394 432 l 394 738 l 69 738 l 69 0 l 394 0 l 619 317 l 619 0 l 946 0 l 946 738 l 622 738 z "},"к":{"ha":1010,"x_min":0,"x_max":0,"o":"m 724 376 l 994 738 l 586 738 l 428 464 l 428 738 l 69 738 l 69 0 l 428 0 l 428 260 l 438 264 l 586 0 l 1008 0 z "},"л":{"ha":1001,"x_min":0,"x_max":0,"o":"m 153 -11 b 476 350 410 -11 449 126 l 490 460 l 576 460 l 576 0 l 935 0 l 935 738 l 199 738 l 161 418 b 74 260 149 311 128 260 b 35 264 51 260 47 261 l 0 8 b 153 -11 40 -1 92 -11 z "},"м":{"ha":1268,"x_min":0,"x_max":0,"o":"m 708 738 l 635 346 l 560 738 l 138 738 l 28 0 l 378 0 l 408 390 l 413 390 l 514 -1 l 754 -1 l 856 390 l 860 390 l 890 0 l 1240 0 l 1131 738 z "},"н":{"ha":976,"x_min":0,"x_max":0,"o":"m 428 0 l 428 246 l 549 246 l 549 0 l 907 0 l 907 738 l 549 738 l 549 510 l 428 510 l 428 738 l 69 738 l 69 0 z "},"о":{"ha":986,"x_min":0,"x_max":0,"o":"m 493 -17 b 944 369 739 -17 944 106 b 493 754 944 624 739 754 b 42 369 247 754 42 624 b 493 -17 42 106 247 -17 z m 493 267 b 393 369 432 267 393 310 b 493 471 393 429 432 471 b 593 369 554 471 593 429 b 493 267 593 310 554 267 z "},"п":{"ha":976,"x_min":0,"x_max":0,"o":"m 428 0 l 428 460 l 549 460 l 549 0 l 907 0 l 907 738 l 69 738 l 69 0 z "},"р":{"ha":1008,"x_min":0,"x_max":0,"o":"m 429 -304 l 429 -71 b 421 101 429 -18 429 21 l 422 101 b 639 -17 464 33 544 -17 b 968 369 856 -17 968 175 b 647 754 968 569 864 754 b 422 639 544 754 467 707 l 418 639 l 422 738 l 71 738 l 71 -304 z m 514 264 b 413 369 453 264 413 306 b 514 474 413 433 453 474 b 614 369 575 474 614 433 b 514 264 614 306 575 264 z "},"с":{"ha":693,"x_min":0,"x_max":0,"o":"m 451 -17 b 632 18 519 -17 589 -1 l 647 321 b 514 264 604 289 564 264 b 403 369 449 264 403 313 b 515 479 403 436 450 479 b 647 418 567 479 610 450 l 647 717 b 422 754 593 738 514 754 b 42 365 201 754 42 583 b 451 -17 42 118 213 -17 z "},"т":{"ha":731,"x_min":0,"x_max":0,"o":"m 544 0 l 544 460 l 718 460 l 718 738 l 13 738 l 13 460 l 186 460 l 186 0 z "},"у":{"ha":958,"x_min":0,"x_max":0,"o":"m 481 342 l 378 738 l -8 738 l 306 76 l 117 -304 l 494 -304 l 967 738 l 590 738 z "},"ф":{"ha":1294,"x_min":0,"x_max":0,"o":"m 826 -304 l 826 -11 b 1253 369 1015 0 1253 78 b 826 749 1253 660 1017 738 l 826 1126 l 468 1126 l 468 749 b 42 369 276 738 42 660 b 468 -11 42 78 278 0 l 468 -304 z m 489 242 b 388 365 435 244 388 281 b 489 493 388 440 435 490 z m 806 493 b 907 365 860 490 907 440 b 806 242 907 281 860 244 z "},"х":{"ha":1024,"x_min":0,"x_max":0,"o":"m 718 378 l 1001 738 l 590 738 l 515 583 l 442 738 l 31 738 l 314 385 l 0 0 l 432 0 l 513 161 l 601 0 l 1022 0 z "},"ц":{"ha":1060,"x_min":0,"x_max":0,"o":"m 1039 -194 l 1039 278 l 907 278 l 907 738 l 549 738 l 549 278 l 428 278 l 428 738 l 69 738 l 69 0 l 761 0 l 761 -194 z "},"ч":{"ha":960,"x_min":0,"x_max":0,"o":"m 890 0 l 890 738 l 532 738 l 532 467 b 475 463 519 464 493 463 b 411 556 419 463 411 493 l 411 738 l 67 738 l 67 444 b 339 193 67 319 128 193 b 532 201 408 193 486 197 l 532 0 z "},"ш":{"ha":1389,"x_min":0,"x_max":0,"o":"m 1319 0 l 1319 738 l 972 738 l 972 278 l 868 278 l 868 738 l 521 738 l 521 278 l 417 278 l 417 738 l 69 738 l 69 0 z "},"щ":{"ha":1472,"x_min":0,"x_max":0,"o":"m 1451 -194 l 1451 278 l 1319 278 l 1319 738 l 972 738 l 972 278 l 868 278 l 868 738 l 521 738 l 521 278 l 417 278 l 417 738 l 69 738 l 69 0 l 1174 0 l 1174 -194 z "},"ъ":{"ha":1043,"x_min":0,"x_max":0,"o":"m 699 0 b 1001 263 896 0 1001 101 b 707 511 1001 440 876 511 l 540 511 l 540 738 l 13 738 l 13 460 l 182 460 l 182 0 z m 540 324 l 571 324 b 660 263 607 324 660 318 b 571 194 660 203 619 194 l 540 194 z "},"ы":{"ha":1379,"x_min":0,"x_max":0,"o":"m 572 0 b 875 263 769 0 875 101 b 581 511 875 440 750 511 l 428 511 l 428 738 l 69 738 l 69 0 z m 1310 0 l 1310 738 l 951 738 l 951 0 z m 428 324 l 458 324 b 547 263 494 324 547 318 b 458 194 547 203 507 194 l 428 194 z "},"ь":{"ha":931,"x_min":0,"x_max":0,"o":"m 586 0 b 889 263 783 0 889 101 b 594 511 889 440 764 511 l 428 511 l 428 738 l 69 738 l 69 0 z m 428 324 l 458 324 b 547 263 494 324 547 318 b 458 194 547 203 507 194 l 428 194 z "},"э":{"ha":721,"x_min":0,"x_max":0,"o":"m 292 754 b 53 717 215 754 125 740 l 53 457 b 193 531 93 503 139 531 b 308 463 231 531 281 514 l 122 463 l 122 288 l 318 288 b 200 210 293 228 242 210 b 46 278 142 210 92 235 l 61 18 b 263 -17 117 0 200 -17 b 679 365 501 -17 679 118 b 292 754 679 583 513 754 z "},"ю":{"ha":1396,"x_min":0,"x_max":0,"o":"m 917 754 b 504 510 706 754 560 656 l 428 510 l 428 738 l 69 738 l 69 0 l 428 0 l 428 246 l 499 246 b 917 -17 549 92 697 -17 b 1354 360 1147 -17 1354 115 b 917 754 1354 618 1160 754 z m 915 264 b 826 369 856 264 826 314 b 915 474 826 424 856 474 b 1007 372 969 474 1007 424 b 915 264 1007 322 971 264 z "},"я":{"ha":960,"x_min":0,"x_max":0,"o":"m 372 738 b 67 481 156 738 67 613 b 210 251 67 388 101 300 l 33 0 l 418 0 l 519 210 l 532 210 l 532 0 l 890 0 l 890 738 z m 501 411 b 414 471 465 411 414 417 b 501 536 414 528 454 536 l 544 536 l 544 411 z "},"ѐ":{"ha":960,"x_min":0,"x_max":0,"o":"m 447 1161 l 204 990 l 475 790 l 657 890 z m 918 342 b 472 754 918 614 724 754 b 42 363 238 754 42 614 b 486 -17 42 110 238 -17 b 901 243 657 -17 853 65 l 557 243 b 481 182 547 208 519 182 b 394 308 414 182 394 235 l 917 308 b 918 342 918 319 918 331 z m 396 461 b 481 557 399 514 426 557 b 564 461 535 557 563 514 z "},"ё":{"ha":960,"x_min":0,"x_max":0,"o":"m 294 806 b 433 944 372 806 433 867 b 294 1085 433 1024 372 1085 b 154 944 215 1085 154 1024 b 294 806 154 867 215 806 z m 665 806 b 804 944 744 806 804 867 b 665 1085 804 1024 744 1085 b 525 944 586 1085 525 1024 b 665 806 525 867 586 806 z m 918 342 b 472 754 918 614 724 754 b 42 363 238 754 42 614 b 486 -17 42 110 238 -17 b 901 243 657 -17 853 65 l 557 243 b 481 182 547 208 519 182 b 394 308 414 182 394 235 l 917 308 b 918 342 918 319 918 331 z m 396 461 b 481 557 399 514 426 557 b 564 461 535 557 563 514 z "},"ђ":{"ha":960,"x_min":0,"x_max":0,"o":"m 576 -307 b 893 28 799 -307 893 -187 l 893 453 b 644 754 893 615 828 754 b 407 611 540 754 475 690 l 404 610 b 418 814 408 644 418 722 l 418 865 l 578 865 l 578 979 l 418 979 l 418 1126 l 60 1126 l 60 979 l 0 979 l 0 865 l 60 865 l 60 0 l 418 0 l 418 381 b 486 468 418 426 431 468 b 543 381 538 468 543 419 l 543 53 b 468 -46 543 3 528 -46 b 419 -43 451 -46 432 -44 l 419 -290 b 576 -307 474 -300 522 -307 z "},"ѓ":{"ha":665,"x_min":0,"x_max":0,"o":"m 654 990 l 411 1161 l 201 890 l 383 790 z m 428 0 l 428 460 l 653 460 l 653 738 l 69 738 l 69 0 z "},"є":{"ha":713,"x_min":0,"x_max":0,"o":"m 521 210 b 403 288 479 210 428 228 l 599 288 l 599 463 l 413 463 b 528 531 440 514 490 531 b 668 457 582 531 628 503 l 668 717 b 429 754 596 740 506 754 b 42 365 208 754 42 583 b 458 -17 42 118 219 -17 b 660 18 521 -17 604 0 l 675 278 b 521 210 629 235 579 210 z "},"ѕ":{"ha":769,"x_min":0,"x_max":0,"o":"m 364 -21 b 721 254 579 -21 721 81 b 489 469 721 403 617 447 b 396 507 424 481 396 486 b 451 535 396 526 415 535 b 608 479 504 535 568 513 l 693 697 b 418 756 631 732 532 756 b 74 492 239 756 74 683 b 310 275 74 349 182 296 b 382 240 360 267 382 260 b 331 213 382 222 368 213 b 135 293 264 213 197 242 l 28 76 b 364 -21 108 24 214 -21 z "},"і":{"ha":497,"x_min":0,"x_max":0,"o":"m 249 810 b 446 983 351 810 446 863 b 249 1156 446 1090 361 1156 b 51 983 136 1156 51 1090 b 249 810 51 863 146 810 z m 428 0 l 428 738 l 69 738 l 69 0 z "},"ї":{"ha":497,"x_min":0,"x_max":0,"o":"m 64 806 b 203 944 142 806 203 867 b 64 1085 203 1024 142 1085 b -76 944 -15 1085 -76 1024 b 64 806 -76 867 -15 806 z m 435 806 b 574 944 514 806 574 867 b 435 1085 574 1024 514 1085 b 294 944 356 1085 294 1024 b 435 806 294 867 356 806 z m 428 0 l 428 738 l 69 738 l 69 0 z "},"ј":{"ha":497,"x_min":0,"x_max":0,"o":"m 249 810 b 446 983 351 810 446 863 b 249 1156 446 1090 361 1156 b 51 983 136 1156 51 1090 b 249 810 51 863 146 810 z m 428 -304 l 428 738 l 69 738 l 69 -304 z "},"љ":{"ha":1424,"x_min":0,"x_max":0,"o":"m 153 -11 b 476 350 410 -11 449 126 l 490 460 l 576 460 l 576 0 l 1079 0 b 1382 263 1276 0 1382 101 b 1088 511 1382 440 1257 511 l 935 511 l 935 738 l 199 738 l 161 418 b 74 260 149 311 128 260 b 35 264 51 260 47 261 l 0 8 b 153 -11 40 -1 92 -11 z m 935 324 l 965 324 b 1054 263 1001 324 1054 318 b 965 194 1054 203 1014 194 l 935 194 z "},"њ":{"ha":1410,"x_min":0,"x_max":0,"o":"m 428 0 l 428 246 l 549 246 l 549 0 l 1074 0 b 1368 254 1265 0 1368 99 b 1082 496 1368 428 1247 496 l 907 496 l 907 738 l 549 738 l 549 496 l 428 496 l 428 738 l 69 738 l 69 0 z m 893 314 l 936 314 b 1024 254 972 314 1024 308 b 936 189 1024 197 983 189 l 893 189 z "},"ћ":{"ha":974,"x_min":0,"x_max":0,"o":"m 651 754 b 414 619 536 754 479 701 l 411 619 b 428 851 418 678 428 790 l 428 861 l 601 861 l 601 986 l 428 986 l 428 1126 l 69 1126 l 69 986 l 0 986 l 0 861 l 69 861 l 69 0 l 428 0 l 428 353 b 493 464 428 413 435 464 b 549 360 547 464 549 413 l 549 0 l 907 0 l 907 454 b 651 754 907 615 835 754 z "},"ќ":{"ha":1010,"x_min":0,"x_max":0,"o":"m 542 1161 l 332 890 l 514 790 l 785 990 z m 724 376 l 994 738 l 586 738 l 428 464 l 428 738 l 69 738 l 69 0 l 428 0 l 428 260 l 438 264 l 586 0 l 1008 0 z "},"ѝ":{"ha":1015,"x_min":0,"x_max":0,"o":"m 476 1161 l 233 990 l 504 790 l 686 890 z m 394 432 l 394 738 l 69 738 l 69 0 l 394 0 l 619 317 l 619 0 l 946 0 l 946 738 l 622 738 z "},"ў":{"ha":958,"x_min":0,"x_max":0,"o":"m 478 808 b 807 1053 676 808 774 931 l 593 1090 b 478 981 576 1017 553 981 b 363 1090 411 981 379 1017 l 149 1053 b 478 808 182 931 279 808 z m 481 342 l 378 738 l -8 738 l 306 76 l 117 -304 l 494 -304 l 967 738 l 590 738 z "},"џ":{"ha":976,"x_min":0,"x_max":0,"o":"m 628 -194 l 628 0 l 907 0 l 907 738 l 549 738 l 549 278 l 428 278 l 428 738 l 69 738 l 69 0 l 350 0 l 350 -194 z "},"Ґ":{"ha":794,"x_min":0,"x_max":0,"o":"m 443 0 l 443 714 l 776 714 l 776 1257 l 460 1257 l 460 1047 l 76 1047 l 76 0 z "},"ґ":{"ha":686,"x_min":0,"x_max":0,"o":"m 428 0 l 428 460 l 674 460 l 674 960 l 382 960 l 382 738 l 69 738 l 69 0 z "},"Ғ":{"ha":846,"x_min":0,"x_max":0,"o":"m 828 1047 l 142 1047 l 142 567 l 0 567 l 0 336 l 142 336 l 142 0 l 508 0 l 508 336 l 697 336 l 697 567 l 508 567 l 508 714 l 828 714 z "},"ғ":{"ha":738,"x_min":0,"x_max":0,"o":"m 711 738 l 128 738 l 128 381 l 0 381 l 0 193 l 128 193 l 128 0 l 486 0 l 486 193 l 636 193 l 636 381 l 486 381 l 486 474 l 711 474 z "},"Җ":{"ha":1708,"x_min":0,"x_max":0,"o":"m 1714 -250 l 1714 331 l 1464 331 l 1329 579 l 1643 1047 l 1242 1047 l 1011 663 l 1019 1047 l 653 1047 l 661 663 l 431 1047 l 29 1047 l 343 579 l -6 0 l 422 0 l 589 358 l 653 286 l 653 0 l 1019 0 l 1019 286 l 1083 358 l 1250 0 l 1397 0 l 1397 -250 z "},"җ":{"ha":1528,"x_min":0,"x_max":0,"o":"m 1526 -194 l 1526 278 l 1268 278 l 1193 376 l 1464 738 l 1097 738 l 911 464 l 911 738 l 567 738 l 567 464 l 381 738 l 14 738 l 285 376 l 0 0 l 381 0 l 557 278 l 567 274 l 567 0 l 911 0 l 911 274 l 921 278 l 1097 0 l 1249 0 l 1249 -194 z "},"Қ":{"ha":1157,"x_min":0,"x_max":0,"o":"m 1163 -250 l 1163 331 l 913 331 l 779 528 l 1099 1047 l 683 1047 l 439 593 l 443 1047 l 76 1047 l 76 0 l 443 0 l 439 461 l 440 461 l 692 0 l 846 0 l 846 -250 z "},"қ":{"ha":1044,"x_min":0,"x_max":0,"o":"m 1043 -181 l 1043 278 l 803 278 l 731 376 l 993 738 l 614 738 l 428 449 l 428 738 l 69 738 l 69 0 l 428 0 l 428 279 l 586 0 l 765 0 l 765 -181 z "},"Ҝ":{"ha":1213,"x_min":0,"x_max":0,"o":"m 879 546 l 1192 1047 l 783 1047 l 614 714 l 614 832 l 486 832 l 486 686 l 443 686 l 443 1047 l 76 1047 l 76 0 l 443 0 l 443 369 l 486 369 l 486 213 l 614 213 l 614 335 l 799 0 l 1226 0 z "},"ҝ":{"ha":1183,"x_min":0,"x_max":0,"o":"m 869 376 l 1168 738 l 764 738 l 606 510 l 599 510 l 599 638 l 485 638 l 485 510 l 428 510 l 428 738 l 69 738 l 69 0 l 428 0 l 428 246 l 485 246 l 485 101 l 599 101 l 599 242 l 769 0 l 1182 0 z "},"Ң":{"ha":1228,"x_min":0,"x_max":0,"o":"m 1204 -250 l 1204 331 l 1043 331 l 1043 1047 l 675 1047 l 675 694 l 443 694 l 443 1047 l 76 1047 l 76 0 l 443 0 l 443 364 l 675 364 l 675 0 l 888 0 l 888 -250 z "},"ң":{"ha":1060,"x_min":0,"x_max":0,"o":"m 1039 -194 l 1039 278 l 907 278 l 907 738 l 549 738 l 549 510 l 428 510 l 428 738 l 69 738 l 69 0 l 428 0 l 428 246 l 549 246 l 549 0 l 761 0 l 761 -194 z "},"Ү":{"ha":1068,"x_min":0,"x_max":0,"o":"m 724 0 l 724 451 l 1082 1047 l 654 1047 l 540 774 l 417 1047 l -14 1047 l 351 451 l 351 0 z "},"ү":{"ha":953,"x_min":0,"x_max":0,"o":"m 657 -304 l 657 -1 l 961 738 l 576 738 l 478 361 l 376 738 l -8 738 l 299 -1 l 299 -304 z "},"Ұ":{"ha":1068,"x_min":0,"x_max":0,"o":"m 1082 1047 l 654 1047 l 540 774 l 417 1047 l -14 1047 l 351 451 l 351 381 l 189 381 l 189 150 l 351 150 l 351 0 l 724 0 l 724 150 l 886 150 l 886 381 l 724 381 l 724 451 z "},"ұ":{"ha":953,"x_min":0,"x_max":0,"o":"m 961 738 l 576 738 l 478 361 l 376 738 l -8 738 l 299 -1 l 299 -22 l 160 -22 l 160 -210 l 299 -210 l 299 -304 l 657 -304 l 657 -210 l 796 -210 l 796 -22 l 657 -22 l 657 -1 z "},"Ҳ":{"ha":1158,"x_min":0,"x_max":0,"o":"m 1161 -250 l 1161 331 l 938 331 l 786 557 l 1114 1047 l 685 1047 l 575 813 l 461 1047 l 32 1047 l 361 557 l -6 0 l 428 0 l 578 286 l 726 0 l 844 0 l 844 -250 z "},"ҳ":{"ha":1063,"x_min":0,"x_max":0,"o":"m 1061 -194 l 1061 278 l 799 278 l 718 378 l 1001 738 l 590 738 l 515 583 l 442 738 l 31 738 l 314 385 l 0 0 l 432 0 l 513 161 l 601 0 l 783 0 l 783 -194 z "},"Ҹ":{"ha":1201,"x_min":0,"x_max":0,"o":"m 758 663 b 658 657 743 661 707 658 l 658 810 l 531 810 l 531 660 b 436 789 454 667 436 694 l 436 1047 l 69 1047 l 69 686 b 406 335 69 510 104 335 l 531 335 l 531 190 l 658 190 l 658 339 b 758 346 693 340 725 343 l 758 0 l 1125 0 l 1125 1047 l 758 1047 z "},"ҹ":{"ha":1099,"x_min":0,"x_max":0,"o":"m 671 468 b 600 464 653 465 628 464 l 600 596 l 486 596 l 486 464 b 411 556 422 469 411 489 l 411 738 l 67 738 l 67 444 b 404 193 67 258 168 193 l 486 193 l 486 60 l 600 60 l 600 197 l 671 201 l 671 0 l 1029 0 l 1029 738 l 671 738 z "},"Һ":{"ha":1068,"x_min":0,"x_max":0,"o":"m 443 0 l 443 385 b 535 390 460 388 497 390 b 632 258 610 390 632 346 l 632 0 l 999 0 l 999 361 b 663 713 999 538 964 713 b 443 701 585 713 497 707 l 443 1047 l 76 1047 l 76 0 z "},"һ":{"ha":974,"x_min":0,"x_max":0,"o":"m 428 0 l 428 353 b 493 464 428 413 435 464 b 549 360 547 464 549 413 l 549 0 l 907 0 l 907 454 b 651 754 907 615 835 754 b 421 619 539 754 485 701 l 418 619 b 428 851 422 678 428 790 l 428 1126 l 69 1126 l 69 0 z "},"Ӏ":{"ha":519,"x_min":0,"x_max":0,"o":"m 443 0 l 443 1047 l 76 1047 l 76 0 z "},"ӏ":{"ha":497,"x_min":0,"x_max":0,"o":"m 428 0 l 428 1126 l 69 1126 l 69 0 z "},"Ә":{"ha":1249,"x_min":0,"x_max":0,"o":"m 628 1064 b 115 790 396 1064 189 950 l 453 664 b 633 746 493 725 553 746 b 801 617 711 746 774 697 l 49 617 l 49 608 b 628 -17 49 226 243 -17 b 1200 522 946 -17 1200 186 b 628 1064 1200 850 946 1064 z m 628 278 b 451 383 532 278 478 318 l 789 383 b 628 278 757 318 700 278 z "},"ә":{"ha":960,"x_min":0,"x_max":0,"o":"m 474 754 b 58 494 303 754 107 672 l 403 494 b 479 556 413 529 440 556 b 565 429 546 556 565 503 l 43 429 b 42 396 42 418 42 407 b 488 -17 42 124 236 -17 b 918 375 722 -17 918 124 b 474 754 918 628 722 754 z m 479 181 b 396 276 425 181 397 224 l 564 276 b 479 181 561 224 533 181 z "},"Ө":{"ha":1256,"x_min":0,"x_max":0,"o":"m 628 1064 b 49 521 310 1064 49 849 b 628 -17 49 185 310 -17 b 1207 521 946 -17 1207 185 b 628 1064 1207 849 946 1064 z m 628 742 b 789 653 700 742 756 707 l 467 653 b 628 742 500 707 556 742 z m 628 306 b 458 406 551 306 490 343 l 797 406 b 628 306 765 343 704 306 z "},"ө":{"ha":978,"x_min":0,"x_max":0,"o":"m 489 754 b 42 360 246 754 42 618 b 489 -17 42 115 258 -17 b 936 360 719 -17 936 115 b 489 754 936 618 732 754 z m 489 557 b 572 461 526 557 557 533 l 406 461 b 489 557 419 533 450 557 z m 489 183 b 404 279 447 183 417 208 l 575 279 b 489 183 561 211 528 183 z "},"Ẁ":{"ha":1635,"x_min":0,"x_max":0,"o":"m 1000 1222 l 790 1493 l 547 1322 l 818 1122 z m 683 0 l 817 569 l 940 0 l 1279 0 l 1642 1047 l 1246 1047 l 1106 436 l 963 1047 l 671 1047 l 519 436 l 388 1047 l -7 1047 l 351 0 z "},"ẁ":{"ha":1318,"x_min":0,"x_max":0,"o":"m 838 890 l 628 1161 l 385 990 l 656 790 z m 571 0 l 660 328 l 747 0 l 1036 0 l 1339 738 l 963 738 l 881 328 l 776 738 l 542 738 l 442 328 l 357 738 l -21 738 l 278 0 z "},"Ẃ":{"ha":1635,"x_min":0,"x_max":0,"o":"m 1049 1322 l 806 1493 l 596 1222 l 778 1122 z m 683 0 l 817 569 l 940 0 l 1279 0 l 1642 1047 l 1246 1047 l 1106 436 l 963 1047 l 671 1047 l 519 436 l 388 1047 l -7 1047 l 351 0 z "},"ẃ":{"ha":1318,"x_min":0,"x_max":0,"o":"m 939 990 l 696 1161 l 486 890 l 668 790 z m 571 0 l 660 328 l 747 0 l 1036 0 l 1339 738 l 963 738 l 881 328 l 776 738 l 542 738 l 442 328 l 357 738 l -21 738 l 278 0 z "},"Ẅ":{"ha":1635,"x_min":0,"x_max":0,"o":"m 626 1150 b 779 1303 713 1150 779 1217 b 626 1457 779 1390 713 1457 b 472 1303 539 1457 472 1390 b 626 1150 472 1217 539 1150 z m 1011 1150 b 1164 1303 1099 1150 1164 1217 b 1011 1457 1164 1390 1099 1457 b 857 1303 924 1457 857 1390 b 1011 1150 857 1217 924 1150 z m 683 0 l 817 569 l 940 0 l 1279 0 l 1642 1047 l 1246 1047 l 1106 436 l 963 1047 l 671 1047 l 519 436 l 388 1047 l -7 1047 l 351 0 z "},"ẅ":{"ha":1318,"x_min":0,"x_max":0,"o":"m 475 806 b 614 944 553 806 614 867 b 475 1085 614 1024 553 1085 b 335 944 396 1085 335 1024 b 475 806 335 867 396 806 z m 846 806 b 985 944 925 806 985 867 b 846 1085 985 1024 925 1085 b 706 944 767 1085 706 1024 b 846 806 706 867 767 806 z m 571 0 l 660 328 l 747 0 l 1036 0 l 1339 738 l 963 738 l 881 328 l 776 738 l 542 738 l 442 328 l 357 738 l -21 738 l 278 0 z "},"ẞ":{"ha":1232,"x_min":0,"x_max":0,"o":"m 944 647 l 1147 1039 l 1147 1047 l 594 1047 b 69 604 268 1047 69 922 l 69 0 l 436 0 l 436 581 b 594 769 436 722 493 769 l 688 769 l 558 525 l 558 518 l 732 403 b 829 285 803 356 829 314 b 776 233 829 256 813 233 b 607 304 732 233 663 258 l 501 63 b 815 -17 597 3 701 -17 b 1197 294 1069 -17 1197 119 b 989 617 1197 442 1113 532 z "},"Ỳ":{"ha":1068,"x_min":0,"x_max":0,"o":"m 717 1222 l 507 1493 l 264 1322 l 535 1122 z m 724 0 l 724 451 l 1082 1047 l 654 1047 l 540 774 l 417 1047 l -14 1047 l 351 451 l 351 0 z "},"ỳ":{"ha":958,"x_min":0,"x_max":0,"o":"m 447 1161 l 204 990 l 475 790 l 657 890 z m 481 342 l 378 738 l -8 738 l 306 76 l 117 -304 l 494 -304 l 967 738 l 590 738 z "}," ":{"ha":208,"x_min":0,"x_max":0,"o":""},"‐":{"ha":551,"x_min":0,"x_max":0,"o":"m 524 229 l 524 535 l 28 535 l 28 229 z "},"‑":{"ha":551,"x_min":0,"x_max":0,"o":"m 524 229 l 524 535 l 28 535 l 28 229 z "},"–":{"ha":694,"x_min":0,"x_max":0,"o":"m 696 257 l 696 563 l -1 563 l -1 257 z "},"—":{"ha":1389,"x_min":0,"x_max":0,"o":"m 1390 257 l 1390 563 l -1 563 l -1 257 z "},"―":{"ha":1389,"x_min":0,"x_max":0,"o":"m 1390 257 l 1390 563 l -1 563 l -1 257 z "},"‗":{"ha":597,"x_min":0,"x_max":0,"o":"m 597 -242 l 597 -86 l 0 -86 l 0 -242 z m 597 -447 l 597 -292 l 0 -292 l 0 -447 z "},"‘":{"ha":625,"x_min":0,"x_max":0,"o":"m 556 1047 l 275 1047 l 28 529 l 388 529 z "},"’":{"ha":625,"x_min":0,"x_max":0,"o":"m 597 1047 l 238 1047 l 69 529 l 349 529 z "},"‚":{"ha":685,"x_min":0,"x_max":0,"o":"m 607 288 l 247 288 l 79 -231 l 358 -231 z "},"‛":{"ha":625,"x_min":0,"x_max":0,"o":"m 556 529 l 388 1047 l 28 1047 l 276 529 z "},"“":{"ha":1038,"x_min":0,"x_max":0,"o":"m 556 1047 l 275 1047 l 28 529 l 388 529 z m 968 1047 l 688 1047 l 440 529 l 800 529 z "},"”":{"ha":1042,"x_min":0,"x_max":0,"o":"m 597 1047 l 238 1047 l 69 529 l 349 529 z m 1014 1047 l 654 1047 l 486 529 l 765 529 z "},"„":{"ha":1096,"x_min":0,"x_max":0,"o":"m 607 288 l 247 288 l 79 -231 l 358 -231 z m 1018 288 l 658 288 l 490 -231 l 769 -231 z "},"†":{"ha":1100,"x_min":0,"x_max":0,"o":"m 708 -210 l 708 426 l 1003 426 l 1003 700 l 708 700 l 708 1047 l 392 1047 l 392 700 l 97 700 l 97 426 l 392 426 l 392 -210 z "},"‡":{"ha":1050,"x_min":0,"x_max":0,"o":"m 683 -210 l 683 179 l 953 179 l 953 410 l 683 410 l 683 567 l 953 567 l 953 797 l 683 797 l 683 1047 l 367 1047 l 367 797 l 97 797 l 97 567 l 367 567 l 367 410 l 97 410 l 97 179 l 367 179 l 367 -210 z "},"•":{"ha":688,"x_min":0,"x_max":0,"o":"m 344 263 b 606 524 494 263 606 381 b 344 786 606 668 494 786 b 82 524 194 786 82 668 b 344 263 82 381 194 263 z "},"…":{"ha":1501,"x_min":0,"x_max":0,"o":"m 289 -17 b 496 156 390 -17 496 46 b 289 332 496 267 390 332 b 82 156 188 332 82 267 b 289 -17 82 46 188 -17 z m 753 -17 b 960 156 854 -17 960 46 b 753 332 960 267 854 332 b 546 156 651 332 546 267 b 753 -17 546 46 651 -17 z m 1213 -17 b 1419 156 1314 -17 1419 46 b 1213 332 1419 267 1314 332 b 1006 156 1111 332 1006 267 b 1213 -17 1006 46 1111 -17 z "},"‰":{"ha":2313,"x_min":0,"x_max":0,"o":"m 389 486 b 722 778 563 486 722 578 b 389 1064 722 975 572 1064 b 56 778 206 1064 56 975 b 389 486 56 578 215 486 z m 1232 957 l 1106 1053 l 367 129 l 492 25 z m 389 704 b 322 778 343 704 322 738 b 389 856 322 817 343 856 b 456 778 435 856 456 817 b 389 704 456 738 435 704 z m 1193 -17 b 1526 275 1367 -17 1526 75 b 1193 561 1526 472 1376 561 b 860 275 1010 561 860 472 b 1193 -17 860 75 1019 -17 z m 1924 -17 b 2257 275 2097 -17 2257 75 b 1924 561 2257 472 2107 561 b 1590 275 1740 561 1590 472 b 1924 -17 1590 75 1750 -17 z m 1193 201 b 1126 275 1147 201 1126 235 b 1193 353 1126 314 1147 353 b 1260 275 1239 353 1260 314 b 1193 201 1260 235 1239 201 z m 1924 201 b 1857 275 1878 201 1857 235 b 1924 353 1857 314 1878 353 b 1990 275 1969 353 1990 314 b 1924 201 1990 235 1969 201 z "},"‹":{"ha":538,"x_min":0,"x_max":0,"o":"m 496 126 l 358 375 l 496 622 l 279 733 l 42 375 l 279 15 z "},"›":{"ha":538,"x_min":0,"x_max":0,"o":"m 496 375 l 258 733 l 42 622 l 179 375 l 42 126 l 258 15 z "},"‼":{"ha":1117,"x_min":0,"x_max":0,"o":"m 472 400 l 472 1047 l 106 1047 l 106 400 z m 1011 400 l 1011 1047 l 644 1047 l 644 400 z m 289 -17 b 496 156 390 -17 496 46 b 289 332 496 267 390 332 b 82 156 188 332 82 267 b 289 -17 82 46 188 -17 z m 828 -17 b 1035 156 929 -17 1035 46 b 828 332 1035 267 929 332 b 621 156 726 332 621 267 b 828 -17 621 46 726 -17 z "},"‽":{"ha":922,"x_min":0,"x_max":0,"o":"m 457 1065 b 49 726 211 1065 49 943 l 49 722 l 390 722 l 390 726 b 461 806 390 779 415 806 b 525 738 506 806 525 778 b 517 694 525 721 522 707 l 314 694 l 314 379 l 653 379 l 653 488 b 874 749 789 514 874 596 b 457 1065 874 943 707 1065 z m 481 332 b 274 156 379 332 274 267 b 481 -17 274 46 379 -17 b 688 156 582 -17 688 46 b 481 332 688 267 582 332 z "},"‾":{"ha":597,"x_min":0,"x_max":0,"o":"m 597 967 l 597 1122 l 0 1122 l 0 967 z "},"⁄":{"ha":176,"x_min":0,"x_max":0,"o":"m 522 1047 l 372 1047 l -346 0 l -192 0 z "},"⁰":{"ha":675,"x_min":0,"x_max":0,"o":"m 338 615 b 629 944 507 615 629 738 b 338 1263 629 1143 503 1263 b 46 944 174 1263 46 1143 b 338 615 46 736 169 615 z m 338 821 b 282 939 303 821 282 863 b 338 1050 282 1017 303 1050 b 393 939 372 1050 393 1018 b 338 821 393 861 372 821 z "},"⁴":{"ha":647,"x_min":0,"x_max":0,"o":"m 546 907 l 546 1263 l 317 1263 l 22 854 l 22 728 l 315 728 l 308 625 l 546 625 l 540 728 l 610 728 l 610 907 z m 239 907 l 325 1032 b 318 961 321 1006 319 981 l 315 907 z "},"⁵":{"ha":632,"x_min":0,"x_max":0,"o":"m 294 614 b 590 843 447 614 590 685 b 379 1032 590 960 496 1032 b 294 1014 347 1032 311 1025 b 308 1068 303 1031 307 1051 l 550 1068 l 550 1253 l 136 1253 l 71 882 l 99 882 b 247 894 144 890 194 894 b 346 849 303 894 346 885 b 265 806 346 819 317 806 b 89 856 206 806 147 821 l 42 669 b 294 614 106 635 188 614 z "},"⁶":{"ha":646,"x_min":0,"x_max":0,"o":"m 326 614 b 606 857 472 614 606 701 b 407 1057 606 971 524 1057 b 382 1053 400 1057 392 1056 b 446 1115 410 1079 431 1100 l 581 1251 l 275 1251 l 139 1093 b 40 865 75 1018 40 947 b 326 614 40 710 179 614 z m 322 804 b 269 857 290 804 269 826 b 322 911 269 888 290 911 b 376 857 354 911 376 889 b 322 804 376 824 353 804 z "},"⁷":{"ha":631,"x_min":0,"x_max":0,"o":"m 33 1032 l 260 1032 l 42 618 l 310 618 l 644 1251 l 644 1253 l 33 1253 z "},"⁸":{"ha":674,"x_min":0,"x_max":0,"o":"m 338 614 b 619 801 474 614 619 661 b 510 951 619 867 575 925 b 600 1079 569 981 600 1019 b 338 1265 600 1208 468 1265 b 75 1079 208 1265 75 1208 b 165 951 75 1017 110 979 b 56 800 104 925 56 867 b 338 614 56 661 203 614 z m 338 1013 b 301 1051 314 1013 301 1029 b 339 1092 301 1075 314 1092 b 375 1051 361 1092 375 1075 b 338 1013 375 1029 358 1013 z m 338 783 b 290 835 310 783 290 803 b 339 883 290 863 308 883 b 386 835 367 883 386 863 b 338 783 386 804 368 783 z "},"⁹":{"ha":646,"x_min":0,"x_max":0,"o":"m 507 783 b 606 1011 571 858 606 929 b 319 1263 606 1167 467 1263 b 40 1019 174 1263 40 1175 b 239 819 40 906 122 819 b 264 824 246 819 254 821 b 200 761 236 797 215 776 l 65 625 l 371 625 z m 324 965 b 269 1019 292 965 269 988 b 324 1072 269 1053 293 1072 b 376 1019 356 1072 376 1050 b 324 965 376 989 356 965 z "},"⁺":{"ha":582,"x_min":0,"x_max":0,"o":"m 381 633 l 381 792 l 540 792 l 540 972 l 381 972 l 381 1131 l 200 1131 l 200 972 l 42 972 l 42 792 l 200 792 l 200 633 z "},"⁻":{"ha":582,"x_min":0,"x_max":0,"o":"m 540 785 l 540 965 l 42 965 l 42 785 z "},"⁼":{"ha":582,"x_min":0,"x_max":0,"o":"m 540 904 l 540 1085 l 42 1085 l 42 904 z m 540 672 l 540 853 l 42 853 l 42 672 z "},"ⁿ":{"ha":549,"x_min":0,"x_max":0,"o":"m 238 617 l 238 817 b 282 894 238 879 253 894 b 318 822 318 894 318 863 l 318 617 l 510 617 l 510 888 b 367 1057 510 982 475 1057 b 235 976 314 1057 272 1032 l 232 976 l 235 1047 l 46 1047 l 46 617 z "},"₀":{"ha":675,"x_min":0,"x_max":0,"o":"m 338 -218 b 629 111 507 -218 629 -96 b 338 429 629 310 503 429 b 46 111 174 429 46 310 b 338 -218 46 -97 169 -218 z m 338 -12 b 282 106 303 -12 282 29 b 338 217 282 183 303 217 b 393 106 372 217 393 185 b 338 -12 393 28 372 -12 z "},"₁":{"ha":442,"x_min":0,"x_max":0,"o":"m 372 -208 l 372 419 l 28 411 l 28 192 l 128 197 l 128 -208 z "},"₂":{"ha":649,"x_min":0,"x_max":0,"o":"m 410 0 b 590 226 536 74 590 144 b 331 432 590 363 492 432 b 40 168 150 432 69 351 l 283 168 b 321 225 288 204 299 225 b 347 197 343 225 347 210 b 215 22 347 157 299 106 l -14 -207 l -14 -208 l 600 -208 l 600 7 b 369 -24 558 7 457 -4 z "},"₃":{"ha":671,"x_min":0,"x_max":0,"o":"m 332 -218 b 615 -14 461 -218 615 -158 b 511 129 615 56 574 111 b 593 254 568 157 593 204 b 339 431 593 376 460 431 b 57 219 204 431 79 390 l 300 219 b 331 251 304 246 317 251 b 360 221 347 251 360 242 b 318 185 360 196 346 185 b 293 186 308 185 303 185 l 293 58 b 318 61 301 61 311 61 b 372 13 353 61 372 49 b 329 -35 372 -15 360 -35 b 281 15 304 -35 283 -19 l 35 15 b 332 -218 47 -168 178 -218 z "},"₄":{"ha":647,"x_min":0,"x_max":0,"o":"m 546 74 l 546 429 l 317 429 l 22 21 l 22 -106 l 315 -106 l 308 -208 l 546 -208 l 540 -106 l 610 -106 l 610 74 z m 239 74 l 325 199 b 318 128 321 172 319 147 l 315 74 z "},"₅":{"ha":632,"x_min":0,"x_max":0,"o":"m 294 -219 b 590 10 447 -219 590 -149 b 379 199 590 126 496 199 b 294 181 347 199 311 192 b 308 235 303 197 307 218 l 550 235 l 550 419 l 136 419 l 71 49 l 99 49 b 247 61 144 57 194 61 b 346 15 303 61 346 51 b 265 -28 346 -14 317 -28 b 89 22 206 -28 147 -12 l 42 -164 b 294 -219 106 -199 188 -219 z "},"₆":{"ha":646,"x_min":0,"x_max":0,"o":"m 326 -219 b 606 24 472 -219 606 -132 b 407 224 606 138 524 224 b 382 219 400 224 392 222 b 446 282 410 246 431 267 l 581 418 l 275 418 l 139 260 b 40 32 75 185 40 114 b 326 -219 40 -124 179 -219 z m 322 -29 b 269 24 290 -29 269 -7 b 322 78 269 54 290 78 b 376 24 354 78 376 56 b 322 -29 376 -10 353 -29 z "},"₇":{"ha":631,"x_min":0,"x_max":0,"o":"m 33 199 l 260 199 l 42 -215 l 310 -215 l 644 418 l 644 419 l 33 419 z "},"₈":{"ha":674,"x_min":0,"x_max":0,"o":"m 338 -219 b 619 -32 474 -219 619 -172 b 510 118 619 33 575 92 b 600 246 569 147 600 186 b 338 432 600 375 468 432 b 75 246 208 432 75 375 b 165 118 75 183 110 146 b 56 -33 104 92 56 33 b 338 -219 56 -172 203 -219 z m 338 179 b 301 218 314 179 301 196 b 339 258 301 242 314 258 b 375 218 361 258 375 242 b 338 179 375 196 358 179 z m 338 -50 b 290 1 310 -50 290 -31 b 339 50 290 29 308 50 b 386 1 367 50 386 29 b 338 -50 386 -29 368 -50 z "},"₉":{"ha":646,"x_min":0,"x_max":0,"o":"m 507 -50 b 606 178 571 25 606 96 b 319 429 606 333 467 429 b 40 186 174 429 40 342 b 239 -14 40 72 122 -14 b 264 -10 246 -14 254 -12 b 200 -72 236 -36 215 -57 l 65 -208 l 371 -208 z m 324 132 b 269 186 292 132 269 154 b 324 239 269 219 293 239 b 376 186 356 239 376 217 b 324 132 376 156 356 132 z "},"₊":{"ha":582,"x_min":0,"x_max":0,"o":"m 381 -200 l 381 -42 l 540 -42 l 540 139 l 381 139 l 381 297 l 200 297 l 200 139 l 42 139 l 42 -42 l 200 -42 l 200 -200 z "},"₋":{"ha":582,"x_min":0,"x_max":0,"o":"m 540 -49 l 540 132 l 42 132 l 42 -49 z "},"₌":{"ha":582,"x_min":0,"x_max":0,"o":"m 540 71 l 540 251 l 42 251 l 42 71 z m 540 -161 l 540 19 l 42 19 l 42 -161 z "},"₍":{"ha":389,"x_min":0,"x_max":0,"o":"m 372 -271 b 282 74 313 -150 282 -40 b 372 417 282 179 304 282 l 199 518 b 61 74 106 371 61 225 b 199 -372 61 -94 110 -235 z "},"₎":{"ha":389,"x_min":0,"x_max":0,"o":"m 189 -372 b 328 74 281 -232 328 -92 b 189 518 328 236 276 381 l 17 417 b 107 74 85 282 107 178 b 17 -271 107 -37 78 -146 z "},"ₙ":{"ha":549,"x_min":0,"x_max":0,"o":"m 238 -139 l 238 61 b 282 139 238 124 253 139 b 318 67 318 139 318 107 l 318 -139 l 510 -139 l 510 132 b 367 301 510 226 475 301 b 235 221 314 301 272 276 l 232 221 l 235 292 l 46 292 l 46 -139 z "},"₣":{"ha":833,"x_min":0,"x_max":0,"o":"m 792 1047 l 90 1047 l 90 297 l 32 297 l 32 169 l 90 169 l 90 0 l 457 0 l 457 169 l 626 169 l 626 297 l 457 297 l 457 364 l 753 364 l 753 639 l 457 639 l 457 747 l 792 747 z "},"₤":{"ha":1079,"x_min":0,"x_max":0,"o":"m 915 356 b 740 264 842 283 801 264 b 613 290 703 264 660 276 b 625 365 621 318 625 344 b 624 385 625 372 625 378 l 789 385 l 789 490 l 596 490 b 569 551 588 511 579 531 l 789 551 l 789 657 l 526 657 b 515 726 519 681 515 704 b 604 819 515 782 551 819 b 704 722 668 819 699 778 l 1010 753 b 604 1065 1003 932 872 1065 b 175 754 321 1065 175 928 b 190 657 175 719 181 688 l 96 657 l 96 551 l 235 551 b 265 490 244 531 256 510 l 96 490 l 96 385 l 303 385 l 303 371 b 300 326 303 357 301 343 b 42 211 218 315 150 283 l 178 -15 b 378 56 275 46 321 56 b 757 -14 478 56 632 -14 b 1079 147 881 -14 953 31 z "},"₧":{"ha":1061,"x_min":0,"x_max":0,"o":"m 982 704 b 558 1047 969 931 792 1047 l 76 1047 l 76 704 l 8 704 l 8 646 l 76 646 l 76 0 l 443 0 l 443 301 l 558 301 b 982 646 790 301 968 414 l 1075 646 l 1075 704 z m 493 761 b 613 704 546 761 599 751 l 443 704 l 443 761 z m 443 579 l 443 646 l 614 646 b 494 579 600 593 551 579 z "},"€":{"ha":1008,"x_min":0,"x_max":0,"o":"m 747 242 b 568 326 665 242 606 272 l 756 326 l 821 489 l 517 489 b 515 525 515 500 515 513 b 517 563 515 538 515 550 l 829 563 l 894 725 l 586 725 b 772 806 629 775 693 806 b 908 781 826 806 868 796 l 1008 1029 b 760 1064 946 1051 833 1064 b 235 725 493 1064 304 944 l 142 725 l 75 563 l 206 563 b 204 517 204 547 204 532 l 204 489 l 136 489 l 69 326 l 229 326 b 710 -18 290 115 458 -18 b 964 31 824 -18 913 4 l 921 282 b 747 242 883 258 815 242 z "},"₸":{"ha":828,"x_min":0,"x_max":0,"o":"m 814 818 l 814 1047 l 14 1047 l 14 818 z m 604 0 l 604 499 l 814 499 l 814 728 l 14 728 l 14 499 l 224 499 l 224 0 z "},"₹":{"ha":1061,"x_min":0,"x_max":0,"o":"m 1033 1049 l 69 1049 l 69 881 l 278 881 b 425 808 358 881 403 853 l 69 808 l 69 640 l 429 640 b 261 535 404 564 342 535 l 69 535 l 69 340 l 418 0 l 899 0 l 479 367 b 807 640 686 376 788 488 l 1033 640 l 1033 808 l 792 808 b 749 881 781 836 765 860 l 1033 881 z "},"₺":{"ha":1156,"x_min":0,"x_max":0,"o":"m 746 542 b 607 293 746 396 696 293 b 571 296 596 293 583 293 l 571 518 l 810 613 l 810 793 l 571 699 l 571 768 l 810 863 l 810 1043 l 571 949 l 571 1047 l 196 1047 l 196 800 l 78 753 l 78 572 l 196 619 l 196 550 l 78 503 l 78 322 l 196 369 l 196 0 b 489 -17 310 -12 375 -17 b 1110 542 919 -17 1110 160 z "},"₼":{"ha":1350,"x_min":0,"x_max":0,"o":"m 853 1047 l 497 1047 l 497 876 b 21 115 190 814 21 576 l 21 0 l 378 0 l 378 56 b 497 585 378 340 414 506 l 497 97 l 853 97 l 853 590 b 972 56 939 511 972 347 l 972 0 l 1329 0 l 1329 115 b 853 876 1329 569 1154 813 z "},"₽":{"ha":1106,"x_min":0,"x_max":0,"o":"m 679 385 b 1076 719 921 385 1076 494 b 651 1047 1076 935 893 1047 l 197 1047 l 197 579 l 56 579 l 56 385 l 197 385 l 197 324 l 56 324 l 56 129 l 197 129 l 197 0 l 564 0 l 564 129 l 907 129 l 907 324 l 564 324 l 564 385 z m 586 789 b 710 689 649 789 710 775 b 588 579 710 601 654 579 l 564 579 l 564 789 z "},"℅":{"ha":1485,"x_min":0,"x_max":0,"o":"m 361 486 b 478 504 401 486 438 492 l 478 729 b 404 704 464 715 440 704 b 308 778 339 704 308 738 b 404 856 308 817 339 856 b 478 826 440 856 464 843 l 478 1047 b 361 1064 449 1056 410 1064 b 42 778 186 1064 42 975 b 361 486 42 578 194 486 z m 1149 957 l 1022 1053 l 283 129 l 408 25 z m 1110 -17 b 1443 275 1283 -17 1443 75 b 1110 561 1443 472 1293 561 b 776 275 926 561 776 472 b 1110 -17 776 75 936 -17 z m 1110 201 b 1043 275 1064 201 1043 235 b 1110 353 1043 314 1064 353 b 1176 275 1156 353 1176 314 b 1110 201 1176 235 1156 201 z "},"ℓ":{"ha":819,"x_min":0,"x_max":0,"o":"m 690 208 b 539 151 629 169 579 151 b 444 258 493 151 444 179 l 444 390 b 774 836 674 551 774 675 b 504 1064 774 971 669 1064 b 183 769 315 1064 183 947 l 183 429 b 0 314 128 393 67 354 l 86 182 b 183 246 128 211 142 219 l 183 221 b 475 -15 183 89 285 -15 b 778 88 586 -15 679 19 z m 506 900 b 561 822 543 900 561 864 b 444 592 561 740 525 664 l 444 813 b 506 900 444 864 465 900 z "},"№":{"ha":1778,"x_min":0,"x_max":0,"o":"m 442 1047 l 76 1047 l 76 0 l 426 0 l 414 524 l 679 0 l 1043 0 l 1043 1047 l 693 1047 l 714 506 z m 1440 935 b 1144 668 1267 935 1144 826 b 1439 393 1144 497 1267 393 b 1736 664 1614 393 1736 497 b 1440 935 1736 831 1611 935 z m 1440 585 b 1375 667 1393 585 1375 619 b 1440 743 1375 708 1397 743 b 1507 664 1486 743 1507 708 b 1440 585 1507 618 1485 585 z m 1440 297 b 1285 149 1350 297 1285 231 b 1440 0 1285 67 1350 0 b 1596 149 1531 0 1596 67 b 1440 297 1596 231 1531 297 z "},"℗":{"ha":1150,"x_min":0,"x_max":0,"o":"m 575 -21 b 1118 522 876 -21 1118 221 b 575 1064 1118 822 876 1064 b 32 522 272 1064 32 822 b 575 -21 32 221 272 -21 z m 575 121 b 179 522 340 121 179 281 b 575 922 179 764 340 922 b 971 522 806 922 971 764 b 575 121 971 281 806 121 z m 553 271 l 553 425 l 592 425 b 817 619 728 425 817 492 b 599 794 817 744 718 794 l 369 794 l 369 271 z m 553 651 l 569 651 b 631 606 603 651 631 646 b 568 563 631 567 600 563 l 553 563 z "},"™":{"ha":1179,"x_min":0,"x_max":0,"o":"m 300 482 l 300 885 l 407 882 l 407 1047 l 11 1047 l 11 882 l 119 885 l 119 482 z m 613 482 l 644 725 l 746 490 l 807 490 l 919 725 l 944 482 l 1122 482 l 1033 1047 l 915 1047 l 781 771 l 654 1047 l 533 1047 l 432 482 z "},"Ω":{"ha":1289,"x_min":0,"x_max":0,"o":"m 1072 286 b 1208 579 1153 356 1208 453 b 644 1065 1208 854 974 1065 b 81 579 315 1065 81 854 b 217 286 81 453 136 356 l 64 286 l 64 0 l 585 0 l 585 282 b 463 526 503 351 463 417 b 644 729 463 654 549 729 b 826 526 740 729 826 654 b 704 282 826 417 785 351 l 704 0 l 1225 0 l 1225 286 z "},"℮":{"ha":1368,"x_min":0,"x_max":0,"o":"m 685 0 b 1144 201 928 0 1078 108 l 1042 201 b 685 39 964 107 832 39 b 346 175 546 39 433 90 b 324 240 328 192 324 211 l 324 489 b 343 508 324 500 332 508 l 1257 508 b 685 1047 1257 799 1047 1047 b 111 522 328 1047 111 818 b 685 0 111 221 338 0 z m 343 540 b 324 560 332 540 324 547 l 324 808 b 346 869 324 836 328 853 b 685 1008 433 956 546 1008 b 1021 869 800 1008 918 971 b 1043 808 1039 853 1043 836 l 1043 560 b 1024 540 1043 547 1035 540 z "},"⅛":{"ha":1292,"x_min":0,"x_max":0,"o":"m 372 419 l 372 1047 l 28 1039 l 28 819 l 128 825 l 128 419 z m 964 1047 l 814 1047 l 96 0 l 250 0 z m 956 -11 b 1238 176 1092 -11 1238 36 b 1128 326 1238 242 1193 300 b 1218 454 1188 356 1218 394 b 956 640 1218 583 1086 640 b 693 454 826 640 693 583 b 783 326 693 392 728 354 b 674 175 722 300 674 242 b 956 -11 674 36 821 -11 z m 956 388 b 919 426 932 388 919 404 b 957 467 919 450 932 467 b 993 426 979 467 993 450 b 956 388 993 404 976 388 z m 956 158 b 908 210 928 158 908 178 b 957 258 908 238 926 258 b 1004 210 985 258 1004 238 b 956 158 1004 179 986 158 z "},"⅜":{"ha":1521,"x_min":0,"x_max":0,"o":"m 332 410 b 615 614 461 410 615 469 b 511 757 615 683 574 739 b 593 882 568 785 593 832 b 339 1058 593 1004 460 1058 b 57 847 204 1058 79 1018 l 300 847 b 331 879 304 874 317 879 b 360 849 347 879 360 869 b 318 813 360 824 346 813 b 293 814 308 813 297 814 l 293 686 b 318 689 301 689 311 689 b 372 640 353 689 372 676 b 329 593 372 613 360 593 b 281 643 304 593 283 608 l 35 643 b 332 410 47 460 178 410 z m 1193 1047 l 1043 1047 l 325 0 l 479 0 z m 1185 -11 b 1467 176 1321 -11 1467 36 b 1357 326 1467 242 1422 300 b 1447 454 1417 356 1447 394 b 1185 640 1447 583 1315 640 b 922 454 1056 640 922 583 b 1013 326 922 392 957 354 b 903 175 951 300 903 242 b 1185 -11 903 36 1050 -11 z m 1185 388 b 1149 426 1161 388 1149 404 b 1186 467 1149 450 1161 467 b 1222 426 1208 467 1222 450 b 1185 388 1222 404 1206 388 z m 1185 158 b 1138 210 1157 158 1138 178 b 1186 258 1138 238 1156 258 b 1233 210 1214 258 1233 238 b 1185 158 1233 179 1215 158 z "},"⅝":{"ha":1482,"x_min":0,"x_max":0,"o":"m 294 408 b 590 638 447 408 590 479 b 379 826 590 754 496 826 b 294 808 347 826 311 819 b 308 863 303 825 307 846 l 550 863 l 550 1047 l 136 1047 l 71 676 l 99 676 b 247 689 144 685 194 689 b 346 643 303 689 346 679 b 265 600 346 614 317 600 b 89 650 206 600 147 615 l 42 464 b 294 408 106 429 188 408 z m 1154 1047 l 1004 1047 l 286 0 l 440 0 z m 1146 -11 b 1428 176 1282 -11 1428 36 b 1318 326 1428 242 1383 300 b 1408 454 1378 356 1408 394 b 1146 640 1408 583 1276 640 b 883 454 1017 640 883 583 b 974 326 883 392 918 354 b 864 175 913 300 864 242 b 1146 -11 864 36 1011 -11 z m 1146 388 b 1110 426 1122 388 1110 404 b 1147 467 1110 450 1122 467 b 1183 426 1169 467 1183 450 b 1146 388 1183 404 1167 388 z m 1146 158 b 1099 210 1118 158 1099 178 b 1147 258 1099 238 1117 258 b 1194 210 1175 258 1194 238 b 1146 158 1194 179 1176 158 z "},"⅞":{"ha":1397,"x_min":0,"x_max":0,"o":"m 644 1046 l 644 1047 l 33 1047 l 33 826 l 260 826 l 42 413 l 310 413 z m 201 0 l 356 0 l 1069 1047 l 919 1047 z m 1233 326 b 1324 454 1293 356 1324 394 b 1061 640 1324 583 1192 640 b 799 454 932 640 799 583 b 889 326 799 392 833 354 b 779 175 828 300 779 242 b 1061 -11 779 36 926 -11 b 1343 176 1197 -11 1343 36 b 1233 326 1343 242 1299 300 z m 1063 467 b 1099 426 1085 467 1099 450 b 1061 388 1099 404 1082 388 b 1025 426 1038 388 1025 404 b 1063 467 1025 450 1038 467 z m 1061 158 b 1014 210 1033 158 1014 178 b 1063 258 1014 238 1032 258 b 1110 210 1090 258 1110 238 b 1061 158 1110 179 1092 158 z "},"Ⅶ":{"ha":2144,"x_min":0,"x_max":0,"o":"m 714 0 l 1119 1047 l 722 1047 l 553 431 l 383 1047 l -14 1047 l 392 0 z m 1549 0 l 1549 1047 l 1182 1047 l 1182 0 z m 2068 0 l 2068 1047 l 1701 1047 l 1701 0 z "},"←":{"ha":1389,"x_min":0,"x_max":0,"o":"m 789 732 l 789 1092 l 126 546 l 789 8 l 789 365 l 1193 365 l 1193 732 z "},"↑":{"ha":1389,"x_min":0,"x_max":0,"o":"m 699 1067 l 153 404 l 513 404 l 513 0 l 879 0 l 879 404 l 1236 404 z "},"→":{"ha":1389,"x_min":0,"x_max":0,"o":"m 604 1090 l 604 733 l 200 733 l 200 367 l 604 367 l 604 7 l 1267 553 z "},"↓":{"ha":1389,"x_min":0,"x_max":0,"o":"m 879 1047 l 513 1047 l 513 643 l 153 643 l 699 -19 l 1236 643 l 879 643 z "},"↔":{"ha":1389,"x_min":0,"x_max":0,"o":"m 788 1119 l 788 706 l 601 706 l 601 1119 l 151 518 l 601 -72 l 601 339 l 788 339 l 788 -72 l 1238 518 z "},"↕":{"ha":1389,"x_min":0,"x_max":0,"o":"m 1290 617 l 700 1067 l 99 617 l 513 617 l 513 431 l 99 431 l 700 -19 l 1290 431 l 879 431 l 879 617 z "},"↖":{"ha":1389,"x_min":0,"x_max":0,"o":"m 853 643 l 1107 897 l 251 979 l 340 131 l 593 383 l 879 97 l 1138 357 z "},"↗":{"ha":1389,"x_min":0,"x_max":0,"o":"m 286 896 l 539 643 l 253 357 l 513 99 l 799 385 l 1053 129 l 1135 985 z "},"↘":{"ha":1389,"x_min":0,"x_max":0,"o":"m 1014 933 l 761 681 l 475 967 l 217 707 l 503 422 l 247 167 l 1103 85 z "},"↙":{"ha":1389,"x_min":0,"x_max":0,"o":"m 915 964 l 631 679 l 375 933 l 293 78 l 1142 167 l 889 419 l 1175 706 z "},"∂":{"ha":932,"x_min":0,"x_max":0,"o":"m 435 1001 b 69 867 307 1001 175 960 l 201 653 b 417 740 283 719 360 740 b 561 631 496 740 542 715 b 439 654 526 646 479 654 b 76 328 199 654 76 510 b 458 -17 76 114 239 -17 b 863 500 803 -17 863 299 b 435 1001 863 722 767 1001 z m 464 236 b 376 342 432 236 376 265 b 481 446 376 410 415 446 b 572 425 508 446 544 440 b 464 236 564 261 522 236 z "},"∆":{"ha":1143,"x_min":0,"x_max":0,"o":"m 1150 0 l 776 1047 l 356 1047 l -8 0 z m 542 614 b 572 733 553 651 563 686 b 603 614 582 686 593 647 l 704 250 l 438 250 z "},"∏":{"ha":1063,"x_min":0,"x_max":0,"o":"m 339 -304 l 339 821 l 724 821 l 724 -304 l 988 -304 l 988 1047 l 78 1047 l 78 -304 z "},"∑":{"ha":913,"x_min":0,"x_max":0,"o":"m 682 381 l 353 826 l 883 826 l 883 1047 l 29 1047 l 29 868 l 404 379 l 14 -125 l 14 -304 l 899 -304 l 899 -83 l 331 -83 z "},"−":{"ha":1111,"x_min":0,"x_max":0,"o":"m 972 278 l 972 556 l 139 556 l 139 278 z "},"∕":{"ha":1111,"x_min":0,"x_max":0,"o":"m 990 1047 l 840 1047 l 122 0 l 276 0 z "},"∙":{"ha":1111,"x_min":0,"x_max":0,"o":"m 556 251 b 736 432 654 251 736 333 b 556 613 736 531 654 613 b 375 432 457 613 375 531 b 556 251 375 333 457 251 z "},"√":{"ha":1114,"x_min":0,"x_max":0,"o":"m 1128 1047 l 667 1047 l 464 192 l 376 478 l -8 478 l 315 -232 l 640 -232 l 932 742 l 1128 742 z "},"∞":{"ha":1217,"x_min":0,"x_max":0,"o":"m 863 768 b 618 638 761 768 686 722 b 356 768 547 724 464 768 b 42 417 168 768 42 619 b 354 65 42 214 168 65 b 599 196 456 65 531 111 b 861 65 669 110 753 65 b 1175 417 1049 65 1175 214 b 863 768 1175 619 1049 768 z m 354 315 b 292 417 315 315 292 344 b 356 518 292 489 317 518 b 476 399 394 518 428 490 b 354 315 433 332 394 315 z m 861 315 b 740 435 822 315 789 343 b 863 518 783 501 822 518 b 925 417 901 518 925 489 b 861 315 925 344 900 315 z "},"∫":{"ha":714,"x_min":0,"x_max":0,"o":"m 189 -304 b 501 32 410 -304 481 -189 l 571 772 b 640 867 576 832 590 867 b 700 856 668 867 683 863 l 700 1138 b 525 1156 654 1147 593 1156 b 213 819 304 1156 233 1040 l 143 79 b 74 -15 138 19 124 -15 b 14 -4 46 -15 31 -11 l 14 -286 b 189 -304 60 -296 121 -304 z "},"≈":{"ha":1042,"x_min":0,"x_max":0,"o":"m 707 429 b 983 746 844 429 933 561 l 824 819 b 699 707 801 771 771 707 b 333 806 613 707 475 806 b 58 492 213 806 110 703 l 221 436 b 349 528 244 479 278 528 b 707 429 446 528 564 429 z m 707 26 b 983 343 844 26 933 158 l 824 417 b 699 304 801 368 771 304 b 333 403 613 304 475 403 b 58 89 213 403 110 300 l 221 33 b 349 125 244 76 278 125 b 707 26 446 125 564 26 z "},"≠":{"ha":1111,"x_min":0,"x_max":0,"o":"m 972 763 l 854 763 l 919 910 l 625 910 l 560 763 l 139 763 l 139 485 l 435 485 l 381 364 l 139 364 l 139 86 l 257 86 l 189 -67 l 485 -67 l 553 86 l 972 86 l 972 364 l 676 364 l 731 485 l 972 485 z "},"≤":{"ha":1111,"x_min":0,"x_max":0,"o":"m 139 772 l 139 489 l 972 264 l 972 517 l 482 632 l 972 744 l 972 997 z m 972 0 l 972 222 l 139 222 l 139 0 z "},"≥":{"ha":1111,"x_min":0,"x_max":0,"o":"m 139 744 l 629 632 l 139 517 l 139 264 l 972 489 l 972 772 l 139 997 z m 972 0 l 972 222 l 139 222 l 139 0 z "},"◊":{"ha":939,"x_min":0,"x_max":0,"o":"m 286 1047 l 42 524 l 286 0 l 654 0 l 897 524 l 654 1047 z m 469 263 l 349 524 l 469 785 l 592 524 z "},"ﬀ":{"ha":1142,"x_min":0,"x_max":0,"o":"m 1082 867 b 1142 856 1110 867 1125 863 l 1142 1122 b 967 1140 1096 1132 1035 1140 b 746 1072 868 1140 796 1117 b 513 1132 686 1111 607 1132 b 110 800 272 1132 110 1032 l 110 738 l 8 738 l 8 450 l 110 450 l 110 0 l 468 0 l 468 450 l 654 450 l 654 0 l 1013 0 l 1013 450 l 1133 450 l 1133 738 l 1007 738 l 1007 772 b 1082 867 1007 832 1032 867 z m 463 738 l 463 775 b 556 883 463 851 493 883 b 654 781 622 883 654 857 l 654 738 z "},"ﬁ":{"ha":1079,"x_min":0,"x_max":0,"o":"m 468 0 l 468 450 l 589 450 l 589 738 l 463 738 l 463 764 b 564 858 463 831 493 858 b 651 815 621 858 651 843 l 651 807 l 1010 807 l 1010 821 b 556 1140 1010 1031 843 1140 b 110 797 268 1140 110 1028 l 110 738 l 8 738 l 8 450 l 110 450 l 110 0 z m 1010 0 l 1010 738 l 651 738 l 651 0 z "},"ﬂ":{"ha":1081,"x_min":0,"x_max":0,"o":"m 468 0 l 468 450 l 589 450 l 589 738 l 463 738 l 463 764 b 556 857 463 831 493 857 b 653 764 622 857 653 831 l 653 0 l 1011 0 l 1011 797 b 556 1140 1011 1029 843 1140 b 110 797 268 1140 110 1029 l 110 738 l 8 738 l 8 450 l 110 450 l 110 0 z "},"ﬃ":{"ha":1624,"x_min":0,"x_max":0,"o":"m 1100 1140 b 753 1067 946 1140 829 1117 b 513 1132 692 1108 613 1132 b 110 785 272 1132 110 1026 l 110 738 l 8 738 l 8 450 l 110 450 l 110 0 l 468 0 l 468 450 l 654 450 l 654 0 l 1013 0 l 1013 450 l 1133 450 l 1133 738 l 1007 738 l 1007 765 b 1107 874 1007 842 1044 874 b 1196 810 1171 874 1196 849 l 1196 808 l 1554 808 l 1554 822 b 1100 1140 1554 1032 1388 1140 z m 463 738 l 463 775 b 556 883 463 851 493 883 b 654 781 622 883 654 857 l 654 738 z m 1554 0 l 1554 738 l 1196 738 l 1196 0 z "},"ﬄ":{"ha":1624,"x_min":0,"x_max":0,"o":"m 1100 1140 b 771 1053 957 1140 846 1111 b 513 1132 710 1104 622 1132 b 110 800 272 1132 110 1032 l 110 738 l 8 738 l 8 450 l 110 450 l 110 0 l 468 0 l 468 450 l 654 450 l 654 0 l 1013 0 l 1013 450 l 1133 450 l 1133 738 l 1007 738 l 1007 764 b 1100 857 1007 831 1038 857 b 1196 764 1164 857 1196 831 l 1196 0 l 1554 0 l 1554 797 b 1100 1140 1554 1029 1388 1140 z m 463 738 l 463 775 b 556 868 463 842 493 868 b 654 781 622 868 654 847 l 654 738 z "},"﬋":{"ha":1079,"x_min":0,"x_max":0,"o":"m 468 0 l 468 450 l 589 450 l 589 738 l 463 738 l 463 764 b 564 857 463 831 493 857 b 654 815 622 857 654 843 l 654 807 l 1010 807 l 1010 821 b 556 1140 1010 1031 843 1140 b 110 797 268 1140 110 1028 l 110 738 l 8 738 l 8 450 l 110 450 l 110 0 z m 1010 -304 l 1010 738 l 654 738 l 654 -304 z "},"﬌":{"ha":1624,"x_min":0,"x_max":0,"o":"m 1100 1140 b 753 1067 946 1140 829 1117 b 513 1132 692 1108 613 1132 b 110 800 272 1132 110 1026 l 110 738 l 8 738 l 8 450 l 110 450 l 110 0 l 468 0 l 468 450 l 654 450 l 654 0 l 1013 0 l 1013 450 l 1133 450 l 1133 738 l 1007 738 l 1007 765 b 1107 858 1007 832 1044 858 b 1199 810 1172 858 1199 840 l 1199 808 l 1554 808 l 1554 822 b 1100 1140 1554 1026 1388 1140 z m 463 738 l 463 775 b 556 868 463 842 493 868 b 654 781 622 868 654 847 l 654 738 z m 1554 -304 l 1554 738 l 1199 738 l 1199 -304 z "},"﻿":{"ha":0,"x_min":0,"x_max":0,"o":""}}}
